<svg width="122" height="104" viewBox="0 0 122 104" fill="none" xmlns="http://www.w3.org/2000/svg">
<path d="M121.172 77.0688H50.4956V82.4823H121.172V77.0688Z" fill="#193444"/>
<path d="M85.8371 102.957C105.356 102.957 121.179 93.6373 121.179 82.1408C121.179 70.6442 105.356 61.3245 85.8371 61.3245C66.3185 61.3245 50.4956 70.6442 50.4956 82.1408C50.4956 93.6373 66.3185 102.957 85.8371 102.957Z" fill="#193444"/>
<path d="M85.8371 98.6019C105.356 98.6019 121.179 89.2821 121.179 77.7855C121.179 66.289 105.356 56.9692 85.8371 56.9692C66.3185 56.9692 50.4956 66.289 50.4956 77.7855C50.4956 89.2821 66.3185 98.6019 85.8371 98.6019Z" fill="#234156"/>
<path d="M53.879 74.0472H52.4788V43.9717C52.4788 41.9149 53.1956 40.3203 54.4351 39.6034C55.5071 38.9871 56.8336 39.0742 58.1803 39.8513L66.2134 44.4876L65.5166 45.7003L57.4835 41.064C56.8537 40.6955 55.9292 40.3605 55.1386 40.8161C54.3413 41.2784 53.879 42.4308 53.879 43.9717V74.0472Z" fill="#234156"/>
<path d="M53.8655 74.0068C53.8655 74.2681 53.5573 74.4758 53.1687 74.4758C52.7801 74.4758 52.4719 74.2681 52.4719 74.0068C52.4719 73.7455 52.7801 73.5378 53.1687 73.5378C53.5573 73.5378 53.8655 73.7455 53.8655 74.0068Z" fill="#234156"/>
<path d="M56.0564 19.5439V75.4538C56.0564 85.1619 69.4225 93.0341 85.9107 93.0341C102.399 93.0341 115.765 85.1619 115.765 75.4538V19.5439H56.0564Z" fill="#DCF3FF"/>
<path d="M67.9822 19.5439H56.0632V75.4539C56.0632 81.2023 60.7464 86.3008 67.9822 89.51V19.5439Z" fill="#B6E3FC"/>
<path d="M97.7495 19.5439V91.6004C108.349 88.9004 115.765 82.6896 115.765 75.4539V19.5439H97.7495Z" fill="white"/>
<path d="M85.9107 90.9175C69.4225 90.9175 56.0564 83.0452 56.0564 73.3372V75.461C56.0564 85.169 69.4225 93.0413 85.9107 93.0413C102.399 93.0413 115.765 85.169 115.765 75.461V73.3372C115.765 83.0452 102.399 90.9175 85.9107 90.9175Z" fill="#416B7F"/>
<path d="M85.9107 41.4658C69.4225 41.4658 56.0564 33.5935 56.0564 23.8855V26.0093C56.0564 35.7174 69.4225 43.5896 85.9107 43.5896C102.399 43.5896 115.765 35.7174 115.765 26.0093V23.8855C115.765 33.5935 102.399 41.4658 85.9107 41.4658Z" fill="#365A70"/>
<path d="M85.9107 38.3171C102.399 38.3171 115.765 30.4461 115.765 20.7368C115.765 11.0275 102.399 3.15649 85.9107 3.15649C69.4226 3.15649 56.0564 11.0275 56.0564 20.7368C56.0564 30.4461 69.4226 38.3171 85.9107 38.3171Z" fill="white"/>
<path d="M111.303 20.3549C111.303 28.6157 99.9333 35.3088 85.9106 35.3088C71.8879 35.3088 60.5183 28.6157 60.5183 20.3549C60.5183 12.094 71.8879 5.40088 85.9106 5.40088C99.9333 5.40088 111.303 12.094 111.303 20.3549Z" fill="#DCF3FF"/>
<path d="M85.9106 6.82124C99.5313 6.82124 110.64 13.1325 111.269 21.065C111.289 20.8305 111.303 20.5893 111.303 20.3549C111.303 12.094 99.9333 5.40088 85.9106 5.40088C71.8879 5.40088 60.5183 12.094 60.5183 20.3549C60.5183 20.596 60.5317 20.8305 60.5518 21.065C61.1816 13.1392 72.2966 6.82124 85.9106 6.82124Z" fill="#C5EDFF"/>
<path d="M85.9108 35.3094C99.5315 35.3094 110.64 28.9981 111.27 21.0656C110.64 13.1397 99.5248 6.82178 85.9108 6.82178C72.2901 6.82178 61.1818 13.133 60.552 21.0656C61.1818 28.9914 72.2968 35.3094 85.9108 35.3094Z" fill="#2BBCE7"/>
<path d="M85.9108 9.21982C98.8079 9.21982 109.461 14.8812 111.095 22.2175C111.176 21.8356 111.236 21.4537 111.27 21.0651C110.64 13.1392 99.5248 6.82129 85.9108 6.82129C72.2901 6.82129 61.1818 13.1325 60.552 21.0651C60.5855 21.4537 60.6458 21.8356 60.7262 22.2175C62.3677 14.8812 73.0137 9.21982 85.9108 9.21982Z" fill="#DCF3FF"/>
<path d="M85.9109 35.3088C98.8616 35.3088 109.541 29.5938 111.095 22.2174C109.454 14.8811 98.808 9.21973 85.9109 9.21973C73.0138 9.21973 62.3611 14.8811 60.7263 22.2174C62.2874 29.5938 72.9602 35.3088 85.9109 35.3088Z" fill="#2BBCE7"/>
<path opacity="0.5" d="M93.7697 34.4981C92.9121 32.9505 92.0009 31.443 90.6877 30.2304C87.847 27.604 83.8673 26.8068 80.3834 25.3998C78.9698 24.8303 77.201 24.1737 76.2631 22.8941C75.6467 22.0566 75.8611 21.1521 76.3435 20.3079C76.9129 19.3097 77.6432 18.4052 77.9112 17.2662C78.0988 16.469 77.9715 15.7521 77.6767 14.995C77.4087 14.3317 77.0938 13.6684 77.1139 12.9315C77.1541 11.3972 78.2596 10.4391 79.5929 9.70215C78.3802 9.88974 77.1876 10.1041 76.0487 10.3855C75.3318 10.9684 74.5546 11.491 73.8712 12.1074C73.362 12.563 72.9467 13.1258 72.6318 13.7287C72.4844 14.0034 72.27 14.4322 72.5514 14.6935C72.8127 14.9347 73.2682 14.995 73.5965 15.0888C74.0655 15.2228 74.5345 15.3702 74.9499 15.6315C75.8075 16.1675 76.4238 17.2461 76.1291 18.2645C75.8544 19.2293 74.8829 19.7787 73.9918 20.0735C72.0757 20.7099 69.3489 20.6697 68.0893 18.8608C67.3121 17.7352 66.6287 16.4824 66.0793 15.2362C66.0324 15.129 65.9923 15.0218 65.9588 14.9146C63.1984 16.9781 61.3426 19.4705 60.7329 22.204C60.9272 23.1286 61.2622 24.0263 61.7312 24.8839C62.495 24.033 63.2654 23.1755 64.2503 22.6127C65.6841 21.7886 67.4729 21.0918 69.1077 21.7149C70.5548 22.271 71.5531 23.4971 72.806 24.3479C74.9968 25.8487 77.6164 26.6862 80.0685 27.6509C82.5944 28.6425 85.2743 29.681 87.3647 31.4564C88.5505 32.4681 89.4215 33.7143 89.8704 35.1078C91.2237 34.9805 92.5369 34.7929 93.8032 34.5517C93.7898 34.545 93.7764 34.5249 93.7697 34.4981Z" fill="#40D3F4"/>
<path opacity="0.5" d="M101.407 29.4397C100.429 28.14 99.7526 26.6392 98.7141 25.3796C98.2786 24.857 97.756 24.2474 97.1329 23.9526C96.5835 23.698 95.9538 23.6042 95.3642 23.5104C94.118 23.3161 92.6642 23.2357 91.619 22.4451C90.815 21.8421 90.3527 20.6161 91.0562 19.7652C91.7195 18.9612 92.9522 18.7535 93.917 18.6128C96.5299 18.2376 99.2836 18.6798 101.729 17.5141C103.196 16.8106 104.429 15.7118 105.849 14.9279C102.714 12.5897 98.4193 10.8076 93.4748 9.90308C93.2001 11.6718 91.6123 12.8577 90.3795 13.9967C89.7028 14.6331 89.1133 15.3232 88.3428 15.8525C87.579 16.3818 86.7415 16.7905 85.9174 17.2193C84.2961 18.0634 82.5608 19.0215 82.1186 20.9511C81.9712 21.5942 82.1187 22.1235 82.7417 22.4049C83.405 22.6997 84.1956 22.7399 84.9125 22.8203C86.7348 23.0213 88.5773 23.3831 90.3661 23.7851C92.289 24.2139 94.2855 24.8035 95.9002 25.9759C96.5232 26.4315 97.0927 26.9608 97.5014 27.6107C97.7962 28.0864 98.0508 28.5955 98.3054 29.0913C98.9151 30.304 99.5114 31.5301 100.148 32.7293C101.267 32.2804 102.325 31.7847 103.303 31.2353C102.587 30.7596 101.95 30.1633 101.407 29.4397Z" fill="#40D3F4"/>
<path d="M64.0023 83.3663C63.6472 83.976 63.0643 84.2775 62.6757 84.0497C62.2871 83.8219 62.2536 83.172 62.6087 82.5557C62.9638 81.946 63.5467 81.6445 63.9353 81.8723C64.3239 82.1001 64.3507 82.75 64.0023 83.3663ZM62.8767 82.7165C62.602 83.1988 62.6288 83.6611 62.8298 83.7817C63.0308 83.8956 63.4462 83.6946 63.7276 83.2122C64.009 82.7299 63.9755 82.2676 63.7745 82.147C63.5735 82.0264 63.1581 82.2341 62.8767 82.7165Z" fill="#365A70"/>
<path d="M64.0762 82.5428L62.5821 83.4205L62.5017 83.2798L64.0025 82.4021L64.0762 82.5428Z" fill="#365A70"/>
<path d="M63.3661 83.7817L63.3728 82.0398H63.2187L63.2053 83.775L63.3661 83.7817Z" fill="#365A70"/>
<path d="M63.2964 82.7383L63.1389 83.011L64.63 83.8719L64.7875 83.5992L63.2964 82.7383Z" fill="#365A70"/>
<path d="M64.7935 83.5945C64.7466 83.5677 64.6796 83.6079 64.6327 83.6816C64.5925 83.7553 64.5925 83.8357 64.6327 83.8625C64.6796 83.8893 64.7466 83.8491 64.7935 83.7754C64.8337 83.7017 64.8337 83.6213 64.7935 83.5945Z" fill="#365A70"/>
<path d="M70.2066 86.3617C69.8515 86.9714 69.2686 87.2729 68.8801 87.0451C68.4915 86.8173 68.458 86.1674 68.8131 85.551C69.1681 84.9413 69.751 84.6398 70.1396 84.8676C70.5282 85.0954 70.555 85.752 70.2066 86.3617ZM69.081 85.7118C68.8064 86.1942 68.8331 86.6565 69.0341 86.7771C69.2351 86.891 69.6505 86.69 69.9319 86.2076C70.2133 85.7252 70.1798 85.2629 69.9788 85.1423C69.7778 85.0284 69.3624 85.2361 69.081 85.7118Z" fill="#365A70"/>
<path d="M70.287 85.5371L68.7862 86.4147L68.7058 86.2807L70.2066 85.4031L70.287 85.5371Z" fill="#365A70"/>
<path d="M69.5697 86.7768L69.5764 85.0415H69.4223L69.4089 86.7768H69.5697Z" fill="#365A70"/>
<path d="M69.5185 85.7251L69.3611 85.9978L70.8524 86.8587L71.0098 86.586L69.5185 85.7251Z" fill="#365A70"/>
<path d="M70.9971 86.5962C70.9502 86.5694 70.8832 86.6096 70.8363 86.6833C70.7961 86.757 70.7961 86.8374 70.8363 86.8642C70.8832 86.891 70.9502 86.8508 70.9971 86.7771C71.044 86.7034 71.0373 86.623 70.9971 86.5962Z" fill="#365A70"/>
<path d="M110.787 88.8804C110.593 88.8804 110.439 88.7263 110.439 88.532V30.7127C110.439 30.5184 110.593 30.3643 110.787 30.3643C110.982 30.3643 111.136 30.5184 111.136 30.7127V88.5253C111.136 88.7263 110.982 88.8804 110.787 88.8804Z" fill="#234156"/>
<path d="M110.787 31.0678C110.727 31.0678 110.666 31.0544 110.613 31.0209L106.211 28.4817C106.044 28.3879 105.99 28.1735 106.084 28.006C106.178 27.8385 106.392 27.7782 106.559 27.8787L110.961 30.4179C111.129 30.5117 111.189 30.7261 111.089 30.8936C111.028 31.0008 110.908 31.0678 110.787 31.0678Z" fill="#234156"/>
<path d="M104.55 92.4921C104.355 92.4921 104.201 92.338 104.201 92.1437V34.3311C104.201 34.1368 104.355 33.9827 104.55 33.9827C104.744 33.9827 104.898 34.1368 104.898 34.3311V92.1437C104.898 92.338 104.744 92.4921 104.55 92.4921Z" fill="#234156"/>
<path d="M104.55 34.6792C104.489 34.6792 104.429 34.6658 104.375 34.6323L99.9735 32.093C99.8061 31.9992 99.7458 31.7848 99.8462 31.6173C99.94 31.4499 100.154 31.3896 100.322 31.49L104.724 34.0293C104.891 34.1231 104.952 34.3375 104.851 34.505C104.784 34.6122 104.67 34.6792 104.55 34.6792Z" fill="#234156"/>
<path d="M110.692 85.7506L104.379 89.3945L104.727 89.998L111.04 86.354L110.692 85.7506Z" fill="#234156"/>
<path d="M110.692 81.7159L104.379 85.3599L104.727 85.9633L111.04 82.3194L110.692 81.7159Z" fill="#234156"/>
<path d="M110.703 77.5653L104.39 81.21L104.739 81.8134L111.052 78.1687L110.703 77.5653Z" fill="#234156"/>
<path d="M110.68 73.543L104.367 77.1863L104.715 77.7898L111.028 74.1465L110.68 73.543Z" fill="#234156"/>
<path d="M110.693 69.4041L104.379 73.0481L104.728 73.6516L111.041 70.0076L110.693 69.4041Z" fill="#234156"/>
<path d="M110.701 65.244L104.387 68.8887L104.736 69.4922L111.049 65.8475L110.701 65.244Z" fill="#234156"/>
<path d="M110.691 61.1148L104.378 64.7588L104.726 65.3623L111.04 61.7183L110.691 61.1148Z" fill="#234156"/>
<path d="M110.691 57.0816L104.377 60.7256L104.726 61.3291L111.039 57.6851L110.691 57.0816Z" fill="#234156"/>
<path d="M110.691 52.941L104.378 56.585L104.726 57.1884L111.04 53.5445L110.691 52.941Z" fill="#234156"/>
<path d="M110.692 48.8001L104.379 52.4441L104.727 53.0476L111.04 49.4036L110.692 48.8001Z" fill="#234156"/>
<path d="M110.693 44.6593L104.38 48.3032L104.728 48.9067L111.042 45.2627L110.693 44.6593Z" fill="#234156"/>
<path d="M110.691 40.5128L104.377 44.1567L104.726 44.7602L111.039 41.1163L110.691 40.5128Z" fill="#234156"/>
<path d="M110.69 36.4798L104.377 40.1238L104.725 40.7273L111.038 37.0833L110.69 36.4798Z" fill="#234156"/>
<path d="M110.691 32.3387L104.377 35.9827L104.726 36.5861L111.039 32.9422L110.691 32.3387Z" fill="#234156"/>
<path d="M65.8719 92.0833H64.4717V35.2354C64.4717 32.6359 66.0193 29.7148 67.9891 28.5691C68.974 27.9996 69.9655 27.9393 70.7628 28.4016C71.6807 28.9309 72.21 30.09 72.21 31.5706V32.9441L70.8097 32.3746V31.5706C70.8097 30.6126 70.5283 29.8823 70.066 29.6143C69.6171 29.353 69.0678 29.5607 68.6926 29.7818C67.165 30.6662 65.8719 33.1652 65.8719 35.2354V92.0833Z" fill="#234156"/>
<path d="M65.8582 92.0833C65.8582 92.3445 65.55 92.5522 65.1614 92.5522C64.7795 92.5522 64.4646 92.3445 64.4646 92.0833C64.4646 91.822 64.7728 91.6143 65.1614 91.6143C65.55 91.621 65.8582 91.8287 65.8582 92.0833Z" fill="#234156"/>
<path d="M72.0221 94.3543H70.6218V37.5064C70.6218 34.9069 72.1695 31.9858 74.1392 30.8401C75.1241 30.2706 76.1157 30.2103 76.9129 30.6726C77.8308 31.2019 78.3601 32.361 78.3601 33.8416V34.6523L76.9598 34.3575V33.8483C76.9598 32.8903 76.6784 32.16 76.2162 31.892C75.7673 31.6307 75.2179 31.8384 74.8427 32.0595C73.3151 32.9439 72.0221 35.4429 72.0221 37.5131V94.3543Z" fill="#234156"/>
<path d="M72.0154 94.3542C72.0154 94.6155 71.7072 94.8232 71.3186 94.8232C70.93 94.8232 70.6218 94.6155 70.6218 94.3542C70.6218 94.093 70.93 93.8853 71.3186 93.8853C71.7072 93.8853 72.0154 94.0997 72.0154 94.3542Z" fill="#234156"/>
<rect x="24.7739" y="31.9043" width="15.1304" height="22.6957" fill="#4E90F0"/>
<rect x="24.7739" y="56.113" width="15.1304" height="22.6957" fill="#4E90F0"/>
<path d="M24.7739 80.3218H39.9044V100.017C39.9044 101.674 38.5612 103.017 36.9044 103.017H27.7739C26.1171 103.017 24.7739 101.674 24.7739 100.017V80.3218Z" fill="#4E90F0"/>
<path d="M26.2869 101.504H17.2087V80.3217M17.2087 80.3217V56.1131M17.2087 80.3217V7M17.2087 80.3217H25.5304M17.2087 56.1131V31.9044M17.2087 56.1131H25.5304M17.2087 31.9044V7M17.2087 31.9044H25.5304M17.2087 7H27.0435" stroke="#C7CEE3"/>
<rect x="25.2739" y="6.68262" width="14.1304" height="95.8348" rx="2.5" stroke="#C7CEE3"/>
<path d="M4.07358 79.562C4.58158 79.154 4.97958 78.82 5.26758 78.56C5.55558 78.296 5.79758 78.022 5.99358 77.738C6.19358 77.45 6.29358 77.168 6.29358 76.892C6.29358 76.632 6.22958 76.428 6.10158 76.28C5.97758 76.128 5.77558 76.052 5.49558 76.052C5.22358 76.052 5.01158 76.138 4.85958 76.31C4.71158 76.478 4.63158 76.704 4.61958 76.988H4.09158C4.10758 76.54 4.24358 76.194 4.49958 75.95C4.75558 75.706 5.08558 75.584 5.48958 75.584C5.90158 75.584 6.22758 75.698 6.46758 75.926C6.71158 76.154 6.83358 76.468 6.83358 76.868C6.83358 77.2 6.73358 77.524 6.53358 77.84C6.33758 78.152 6.11358 78.428 5.86158 78.668C5.60958 78.904 5.28758 79.18 4.89558 79.496H6.95958V79.952H4.07358V79.562ZM10.3568 76.136H8.25075V77.504C8.34275 77.376 8.47875 77.272 8.65875 77.192C8.83875 77.108 9.03275 77.066 9.24075 77.066C9.57275 77.066 9.84275 77.136 10.0508 77.276C10.2588 77.412 10.4068 77.59 10.4948 77.81C10.5868 78.026 10.6328 78.256 10.6328 78.5C10.6328 78.788 10.5788 79.046 10.4708 79.274C10.3628 79.502 10.1968 79.682 9.97275 79.814C9.75275 79.946 9.47875 80.012 9.15075 80.012C8.73075 80.012 8.39075 79.904 8.13075 79.688C7.87075 79.472 7.71275 79.184 7.65675 78.824H8.19075C8.24275 79.052 8.35275 79.23 8.52075 79.358C8.68875 79.486 8.90075 79.55 9.15675 79.55C9.47275 79.55 9.71075 79.456 9.87075 79.268C10.0308 79.076 10.1108 78.824 10.1108 78.512C10.1108 78.2 10.0308 77.96 9.87075 77.792C9.71075 77.62 9.47475 77.534 9.16275 77.534C8.95075 77.534 8.76475 77.586 8.60475 77.69C8.44875 77.79 8.33475 77.928 8.26275 78.104H7.74675V75.656H10.3568V76.136ZM11.2383 76.64C11.2383 76.368 11.3203 76.152 11.4843 75.992C11.6483 75.828 11.8583 75.746 12.1143 75.746C12.3703 75.746 12.5803 75.828 12.7443 75.992C12.9083 76.152 12.9903 76.368 12.9903 76.64C12.9903 76.916 12.9083 77.136 12.7443 77.3C12.5803 77.46 12.3703 77.54 12.1143 77.54C11.8583 77.54 11.6483 77.46 11.4843 77.3C11.3203 77.136 11.2383 76.916 11.2383 76.64ZM14.7423 75.812L12.3123 80H11.7723L14.2023 75.812H14.7423ZM12.1143 76.082C11.9783 76.082 11.8703 76.13 11.7903 76.226C11.7143 76.318 11.6763 76.456 11.6763 76.64C11.6763 76.824 11.7143 76.964 11.7903 77.06C11.8703 77.156 11.9783 77.204 12.1143 77.204C12.2503 77.204 12.3583 77.156 12.4383 77.06C12.5183 76.96 12.5583 76.82 12.5583 76.64C12.5583 76.456 12.5183 76.318 12.4383 76.226C12.3583 76.13 12.2503 76.082 12.1143 76.082ZM13.5363 79.172C13.5363 78.896 13.6183 78.678 13.7823 78.518C13.9463 78.354 14.1563 78.272 14.4123 78.272C14.6683 78.272 14.8763 78.354 15.0363 78.518C15.2003 78.678 15.2823 78.896 15.2823 79.172C15.2823 79.444 15.2003 79.662 15.0363 79.826C14.8763 79.99 14.6683 80.072 14.4123 80.072C14.1563 80.072 13.9463 79.992 13.7823 79.832C13.6183 79.668 13.5363 79.448 13.5363 79.172ZM14.4063 78.614C14.2703 78.614 14.1623 78.662 14.0823 78.758C14.0023 78.85 13.9623 78.988 13.9623 79.172C13.9623 79.352 14.0023 79.49 14.0823 79.586C14.1623 79.678 14.2703 79.724 14.4063 79.724C14.5423 79.724 14.6503 79.678 14.7303 79.586C14.8103 79.49 14.8503 79.352 14.8503 79.172C14.8503 78.988 14.8103 78.85 14.7303 78.758C14.6503 78.662 14.5423 78.614 14.4063 78.614Z" fill="#4E90F0"/>
<path d="M7.12981 99.786C7.12981 99.098 7.24181 98.562 7.46581 98.178C7.68981 97.79 8.08181 97.596 8.64181 97.596C9.19781 97.596 9.58781 97.79 9.81181 98.178C10.0358 98.562 10.1478 99.098 10.1478 99.786C10.1478 100.486 10.0358 101.03 9.81181 101.418C9.58781 101.806 9.19781 102 8.64181 102C8.08181 102 7.68981 101.806 7.46581 101.418C7.24181 101.03 7.12981 100.486 7.12981 99.786ZM9.60781 99.786C9.60781 99.438 9.58381 99.144 9.53581 98.904C9.49181 98.66 9.39781 98.464 9.25381 98.316C9.11381 98.168 8.90981 98.094 8.64181 98.094C8.36981 98.094 8.16181 98.168 8.01781 98.316C7.87781 98.464 7.78381 98.66 7.73581 98.904C7.69181 99.144 7.66981 99.438 7.66981 99.786C7.66981 100.146 7.69181 100.448 7.73581 100.692C7.78381 100.936 7.87781 101.132 8.01781 101.28C8.16181 101.428 8.36981 101.502 8.64181 101.502C8.90981 101.502 9.11381 101.428 9.25381 101.28C9.39781 101.132 9.49181 100.936 9.53581 100.692C9.58381 100.448 9.60781 100.146 9.60781 99.786ZM10.7774 98.64C10.7774 98.368 10.8594 98.152 11.0234 97.992C11.1874 97.828 11.3974 97.746 11.6534 97.746C11.9094 97.746 12.1194 97.828 12.2834 97.992C12.4474 98.152 12.5294 98.368 12.5294 98.64C12.5294 98.916 12.4474 99.136 12.2834 99.3C12.1194 99.46 11.9094 99.54 11.6534 99.54C11.3974 99.54 11.1874 99.46 11.0234 99.3C10.8594 99.136 10.7774 98.916 10.7774 98.64ZM14.2814 97.812L11.8514 102H11.3114L13.7414 97.812H14.2814ZM11.6534 98.082C11.5174 98.082 11.4094 98.13 11.3294 98.226C11.2534 98.318 11.2154 98.456 11.2154 98.64C11.2154 98.824 11.2534 98.964 11.3294 99.06C11.4094 99.156 11.5174 99.204 11.6534 99.204C11.7894 99.204 11.8974 99.156 11.9774 99.06C12.0574 98.96 12.0974 98.82 12.0974 98.64C12.0974 98.456 12.0574 98.318 11.9774 98.226C11.8974 98.13 11.7894 98.082 11.6534 98.082ZM13.0754 101.172C13.0754 100.896 13.1574 100.678 13.3214 100.518C13.4854 100.354 13.6954 100.272 13.9514 100.272C14.2074 100.272 14.4154 100.354 14.5754 100.518C14.7394 100.678 14.8214 100.896 14.8214 101.172C14.8214 101.444 14.7394 101.662 14.5754 101.826C14.4154 101.99 14.2074 102.072 13.9514 102.072C13.6954 102.072 13.4854 101.992 13.3214 101.832C13.1574 101.668 13.0754 101.448 13.0754 101.172ZM13.9454 100.614C13.8094 100.614 13.7014 100.662 13.6214 100.758C13.5414 100.85 13.5014 100.988 13.5014 101.172C13.5014 101.352 13.5414 101.49 13.6214 101.586C13.7014 101.678 13.8094 101.724 13.9454 101.724C14.0814 101.724 14.1894 101.678 14.2694 101.586C14.3494 101.49 14.3894 101.352 14.3894 101.172C14.3894 100.988 14.3494 100.85 14.2694 100.758C14.1894 100.662 14.0814 100.614 13.9454 100.614Z" fill="#4E90F0"/>
<path d="M6.07623 52.136H3.97023V53.504C4.06223 53.376 4.19823 53.272 4.37823 53.192C4.55823 53.108 4.75223 53.066 4.96023 53.066C5.29223 53.066 5.56223 53.136 5.77023 53.276C5.97823 53.412 6.12623 53.59 6.21423 53.81C6.30623 54.026 6.35223 54.256 6.35223 54.5C6.35223 54.788 6.29823 55.046 6.19023 55.274C6.08223 55.502 5.91623 55.682 5.69223 55.814C5.47223 55.946 5.19823 56.012 4.87023 56.012C4.45023 56.012 4.11023 55.904 3.85023 55.688C3.59023 55.472 3.43223 55.184 3.37623 54.824H3.91023C3.96223 55.052 4.07223 55.23 4.24023 55.358C4.40823 55.486 4.62023 55.55 4.87623 55.55C5.19223 55.55 5.43023 55.456 5.59023 55.268C5.75023 55.076 5.83023 54.824 5.83023 54.512C5.83023 54.2 5.75023 53.96 5.59023 53.792C5.43023 53.62 5.19423 53.534 4.88223 53.534C4.67023 53.534 4.48423 53.586 4.32423 53.69C4.16823 53.79 4.05423 53.928 3.98223 54.104H3.46623V51.656H6.07623V52.136ZM7.07781 53.786C7.07781 53.098 7.18981 52.562 7.41381 52.178C7.63781 51.79 8.02981 51.596 8.58981 51.596C9.14581 51.596 9.53581 51.79 9.75981 52.178C9.98381 52.562 10.0958 53.098 10.0958 53.786C10.0958 54.486 9.98381 55.03 9.75981 55.418C9.53581 55.806 9.14581 56 8.58981 56C8.02981 56 7.63781 55.806 7.41381 55.418C7.18981 55.03 7.07781 54.486 7.07781 53.786ZM9.55581 53.786C9.55581 53.438 9.53181 53.144 9.48381 52.904C9.43981 52.66 9.34581 52.464 9.20181 52.316C9.06181 52.168 8.85781 52.094 8.58981 52.094C8.31781 52.094 8.10981 52.168 7.96581 52.316C7.82581 52.464 7.73181 52.66 7.68381 52.904C7.63981 53.144 7.61781 53.438 7.61781 53.786C7.61781 54.146 7.63981 54.448 7.68381 54.692C7.73181 54.936 7.82581 55.132 7.96581 55.28C8.10981 55.428 8.31781 55.502 8.58981 55.502C8.85781 55.502 9.06181 55.428 9.20181 55.28C9.34581 55.132 9.43981 54.936 9.48381 54.692C9.53181 54.448 9.55581 54.146 9.55581 53.786ZM10.7254 52.64C10.7254 52.368 10.8074 52.152 10.9714 51.992C11.1354 51.828 11.3454 51.746 11.6014 51.746C11.8574 51.746 12.0674 51.828 12.2314 51.992C12.3954 52.152 12.4774 52.368 12.4774 52.64C12.4774 52.916 12.3954 53.136 12.2314 53.3C12.0674 53.46 11.8574 53.54 11.6014 53.54C11.3454 53.54 11.1354 53.46 10.9714 53.3C10.8074 53.136 10.7254 52.916 10.7254 52.64ZM14.2294 51.812L11.7994 56H11.2594L13.6894 51.812H14.2294ZM11.6014 52.082C11.4654 52.082 11.3574 52.13 11.2774 52.226C11.2014 52.318 11.1634 52.456 11.1634 52.64C11.1634 52.824 11.2014 52.964 11.2774 53.06C11.3574 53.156 11.4654 53.204 11.6014 53.204C11.7374 53.204 11.8454 53.156 11.9254 53.06C12.0054 52.96 12.0454 52.82 12.0454 52.64C12.0454 52.456 12.0054 52.318 11.9254 52.226C11.8454 52.13 11.7374 52.082 11.6014 52.082ZM13.0234 55.172C13.0234 54.896 13.1054 54.678 13.2694 54.518C13.4334 54.354 13.6434 54.272 13.8994 54.272C14.1554 54.272 14.3634 54.354 14.5234 54.518C14.6874 54.678 14.7694 54.896 14.7694 55.172C14.7694 55.444 14.6874 55.662 14.5234 55.826C14.3634 55.99 14.1554 56.072 13.8994 56.072C13.6434 56.072 13.4334 55.992 13.2694 55.832C13.1054 55.668 13.0234 55.448 13.0234 55.172ZM13.8934 54.614C13.7574 54.614 13.6494 54.662 13.5694 54.758C13.4894 54.85 13.4494 54.988 13.4494 55.172C13.4494 55.352 13.4894 55.49 13.5694 55.586C13.6494 55.678 13.7574 55.724 13.8934 55.724C14.0294 55.724 14.1374 55.678 14.2174 55.586C14.2974 55.49 14.3374 55.352 14.3374 55.172C14.3374 54.988 14.2974 54.85 14.2174 54.758C14.1374 54.662 14.0294 54.614 13.8934 54.614Z" fill="#4E90F0"/>
<path d="M5.75814 28.388L4.25214 32H3.20214L4.72614 28.502H2.86014V27.626H5.75814V28.388ZM9.25708 28.514H7.38508V29.342C7.46508 29.254 7.57708 29.182 7.72108 29.126C7.86508 29.07 8.02108 29.042 8.18908 29.042C8.48908 29.042 8.73708 29.11 8.93308 29.246C9.13308 29.382 9.27908 29.558 9.37108 29.774C9.46308 29.99 9.50908 30.224 9.50908 30.476C9.50908 30.944 9.37708 31.316 9.11308 31.592C8.84908 31.864 8.47708 32 7.99708 32C7.67708 32 7.39908 31.946 7.16308 31.838C6.92708 31.726 6.74508 31.572 6.61708 31.376C6.48908 31.18 6.41908 30.954 6.40708 30.698H7.40908C7.43308 30.822 7.49108 30.926 7.58308 31.01C7.67508 31.09 7.80108 31.13 7.96108 31.13C8.14908 31.13 8.28908 31.07 8.38108 30.95C8.47308 30.83 8.51908 30.67 8.51908 30.47C8.51908 30.274 8.47108 30.124 8.37508 30.02C8.27908 29.916 8.13908 29.864 7.95508 29.864C7.81908 29.864 7.70708 29.898 7.61908 29.966C7.53108 30.03 7.47308 30.116 7.44508 30.224H6.45508V27.614H9.25708V28.514ZM9.99142 28.724C9.99142 28.4 10.0834 28.15 10.2674 27.974C10.4554 27.798 10.6974 27.71 10.9934 27.71C11.2894 27.71 11.5294 27.798 11.7134 27.974C11.8974 28.15 11.9894 28.4 11.9894 28.724C11.9894 29.048 11.8974 29.298 11.7134 29.474C11.5294 29.65 11.2894 29.738 10.9934 29.738C10.6974 29.738 10.4554 29.65 10.2674 29.474C10.0834 29.298 9.99142 29.048 9.99142 28.724ZM14.0654 27.776L11.7554 32H10.7654L13.0754 27.776H14.0654ZM10.9874 28.31C10.7954 28.31 10.6994 28.448 10.6994 28.724C10.6994 28.996 10.7954 29.132 10.9874 29.132C11.0794 29.132 11.1514 29.098 11.2034 29.03C11.2554 28.962 11.2814 28.86 11.2814 28.724C11.2814 28.448 11.1834 28.31 10.9874 28.31ZM12.8474 31.052C12.8474 30.728 12.9394 30.478 13.1234 30.302C13.3074 30.126 13.5474 30.038 13.8434 30.038C14.1394 30.038 14.3794 30.126 14.5634 30.302C14.7474 30.478 14.8394 30.728 14.8394 31.052C14.8394 31.376 14.7474 31.626 14.5634 31.802C14.3794 31.978 14.1394 32.066 13.8434 32.066C13.5474 32.066 13.3074 31.978 13.1234 31.802C12.9394 31.626 12.8474 31.376 12.8474 31.052ZM13.8374 30.638C13.7454 30.638 13.6734 30.672 13.6214 30.74C13.5734 30.808 13.5494 30.912 13.5494 31.052C13.5494 31.324 13.6454 31.46 13.8374 31.46C13.9294 31.46 14.0014 31.426 14.0534 31.358C14.1054 31.29 14.1314 31.188 14.1314 31.052C14.1314 30.916 14.1054 30.814 14.0534 30.746C14.0014 30.674 13.9294 30.638 13.8374 30.638Z" fill="#4E90F0"/>
<path d="M1.21823 3.16V2.662H2.34623V7H1.79423V3.16H1.21823ZM3.28411 4.786C3.28411 4.098 3.39611 3.562 3.62011 3.178C3.84411 2.79 4.23611 2.596 4.79611 2.596C5.35211 2.596 5.74211 2.79 5.96611 3.178C6.19011 3.562 6.30211 4.098 6.30211 4.786C6.30211 5.486 6.19011 6.03 5.96611 6.418C5.74211 6.806 5.35211 7 4.79611 7C4.23611 7 3.84411 6.806 3.62011 6.418C3.39611 6.03 3.28411 5.486 3.28411 4.786ZM5.76211 4.786C5.76211 4.438 5.73811 4.144 5.69011 3.904C5.64611 3.66 5.55211 3.464 5.40811 3.316C5.26811 3.168 5.06411 3.094 4.79611 3.094C4.52411 3.094 4.31611 3.168 4.17211 3.316C4.03211 3.464 3.93811 3.66 3.89011 3.904C3.84611 4.144 3.82411 4.438 3.82411 4.786C3.82411 5.146 3.84611 5.448 3.89011 5.692C3.93811 5.936 4.03211 6.132 4.17211 6.28C4.31611 6.428 4.52411 6.502 4.79611 6.502C5.06411 6.502 5.26811 6.428 5.40811 6.28C5.55211 6.132 5.64611 5.936 5.69011 5.692C5.73811 5.448 5.76211 5.146 5.76211 4.786ZM7.05169 4.786C7.05169 4.098 7.16369 3.562 7.38769 3.178C7.61169 2.79 8.00369 2.596 8.56369 2.596C9.11969 2.596 9.50969 2.79 9.73369 3.178C9.95769 3.562 10.0697 4.098 10.0697 4.786C10.0697 5.486 9.95769 6.03 9.73369 6.418C9.50969 6.806 9.11969 7 8.56369 7C8.00369 7 7.61169 6.806 7.38769 6.418C7.16369 6.03 7.05169 5.486 7.05169 4.786ZM9.52969 4.786C9.52969 4.438 9.50569 4.144 9.45769 3.904C9.41369 3.66 9.31969 3.464 9.17569 3.316C9.03569 3.168 8.83169 3.094 8.56369 3.094C8.29169 3.094 8.08369 3.168 7.93969 3.316C7.79969 3.464 7.70569 3.66 7.65769 3.904C7.61369 4.144 7.59169 4.438 7.59169 4.786C7.59169 5.146 7.61369 5.448 7.65769 5.692C7.70569 5.936 7.79969 6.132 7.93969 6.28C8.08369 6.428 8.29169 6.502 8.56369 6.502C8.83169 6.502 9.03569 6.428 9.17569 6.28C9.31969 6.132 9.41369 5.936 9.45769 5.692C9.50569 5.448 9.52969 5.146 9.52969 4.786ZM10.6993 3.64C10.6993 3.368 10.7813 3.152 10.9453 2.992C11.1093 2.828 11.3193 2.746 11.5753 2.746C11.8313 2.746 12.0413 2.828 12.2053 2.992C12.3693 3.152 12.4513 3.368 12.4513 3.64C12.4513 3.916 12.3693 4.136 12.2053 4.3C12.0413 4.46 11.8313 4.54 11.5753 4.54C11.3193 4.54 11.1093 4.46 10.9453 4.3C10.7813 4.136 10.6993 3.916 10.6993 3.64ZM14.2033 2.812L11.7733 7H11.2333L13.6633 2.812H14.2033ZM11.5753 3.082C11.4393 3.082 11.3313 3.13 11.2513 3.226C11.1753 3.318 11.1373 3.456 11.1373 3.64C11.1373 3.824 11.1753 3.964 11.2513 4.06C11.3313 4.156 11.4393 4.204 11.5753 4.204C11.7113 4.204 11.8193 4.156 11.8993 4.06C11.9793 3.96 12.0193 3.82 12.0193 3.64C12.0193 3.456 11.9793 3.318 11.8993 3.226C11.8193 3.13 11.7113 3.082 11.5753 3.082ZM12.9973 6.172C12.9973 5.896 13.0793 5.678 13.2433 5.518C13.4073 5.354 13.6173 5.272 13.8733 5.272C14.1293 5.272 14.3373 5.354 14.4973 5.518C14.6613 5.678 14.7433 5.896 14.7433 6.172C14.7433 6.444 14.6613 6.662 14.4973 6.826C14.3373 6.99 14.1293 7.072 13.8733 7.072C13.6173 7.072 13.4073 6.992 13.2433 6.832C13.0793 6.668 12.9973 6.448 12.9973 6.172ZM13.8673 5.614C13.7313 5.614 13.6233 5.662 13.5433 5.758C13.4633 5.85 13.4233 5.988 13.4233 6.172C13.4233 6.352 13.4633 6.49 13.5433 6.586C13.6233 6.678 13.7313 6.724 13.8673 6.724C14.0033 6.724 14.1113 6.678 14.1913 6.586C14.2713 6.49 14.3113 6.352 14.3113 6.172C14.3113 5.988 14.2713 5.85 14.1913 5.758C14.1113 5.662 14.0033 5.614 13.8673 5.614Z" fill="#4E90F0"/>
</svg>
