<svg width="118" height="153" viewBox="0 0 118 153" fill="none" xmlns="http://www.w3.org/2000/svg">
<path d="M0.263428 108.329V119.192C0.285874 127.83 5.96472 136.458 17.309 143.048C24.9137 147.466 34.1031 150.415 43.8312 151.892V141.028C34.1031 139.551 24.9137 136.606 17.309 132.184C5.9692 125.594 0.290363 116.97 0.263428 108.329Z" fill="#BDC4DF"/>
<path d="M43.8313 141.028V151.892C53.4786 153.355 63.6557 153.369 73.3299 151.937V141.073C63.6557 142.505 53.4831 142.491 43.8313 141.028Z" fill="#C8D0EC"/>
<path d="M73.3345 141.073V151.937C83.1838 150.478 92.5169 147.515 100.247 143.052C101.819 142.146 103.278 141.203 104.633 140.224V129.36C103.278 130.339 101.814 131.282 100.247 132.189C92.5169 136.651 83.1838 139.614 73.3345 141.073Z" fill="#DAE0F4"/>
<path d="M104.633 129.361V140.229C104.952 140 105.266 139.766 105.572 139.533C107.147 138.339 108.566 137.091 109.832 135.811C113.369 132.225 115.695 128.35 116.804 124.382C117.311 122.559 117.567 120.714 117.562 118.869V108.055C117.562 109.882 117.311 111.709 116.804 113.518C115.695 117.487 113.369 121.361 109.832 124.948C108.566 126.227 107.147 127.471 105.572 128.669C105.262 128.898 104.948 129.132 104.633 129.361Z" fill="#BDC4DF"/>
<path d="M17.5739 84.1455C-5.40187 97.4111 -5.5186 118.919 17.309 132.185C40.1367 145.45 77.267 145.455 100.243 132.189C123.223 118.919 123.34 97.4111 100.512 84.1455C77.6889 70.8799 40.5542 70.8799 17.5739 84.1455Z" fill="#F2F4FE"/>
<path d="M3.1499 37.5969L3.58088 106.731C3.59434 112.279 6.07239 117.819 11.015 122.757C13.3629 125.105 16.2629 127.314 19.7241 129.325C19.7914 129.365 19.8632 129.406 19.9306 129.442C27.0909 133.563 35.7192 136.315 44.8457 137.697L44.4147 68.5635C35.4722 67.2078 27.0101 64.5367 19.9351 60.5548C19.7196 60.4336 19.5086 60.3123 19.2931 60.1866C19.2213 60.1462 19.1539 60.1058 19.0821 60.061C16.3168 58.4403 13.9105 56.6851 11.8679 54.84C11.5761 54.5796 11.2933 54.3103 11.0195 54.0454C5.78955 49.004 3.16337 43.3072 3.1499 37.5969Z" fill="#BDC4DF"/>
<path d="M44.4148 68.5676L44.8458 137.702C53.9858 139.089 63.6242 139.102 72.7867 137.742L72.3557 68.608C63.1887 69.9683 53.5548 69.9503 44.4148 68.5676Z" fill="#DAE0F4"/>
<path d="M72.3557 68.6077L72.7867 137.742C82.1153 136.359 90.9545 133.553 98.2719 129.329C99.7579 128.471 101.145 127.578 102.429 126.649L101.998 57.5149C100.714 58.4397 99.3269 59.333 97.841 60.195C90.5236 64.4193 81.6843 67.2251 72.3557 68.6077Z" fill="#DAE0F4"/>
<path d="M113.522 42.5078C114.006 40.7795 114.244 39.0332 114.24 37.2869L114.671 106.421C114.675 108.167 114.437 109.913 113.953 111.642C112.453 117.002 108.61 122.191 102.429 126.649L101.998 57.5153C108.184 53.0575 112.027 47.8679 113.522 42.5078Z" fill="#BDC4DF"/>
<path d="M18.6736 59.8227C18.8801 59.9484 19.0866 60.0696 19.2931 60.1908C21.4524 61.4478 23.7464 62.5745 26.1481 63.5801C47.8041 72.6304 78.2544 71.5036 97.8408 60.1953C119.605 47.6299 119.717 27.2579 98.0967 14.6926C96.714 13.889 95.2775 13.1393 93.7916 12.439C91.2776 11.2539 88.629 10.2168 85.8726 9.32349C64.7733 2.49988 37.5642 4.2866 19.5445 14.6926C-2.00823 27.1367 -2.32248 47.2349 18.6736 59.8227Z" fill="#F2F4FE"/>
<path d="M18.6737 59.8229L18.6782 59.8139C30.9966 65.5915 46.3901 67.8182 61.0743 66.6106V66.6061H61.1282C72.5981 65.6544 83.6371 62.6107 92.4449 57.5244C97.1316 54.8174 100.871 51.7154 103.574 48.3485V48.317H103.601C106.9 44.2004 108.642 39.6888 108.646 35.029C108.66 26.6072 102.995 18.6748 92.7008 12.6951C90.5505 11.4471 88.2654 10.3248 85.8727 9.32373C88.6291 10.2171 91.2822 11.2541 93.7917 12.4392C96.997 14.3696 99.7399 16.493 101.998 18.7601V18.6703H104.498V19.4469H102.662C105.737 22.724 107.807 26.293 108.781 30.028H112.521V30.8046H108.97C109.275 32.1963 109.432 33.6059 109.432 35.0335C109.432 36.2411 109.311 37.4442 109.086 38.6293H113.782V39.406H108.925C108.292 42.1489 107.066 44.8244 105.253 47.4057C105.037 47.711 104.808 48.0163 104.579 48.3215H110.11V49.0982H103.964C101.823 51.7064 99.1114 54.1261 95.8522 56.3213H102.2V57.0979H94.6626C94.07 57.4706 93.464 57.8387 92.84 58.2023C91.134 59.1854 89.3339 60.0967 87.4484 60.9407H94.2316V61.7174H85.8009V61.65C83.3408 62.6691 80.7505 63.5624 78.0615 64.3346H86.3755V65.1112H75.1435C72.6789 65.7172 70.1425 66.22 67.5477 66.6151H78.4071V67.3917H61.0743V67.3648C59.4357 67.4995 57.7837 67.5892 56.1182 67.6386C55.1799 67.6656 54.2417 67.679 53.3079 67.679C43.7369 67.679 34.3994 66.2604 26.1482 63.5893C23.4188 62.705 20.806 61.6814 18.3459 60.5277L18.6737 59.8229Z" fill="#BDC4DF"/>
<path d="M28.5588 54.8447C29.3669 55.3161 30.2064 55.765 31.0593 56.187C31.8764 56.591 32.7159 56.9726 33.5688 57.3407C48.4281 63.6391 68.8047 63.6256 83.7088 57.2868C84.5618 56.9277 85.4013 56.5461 86.2183 56.1421C87.0398 55.7291 87.8524 55.2936 88.638 54.8447C103.69 46.1581 105.194 32.5782 93.1182 22.9578C92.4987 22.455 91.8433 21.9791 91.1474 21.5033C90.4157 21.0005 89.6436 20.5157 88.8355 20.0443C72.2973 10.4374 45.4069 10.4374 28.7564 20.0443C27.9034 20.5381 27.0954 21.0409 26.3277 21.5661C25.6319 22.0375 24.972 22.5223 24.3525 23.0206C12.254 32.641 13.6457 46.1715 28.5588 54.8447Z" fill="#1F5D9C"/>
<g opacity="0.2">
<path d="M19.8811 33.5928C20.0876 32.9553 20.3031 32.3223 20.532 31.6938C20.6398 31.3975 20.752 31.1012 20.8687 30.805C20.9136 30.6972 20.9585 30.5895 20.9989 30.4773C20.9989 30.4728 21.0034 30.4683 21.0034 30.4683C21.4927 29.4223 22 28.4032 22.6599 27.4515C22.7452 27.3258 22.835 27.2046 22.9293 27.0834C22.9338 27.0744 22.9427 27.0699 22.9472 27.061C23.1358 26.8589 23.3064 26.639 23.4949 26.437C23.7149 26.199 23.9438 25.9701 24.1818 25.7501C24.2715 25.6648 24.3658 25.5795 24.4601 25.4987C24.4915 25.4718 24.7788 25.2294 24.7429 25.2518C25.0033 25.0453 25.3131 24.8208 25.6542 24.5964C25.6722 25.1441 25.8563 25.6873 26.1974 26.1272C26.7765 26.8769 27.9752 27.4291 28.9358 27.061C32.406 25.7366 35.3285 23.5594 38.5069 21.6919C41.3171 20.0398 43.8131 19.0387 47.0723 18.3833C47.5212 18.2935 47.9746 18.2082 48.4235 18.1364C48.6031 18.105 48.7871 18.078 48.9667 18.0511C49.0655 18.0376 49.1328 18.0242 49.1822 18.0152C49.9813 17.9075 50.7849 17.8266 51.5884 17.7593C53.218 17.6201 54.8521 17.5528 56.4861 17.4765C56.7375 17.4675 56.9889 17.454 57.2358 17.4451C60.8003 17.6965 64.3737 17.7952 67.9381 18.0017C72.1311 18.2441 75.9738 18.5584 79.9872 19.4473C83.9152 20.3182 87.8433 21.6649 91.2461 23.8467C92.7231 24.7894 94.025 25.9117 95.2236 27.2271C96.4132 28.5334 97.2886 29.9879 98.1191 31.5367C99.0214 33.2157 99.623 34.944 100.166 36.7666C100.418 37.6061 100.7 38.4276 101.051 39.2133C100.548 43.1234 98.4379 46.9751 94.7253 50.4183C93.9397 46.2748 91.3359 42.23 86.923 38.7149C86.299 38.2122 85.6481 37.7363 84.9523 37.2604C84.2205 36.7577 83.4484 36.2728 82.6403 35.8015C66.102 26.1945 39.2117 26.1945 22.5612 35.8015C21.7082 36.2953 20.9002 36.7981 20.1325 37.3188C19.5354 37.7228 18.9653 38.1403 18.4221 38.5623C18.9339 36.9148 19.3469 35.2403 19.8811 33.5928Z" fill="#15508C"/>
</g>
<path d="M17.3359 43.1503C18.6019 40.0168 20.9408 36.9911 24.3481 34.2796C24.9721 33.7858 25.6275 33.2965 26.3234 32.8251C27.0865 32.3043 27.8946 31.8015 28.752 31.3077C45.4025 21.6963 72.2929 21.6963 88.8312 31.3077C89.6393 31.7791 90.4114 32.2639 91.1476 32.7667C91.8434 33.2381 92.4944 33.7184 93.1184 34.2167C94.2586 35.1236 95.2732 36.0663 96.171 37.036C97.9308 38.9349 99.2237 40.9416 100.054 42.9976C100.054 42.9976 100.054 42.9977 100.054 43.0021C100.18 42.6969 100.292 42.3871 100.395 42.0774C100.449 41.9202 100.499 41.7676 100.544 41.6105C100.57 41.5252 100.593 41.4444 100.615 41.3636C100.638 41.2873 100.656 41.2154 100.674 41.1436C100.714 40.9865 100.754 40.8294 100.79 40.6722C100.808 40.6004 100.822 40.5286 100.84 40.4567C100.844 40.4433 100.849 40.4253 100.849 40.4074C100.88 40.2592 100.907 40.1156 100.934 39.9674C100.948 39.8911 100.961 39.8193 100.974 39.743C101.042 39.3434 101.091 38.9439 101.123 38.5488C101.127 38.477 101.136 38.4052 101.141 38.3334C101.145 38.2436 101.154 38.1538 101.154 38.064C101.159 37.9563 101.163 37.844 101.168 37.7318V37.7183C101.172 37.6016 101.172 37.4849 101.172 37.3727V37.3637C101.172 37.2694 101.172 37.1706 101.168 37.0764C101.168 36.9776 101.163 36.8788 101.159 36.7801C101.154 36.7083 101.154 36.6319 101.15 36.5601C101.15 36.5197 101.145 36.4748 101.141 36.4344C101.127 36.2369 101.109 36.0394 101.091 35.8418C101.087 35.779 101.078 35.7117 101.069 35.6488C101.06 35.5815 101.055 35.5096 101.042 35.4423C101.033 35.375 101.024 35.3076 101.01 35.2358C100.988 35.0787 100.961 34.9216 100.934 34.7644C100.934 34.751 100.93 34.742 100.93 34.7285C100.903 34.5894 100.876 34.4502 100.844 34.311C100.844 34.2975 100.84 34.2841 100.835 34.2706C100.822 34.1988 100.804 34.127 100.786 34.0551C100.764 33.9519 100.741 33.8486 100.71 33.7499C100.674 33.6152 100.638 33.485 100.602 33.3503C100.535 33.1169 100.463 32.879 100.382 32.6455C100.279 32.3313 100.162 32.0215 100.036 31.7118C99.942 31.4783 99.8387 31.2494 99.7355 31.0159C99.6995 30.9396 99.6636 30.8633 99.6277 30.7825C99.5918 30.7062 99.5514 30.6299 99.5155 30.5535C98.1822 27.8735 96.0498 25.2967 93.1094 22.9533C92.9567 22.8276 92.7996 22.7019 92.638 22.5807C92.4764 22.4595 92.3193 22.3338 92.1532 22.2171C91.8255 21.9747 91.4888 21.7367 91.1386 21.5033C90.6807 21.189 90.2049 20.8793 89.72 20.5785C89.5225 20.4573 89.325 20.3361 89.1274 20.2194C89.0287 20.161 88.9255 20.1027 88.8267 20.0443C88.3104 19.7435 87.7852 19.4562 87.251 19.1734H87.2465C86.8469 18.9624 86.4429 18.7604 86.0299 18.5584C85.177 18.1454 84.306 17.7548 83.4127 17.3822C82.8964 17.1712 82.3757 16.9647 81.8504 16.7672C80.4857 16.2554 79.0806 15.793 77.6441 15.38C77.4016 15.3082 77.1547 15.2408 76.9078 15.1735C76.6834 15.1152 76.4589 15.0523 76.2344 14.9939C75.9202 14.9131 75.6059 14.8323 75.2872 14.756C75.1256 14.7156 74.964 14.6797 74.8069 14.6393C74.5241 14.572 74.2412 14.5091 73.9539 14.4462C73.8821 14.4328 73.8147 14.4148 73.7429 14.4014C73.1638 14.2757 72.5802 14.1545 71.9966 14.0467C71.9293 14.0332 71.8619 14.0198 71.7946 14.0063C63.3459 12.4396 54.2104 12.4486 45.7527 14.0288C45.0973 14.15 44.4508 14.2802 43.8044 14.4238C42.8392 14.6348 41.8785 14.8637 40.9357 15.1196C40.4644 15.2453 39.993 15.3755 39.5306 15.5147C38.9111 15.6987 38.2961 15.8918 37.6856 16.0938C36.9269 16.3452 36.1772 16.6101 35.4365 16.8929C35.1402 17.0051 34.8484 17.1218 34.5566 17.2385C33.2457 17.7683 31.9753 18.3429 30.7497 18.9669C30.0674 19.3126 29.403 19.6717 28.752 20.0488C28.6443 20.1116 28.541 20.1745 28.4333 20.2328C28.4243 20.2418 28.4108 20.2463 28.4019 20.2508C27.6746 20.6773 26.9833 21.1127 26.3234 21.5661C25.6275 22.0375 24.9676 22.5268 24.3481 23.0206C23.76 23.4875 23.2123 23.9634 22.6871 24.4482C22.6602 24.4751 22.6288 24.4976 22.6018 24.5245C22.5255 24.5964 22.4447 24.6727 22.3684 24.7445C22.2202 24.8837 22.0721 25.0273 21.9284 25.171C16.4336 30.6658 14.9028 37.1213 17.3359 43.1503Z" fill="#C8D0EC"/>
<path d="M49.3259 13.4583C56.7466 12.4752 64.5219 12.6592 71.7944 14.006C71.8618 14.0195 71.9291 14.0329 71.9965 14.0464C72.5846 14.1542 73.1636 14.2709 73.7427 14.4011C73.8146 14.4145 73.8819 14.4325 73.9538 14.4459C74.2411 14.5043 74.5239 14.5717 74.8067 14.639C74.9683 14.6794 75.1254 14.7153 75.2871 14.7557C75.6058 14.832 75.92 14.9128 76.2343 14.9936C76.4587 15.052 76.6832 15.1149 76.9077 15.1732C77.1546 15.2405 77.397 15.3079 77.6439 15.3797C79.0804 15.7927 80.4856 16.2551 81.8503 16.7669C82.38 16.9644 82.9007 17.1709 83.4125 17.3819C84.3059 17.75 85.1813 18.1406 86.0298 18.5581C86.4383 18.7601 86.8423 18.9621 87.2463 19.1731C87.2463 19.1731 87.2463 19.1731 87.2508 19.1731C87.785 19.4559 88.3103 19.7477 88.8265 20.044C88.9253 20.1024 89.0285 20.1607 89.1273 20.2191C89.3293 20.3403 89.5224 20.457 89.7199 20.5782C90.2092 20.879 90.6805 21.1887 91.1384 21.503C91.4841 21.7409 91.8253 21.9744 92.153 22.2168C92.3191 22.338 92.4763 22.4592 92.6379 22.5804C92.7995 22.7016 92.9566 22.8273 93.1092 22.953C96.0496 25.2964 98.182 27.8687 99.5153 30.5532C99.5512 30.6296 99.5916 30.7059 99.6276 30.7822C99.6635 30.8585 99.6994 30.9393 99.7353 31.0156C99.8385 31.2491 99.9418 31.478 100.036 31.7115C100.162 32.0212 100.279 32.331 100.382 32.6452C100.463 32.8787 100.534 33.1121 100.602 33.35C100.638 33.4802 100.674 33.6149 100.709 33.7496C100.736 33.8483 100.763 33.9561 100.786 34.0548C100.804 34.1267 100.822 34.1985 100.835 34.2703C100.84 34.2838 100.844 34.2972 100.844 34.3107C100.876 34.4499 100.903 34.5891 100.929 34.7282C100.929 34.7417 100.934 34.7507 100.934 34.7641C100.961 34.9213 100.988 35.0784 101.01 35.2355C101.019 35.3028 101.033 35.3702 101.042 35.442C101.051 35.5093 101.06 35.5812 101.069 35.6485C101.078 35.7158 101.082 35.7787 101.091 35.8415C101.113 36.0391 101.131 36.2366 101.14 36.4341C101.145 36.4745 101.145 36.5194 101.149 36.5598C101.154 36.6316 101.158 36.708 101.158 36.7798C101.163 36.8785 101.167 36.9773 101.167 37.0761C101.167 37.1703 101.172 37.2691 101.172 37.3634V37.3724C101.172 37.4891 101.172 37.6013 101.167 37.718V37.7315C101.163 37.8437 101.163 37.9515 101.154 38.0637C101.149 38.1535 101.145 38.2433 101.14 38.3331C101.136 38.4049 101.131 38.4767 101.123 38.5485C101.091 38.9436 101.042 39.3431 100.974 39.7427C100.961 39.819 100.947 39.8908 100.934 39.9671C100.907 40.1153 100.88 40.2589 100.849 40.4071C100.844 40.4205 100.844 40.4385 100.84 40.4564C100.826 40.5283 100.808 40.6001 100.79 40.6719C100.754 40.8291 100.714 40.9862 100.674 41.1433C100.656 41.2151 100.633 41.2915 100.615 41.3633C100.593 41.4441 100.57 41.5294 100.543 41.6102C100.498 41.7673 100.449 41.9199 100.395 42.0771C100.292 42.3868 100.18 42.6966 100.054 43.0018C99.2236 40.9413 97.9262 38.9346 96.1709 37.0357C95.273 36.066 94.2585 35.1233 93.1182 34.2164C92.4987 33.7137 91.8477 33.2378 91.1474 32.7664C90.4157 32.2636 89.6436 31.7788 88.831 31.3074C78.1377 25.0944 63.1123 22.8991 49.3304 24.7218V13.4583H49.3259Z" fill="#B2BDE8"/>
<path d="M58.511 65.8427C59.4447 65.8427 60.383 65.8292 61.3212 65.8023C75.157 65.4028 88.1937 62.0538 98.034 56.3705C103.421 53.2594 107.596 49.6277 110.447 45.5784C113.216 41.6413 114.622 37.4798 114.626 33.2061C114.64 24.497 108.835 16.3267 98.2899 10.1989C87.7761 4.08907 73.7743 0.722168 58.8746 0.722168C43.9704 0.722168 29.9326 4.08907 19.3471 10.1989C9.0084 16.1695 3.12303 24.1244 2.77736 32.6046C2.45413 40.546 7.07353 48.2405 15.7916 54.274L16.2315 53.6365C7.74244 47.7601 3.23527 40.3036 3.54952 32.636C3.88621 24.4342 9.63239 16.7038 19.7331 10.8723C41.3532 -1.61223 76.4184 -1.61223 97.8993 10.8723C108.198 16.8564 113.858 24.7888 113.85 33.2106C113.836 41.6907 108.081 49.677 97.6434 55.706C77.5452 67.3107 45.8334 68.2938 23.8722 57.9955L23.5445 58.6959C33.4477 63.3332 45.7706 65.8427 58.511 65.8427Z" fill="#715F7F"/>
<path d="M31.019 65.277C31.2345 65.277 31.4051 65.102 31.4051 64.891V61.2323C31.4051 61.0168 31.23 60.8462 31.019 60.8462C30.8035 60.8462 30.6329 61.0213 30.6329 61.2323V64.891C30.6284 65.1065 30.8035 65.277 31.019 65.277Z" fill="#715F7F"/>
<path d="M38.929 67.4641C39.1445 67.4641 39.3151 67.289 39.3151 67.078V63.4193C39.3151 63.2038 39.14 63.0332 38.929 63.0332C38.7136 63.0332 38.543 63.2083 38.543 63.4193V67.0735C38.543 67.289 38.7136 67.4641 38.929 67.4641Z" fill="#715F7F"/>
<path d="M110.105 49.094C110.321 49.094 110.492 48.9189 110.492 48.7079V45.5699C110.492 45.3544 110.316 45.1838 110.105 45.1838C109.894 45.1838 109.719 45.3589 109.719 45.5699V48.7079C109.715 48.9189 109.89 49.094 110.105 49.094Z" fill="#715F7F"/>
<path d="M46.8389 68.8283C47.0544 68.8283 47.225 68.6533 47.225 68.4423V65.0484C47.225 64.8329 47.0499 64.6624 46.8389 64.6624C46.6235 64.6624 46.4529 64.8374 46.4529 65.0484V68.4423C46.4529 68.6533 46.6235 68.8283 46.8389 68.8283Z" fill="#715F7F"/>
<path d="M4.23185 42.8444C4.44734 42.8444 4.61795 42.6694 4.61795 42.4584V39.8411C4.61795 39.6257 4.44285 39.4551 4.23185 39.4551C4.02086 39.4551 3.84579 39.6302 3.84579 39.8411V42.4584C3.8413 42.6738 4.01637 42.8444 4.23185 42.8444Z" fill="#715F7F"/>
<path d="M8.52791 51.05C8.74339 51.05 8.914 50.8749 8.914 50.664V47.2701C8.914 47.0546 8.7389 46.884 8.52791 46.884C8.31243 46.884 8.14185 47.0591 8.14185 47.2701V50.664C8.14185 50.8749 8.31692 51.05 8.52791 51.05Z" fill="#715F7F"/>
<path d="M54.7491 69.4658C54.9646 69.4658 55.1352 69.2907 55.1352 69.0797V65.6859C55.1352 65.4704 54.9601 65.2998 54.7491 65.2998C54.5336 65.2998 54.363 65.4749 54.363 65.6859V69.0797C54.363 69.2952 54.5381 69.4658 54.7491 69.4658Z" fill="#715F7F"/>
<path d="M62.6366 69.4433C62.852 69.4433 63.0226 69.2683 63.0226 69.0573V65.6634C63.0226 65.4479 62.8475 65.2773 62.6366 65.2773C62.4211 65.2773 62.2505 65.4524 62.2505 65.6634V69.0573C62.2505 69.2683 62.4256 69.4433 62.6366 69.4433Z" fill="#715F7F"/>
<path d="M70.5509 68.8283C70.7664 68.8283 70.937 68.6533 70.937 68.4423V65.0484C70.937 64.8329 70.7619 64.6624 70.5509 64.6624C70.3355 64.6624 70.1649 64.8374 70.1649 65.0484V68.4423C70.1604 68.6533 70.3355 68.8283 70.5509 68.8283Z" fill="#715F7F"/>
<path d="M78.4609 67.3823C78.6763 67.3823 78.847 67.2072 78.847 66.9962V63.6024C78.847 63.3869 78.6719 63.2163 78.4609 63.2163C78.2454 63.2163 78.0748 63.3914 78.0748 63.6024V66.9962C78.0703 67.2072 78.2454 67.3823 78.4609 67.3823Z" fill="#715F7F"/>
<path d="M86.3709 65.1015C86.5864 65.1015 86.757 64.9265 86.757 64.7155V61.3216C86.757 61.1061 86.5819 60.9355 86.3709 60.9355C86.1554 60.9355 85.9849 61.1106 85.9849 61.3216V64.7155C85.9849 64.931 86.1554 65.1015 86.3709 65.1015Z" fill="#715F7F"/>
<path d="M94.2808 61.7129C94.4963 61.7129 94.667 61.5378 94.667 61.3268V57.933C94.667 57.7175 94.4918 57.5469 94.2808 57.5469C94.0654 57.5469 93.8948 57.722 93.8948 57.933V61.3268C93.8948 61.5378 94.0654 61.7129 94.2808 61.7129Z" fill="#715F7F"/>
<path d="M102.191 57.093C102.407 57.093 102.577 56.9179 102.577 56.7069V53.3131C102.577 53.0976 102.402 52.927 102.191 52.927C101.976 52.927 101.805 53.1021 101.805 53.3131V56.7069C101.805 56.9224 101.98 57.093 102.191 57.093Z" fill="#715F7F"/>
<path d="M113.773 39.4054C113.989 39.4054 114.159 39.2303 114.159 39.0193V37.4122C114.159 37.1967 113.984 37.0261 113.773 37.0261C113.558 37.0261 113.387 37.2012 113.387 37.4122V39.0193C113.387 39.2303 113.562 39.4054 113.773 39.4054Z" fill="#715F7F"/>
<path d="M112.408 30.8043C112.624 30.8043 112.794 30.6293 112.794 30.4183V24.91C112.794 24.6945 112.619 24.5239 112.408 24.5239C112.197 24.5239 112.022 24.699 112.022 24.91V30.4183C112.018 30.6293 112.193 30.8043 112.408 30.8043Z" fill="#715F7F"/>
<path d="M104.494 19.2268C104.709 19.2268 104.88 19.0517 104.88 18.8407V15.182C104.88 14.9665 104.705 14.7959 104.494 14.7959C104.278 14.7959 104.108 14.971 104.108 15.182V18.8407C104.108 19.0517 104.283 19.2268 104.494 19.2268Z" fill="#715F7F"/>
<path d="M33.322 9.56575C33.5375 9.56575 33.708 9.39068 33.708 9.17969V4.92391C33.708 4.70843 33.533 4.53784 33.322 4.53784C33.1065 4.53784 32.9359 4.71291 32.9359 4.92391V9.17969C32.9314 9.39068 33.1065 9.56575 33.322 9.56575Z" fill="#715F7F"/>
<path d="M96.5841 14.5394C96.7995 14.5394 96.9702 14.3643 96.9702 14.1533V10.1983C96.9702 9.98284 96.7951 9.81226 96.5841 9.81226C96.3686 9.81226 96.198 9.98733 96.198 10.1983V14.1533C96.198 14.3643 96.3731 14.5394 96.5841 14.5394Z" fill="#715F7F"/>
<path d="M88.6739 11.0291C88.8894 11.0291 89.06 10.854 89.06 10.643V6.275C89.06 6.05951 88.8849 5.88892 88.6739 5.88892C88.4584 5.88892 88.2878 6.064 88.2878 6.275V10.643C88.2878 10.854 88.4584 11.0291 88.6739 11.0291Z" fill="#715F7F"/>
<path d="M80.7865 8.51123C81.002 8.51123 81.1726 8.33616 81.1726 8.12517V3.75716C81.1726 3.54168 80.9975 3.37109 80.7865 3.37109C80.5711 3.37109 80.4005 3.54617 80.4005 3.75716V8.12517C80.396 8.33616 80.5711 8.51123 80.7865 8.51123Z" fill="#715F7F"/>
<path d="M72.8764 7.10134C73.0919 7.10134 73.2625 6.92625 73.2625 6.71526V2.34726C73.2625 2.13178 73.0874 1.96118 72.8764 1.96118C72.6609 1.96118 72.4903 2.13627 72.4903 2.34726V6.71526C72.4858 6.93074 72.6609 7.10134 72.8764 7.10134Z" fill="#715F7F"/>
<path d="M64.9665 6.21657C65.182 6.21657 65.3525 6.04148 65.3525 5.83049V1.4625C65.3525 1.24701 65.1775 1.07642 64.9665 1.07642C64.7555 1.07642 64.5804 1.2515 64.5804 1.4625V5.83049C64.5759 6.04148 64.751 6.21657 64.9665 6.21657Z" fill="#715F7F"/>
<path d="M57.0521 5.99245C57.2676 5.99245 57.4381 5.81736 57.4381 5.60637V1.23837C57.4381 1.02289 57.2631 0.852295 57.0521 0.852295C56.8366 0.852295 56.666 1.02738 56.666 1.23837V5.60637C56.666 5.81736 56.8411 5.99245 57.0521 5.99245Z" fill="#715F7F"/>
<path d="M49.1422 6.77818C49.3577 6.77818 49.5282 6.6031 49.5282 6.3921V1.88045C49.5282 1.66497 49.3532 1.49438 49.1422 1.49438C48.9312 1.49438 48.7561 1.66946 48.7561 1.88045V6.3921C48.7561 6.6031 48.9267 6.77818 49.1422 6.77818Z" fill="#715F7F"/>
<path d="M41.232 7.83751C41.4475 7.83751 41.6181 7.66244 41.6181 7.45144V2.93979C41.6181 2.72431 41.443 2.55371 41.232 2.55371C41.0166 2.55371 40.8459 2.7288 40.8459 2.93979V7.45144C40.8459 7.66244 41.0166 7.83751 41.232 7.83751Z" fill="#715F7F"/>
<path d="M3.97154 32.8963C4.18702 32.8963 4.35761 32.7212 4.35761 32.5102V27.7831C4.35761 27.5676 4.18254 27.397 3.97154 27.397C3.75606 27.397 3.58545 27.5721 3.58545 27.7831V32.5057C3.58545 32.7212 3.75606 32.8963 3.97154 32.8963Z" fill="#715F7F"/>
<path d="M25.4121 12.7039C25.6275 12.7039 25.7981 12.5288 25.7981 12.3178V7.94979C25.7981 7.7343 25.623 7.56372 25.4121 7.56372C25.1966 7.56372 25.026 7.73879 25.026 7.94979V12.3178C25.0215 12.5288 25.1966 12.7039 25.4121 12.7039Z" fill="#715F7F"/>
<path d="M17.4974 16.9193C17.7129 16.9193 17.8835 16.7442 17.8835 16.5332V12.0216C17.8835 11.8061 17.7084 11.6355 17.4974 11.6355C17.2819 11.6355 17.1113 11.8106 17.1113 12.0216V16.5332C17.1113 16.7442 17.2864 16.9193 17.4974 16.9193Z" fill="#715F7F"/>
<path d="M9.58751 23.3385C9.80299 23.3385 9.97357 23.1634 9.97357 22.9524V18.4408C9.97357 18.2253 9.7985 18.0547 9.58751 18.0547C9.37652 18.0547 9.20142 18.2298 9.20142 18.4408V22.9524C9.20142 23.1634 9.37203 23.3385 9.58751 23.3385Z" fill="#715F7F"/>
<path d="M96.5752 65.4295L95.5516 64.8324C95.0039 64.5137 94.2452 64.5586 93.4058 65.0434L94.4293 65.6405C95.2643 65.1556 96.023 65.1108 96.5752 65.4295Z" fill="#DAE0F4"/>
<mask id="mask0_66_1189" style="mask-type:luminance" maskUnits="userSpaceOnUse" x="93" y="64" width="4" height="2">
<path d="M96.5752 65.4295L95.5516 64.8324C95.0039 64.5137 94.2452 64.5586 93.4058 65.0434L94.4293 65.6405C95.2643 65.1556 96.023 65.1108 96.5752 65.4295Z" fill="white"/>
</mask>
<g mask="url(#mask0_66_1189)">
<path d="M96.5751 65.4304L95.5516 64.8334C95.3316 64.7032 95.0757 64.6358 94.7974 64.6313L95.8209 65.2284C96.0992 65.2329 96.3507 65.3002 96.5751 65.4304Z" fill="#F2F4FE"/>
<path d="M95.8163 65.2279L94.7928 64.6308C94.3753 64.6218 93.9039 64.7565 93.4011 65.0438L94.4247 65.6409C94.9275 65.3491 95.4033 65.2189 95.8163 65.2279Z" fill="#F2F4FE"/>
</g>
<mask id="mask1_66_1189" style="mask-type:luminance" maskUnits="userSpaceOnUse" x="90" y="65" width="5" height="8">
<path d="M91.2778 72.1856L92.3014 72.7826C91.7582 72.4684 91.4259 71.7995 91.4215 70.8478C91.417 68.9354 92.7638 66.601 94.4293 65.6403L93.4057 65.0432C91.7402 66.0039 90.3935 68.3338 90.398 70.2507C90.398 71.2024 90.7346 71.8713 91.2778 72.1856Z" fill="white"/>
</mask>
<g mask="url(#mask1_66_1189)">
<path d="M94.4293 65.6403L93.4058 65.0432C92.9254 65.3215 92.4765 65.7076 92.0725 66.17L93.0961 66.7671C93.4956 66.3047 93.949 65.9141 94.4293 65.6403Z" fill="#F2F4FE"/>
<path d="M93.0962 66.7631L92.0726 66.166C91.691 66.606 91.3543 67.1043 91.085 67.634L92.1085 68.231C92.3779 67.7058 92.7146 67.203 93.0962 66.7631Z" fill="#DAE0F4"/>
<path d="M92.1084 68.2357L91.0848 67.6387C90.6538 68.4871 90.3935 69.4074 90.398 70.2514C90.4025 71.2031 90.7347 71.872 91.2779 72.1862L92.3014 72.7833C91.7582 72.4691 91.426 71.8002 91.4215 70.8485C91.417 70.0045 91.6774 69.0842 92.1084 68.2357Z" fill="#DAE0F4"/>
</g>
<path d="M94.4292 65.6407C92.7637 66.6014 91.4169 68.9313 91.4214 70.8482C91.4259 72.7606 92.7817 73.5328 94.4472 72.5721C96.1127 71.6114 97.4594 69.277 97.4549 67.3646C97.446 65.4477 96.0947 64.6755 94.4292 65.6407Z" fill="#B7BEDB"/>
<path d="M94.4292 66.4669C93.1632 67.1987 92.1352 68.9719 92.1397 70.4309C92.1442 71.8899 93.1767 72.478 94.4426 71.7462C95.7131 71.0145 96.7366 69.2368 96.7321 67.7823C96.7276 66.3233 95.6996 65.7352 94.4292 66.4669Z" fill="#AAB1CB"/>
<path d="M16.3257 140.292L15.4773 139.802V53.2009L16.3257 53.6903V140.292Z" fill="#715F7F"/>
<path d="M24.393 144.952L23.54 144.458V57.7935L24.393 58.2873V144.952Z" fill="#715F7F"/>
<path d="M15.9038 60.7969V59.8137L23.9664 64.469V65.4522L15.9038 60.7969Z" fill="#715F7F"/>
<path d="M15.9038 64.397V63.4138L23.9664 68.0736V69.0523L15.9038 64.397Z" fill="#715F7F"/>
<path d="M15.8994 67.9967V67.0181L23.9665 71.6734V72.652L15.8994 67.9967Z" fill="#715F7F"/>
<path d="M15.8994 71.5975V70.6189L23.9665 75.2742V76.2574L15.8994 71.5975Z" fill="#715F7F"/>
<path d="M15.8994 75.2029V74.2197L23.9665 78.875V79.8582L15.8994 75.2029Z" fill="#715F7F"/>
<path d="M15.8994 78.803V77.8198L23.9665 82.4751V83.4583L15.8994 78.803Z" fill="#715F7F"/>
<path d="M15.8994 86.0041V85.021L23.9665 89.6808V90.6594L15.8994 86.0041Z" fill="#715F7F"/>
<path d="M15.8994 93.2042V92.2256L23.9665 96.8809V97.864L15.8994 93.2042Z" fill="#715F7F"/>
<path d="M15.8994 82.4035V81.4204L23.9665 86.0757V87.0589L15.8994 82.4035Z" fill="#715F7F"/>
<path d="M15.8994 89.6037V88.6206L23.9665 93.2804V94.2591L15.8994 89.6037Z" fill="#715F7F"/>
<path d="M15.8994 96.8093V95.8262L23.9665 100.481V101.465L15.8994 96.8093Z" fill="#715F7F"/>
<path d="M15.8994 104.01V103.027L23.9665 107.682V108.665L15.8994 104.01Z" fill="#715F7F"/>
<path d="M15.8994 111.211V110.228L23.9665 114.888V115.866L15.8994 111.211Z" fill="#715F7F"/>
<path d="M15.8994 118.411V117.433L23.9665 122.088V123.071L15.8994 118.411Z" fill="#715F7F"/>
<path d="M15.8994 125.616V124.633L23.9665 129.289V130.272L15.8994 125.616Z" fill="#715F7F"/>
<path d="M15.8994 100.409V99.4263L23.9665 104.082V105.065L15.8994 100.409Z" fill="#715F7F"/>
<path d="M15.8994 107.61V106.627L23.9665 111.282V112.265L15.8994 107.61Z" fill="#715F7F"/>
<path d="M15.8994 114.811V113.832L23.9665 118.487V119.47L15.8994 114.811Z" fill="#715F7F"/>
<path d="M15.8994 122.016V121.033L23.9665 125.688V126.671L15.8994 122.016Z" fill="#715F7F"/>
<path d="M15.8994 129.218V128.234L23.9665 132.89V133.873L15.8994 129.218Z" fill="#715F7F"/>
<path d="M15.8994 132.817V131.834L23.9665 136.494V137.472L15.8994 132.817Z" fill="#715F7F"/>
<path d="M15.8994 136.417V135.434L23.9665 140.094V141.073L15.8994 136.417Z" fill="#715F7F"/>
</svg>
