<svg width="121" height="147" viewBox="0 0 121 147" fill="none" xmlns="http://www.w3.org/2000/svg">
<path d="M10.5011 118.02L10.3113 42.3132C10.3271 49.5581 14.9777 56.7871 24.3106 62.4026C43.5457 73.9817 75.3882 74.2981 95.4301 63.1144C105.744 57.3565 110.932 49.6846 110.901 42.0127L111.09 117.72C111.106 125.391 105.934 133.079 95.6199 138.821C75.578 150.005 43.7356 149.673 24.5004 138.109C15.1675 132.494 10.5169 125.249 10.5011 118.02Z" fill="url(#paint0_linear_72_2106)"/>
<path d="M95.4304 63.1303C75.3885 74.3139 43.546 73.9817 24.3108 62.4184C15.9271 57.3724 11.3397 51.0134 10.4697 44.5278L10.5014 54.1296C10.5172 61.3744 15.1678 68.6034 24.5006 74.219C43.7358 85.798 75.5783 86.1144 95.6202 74.9308C104.953 69.7265 110.078 62.9404 110.948 56.012L110.901 42.0127C110.917 49.6846 105.744 57.3724 95.4304 63.1144V63.1303Z" fill="#9A9C9C"/>
<path d="M103.941 16.7667C126.909 30.592 126.118 52.6112 102.185 65.9461C78.2517 79.2968 40.24 78.9014 17.2717 65.0919C-5.69661 51.2666 -4.90569 29.2474 19.0276 15.8967C42.9608 2.54594 80.9724 2.9414 103.941 16.7509V16.7667ZM96.9016 20.6896C77.6664 9.11057 45.8239 8.7942 25.782 19.9778C5.7401 31.1614 5.07573 49.6057 24.3109 61.1689C43.5461 72.748 75.3885 73.0644 95.4304 61.8808C115.472 50.6972 116.137 32.2529 96.9016 20.6896Z" fill="#E7EBEB"/>
<path d="M91.7131 17.2582C108.196 27.1764 107.642 42.9948 90.4476 52.5807C73.253 62.1667 45.9662 61.882 29.4677 51.9638C12.9849 42.0457 13.5385 26.2273 30.7331 16.6413C47.9277 7.05537 75.2145 7.3401 91.7131 17.2582Z" fill="url(#paint1_linear_72_2106)"/>
<path d="M102.865 17.3687C125.248 30.846 124.489 52.3115 101.157 65.3301C77.8246 78.3486 40.7463 77.969 18.3633 64.4917C-4.0356 51.0144 -3.27632 29.533 20.0558 16.5303C43.388 3.51175 80.4663 3.89139 102.849 17.3687H102.865ZM101.315 18.3494C79.7387 5.4416 44.0207 5.09359 21.5428 17.5585C-0.951011 30.0234 -1.69448 50.5873 19.8818 63.4951C41.4581 76.4029 77.1761 76.7668 99.6698 64.3019C122.164 51.837 122.891 31.2572 101.315 18.3494Z" fill="#CED1D1"/>
<path d="M113.273 52.6119V46.0947H115.314V52.6119C115.314 52.7701 115.219 52.9283 114.998 53.039C114.586 53.2605 113.938 53.2605 113.542 53.039C113.352 52.9283 113.258 52.7701 113.258 52.6277L113.273 52.6119Z" fill="url(#paint2_linear_72_2106)"/>
<path d="M113.273 28.8531V22.3359H115.314V28.8531C115.314 29.0113 115.219 29.1695 114.998 29.2802C114.586 29.5017 113.938 29.5017 113.542 29.2802C113.352 29.1695 113.258 29.0113 113.258 28.8689L113.273 28.8531Z" fill="url(#paint3_linear_72_2106)"/>
<path d="M90.9536 13.0333V6.51611H92.9941V13.0333C92.9941 13.1915 92.8992 13.3497 92.6778 13.4604C92.2665 13.6818 91.6179 13.6818 91.2225 13.4604C91.0326 13.3497 90.9377 13.1915 90.9377 13.0491L90.9536 13.0333Z" fill="url(#paint4_linear_72_2106)"/>
<path d="M64.3632 7.86093V1.34375H66.4038V7.86093C66.4038 8.01912 66.3089 8.1773 66.0874 8.28803C65.6762 8.50949 65.0276 8.50949 64.6321 8.28803C64.4423 8.1773 64.3474 8.01912 64.3474 7.87675L64.3632 7.86093Z" fill="url(#paint5_linear_72_2106)"/>
<path d="M38.041 10.171V3.65381H40.0815V10.171C40.0815 10.3292 39.9866 10.4874 39.7652 10.5981C39.3539 10.8195 38.7053 10.8195 38.3099 10.5981C38.1201 10.4874 38.0251 10.3292 38.0251 10.1868L38.041 10.171Z" fill="url(#paint6_linear_72_2106)"/>
<path d="M4.22163 49.8272V43.3101H6.2622V49.8272C6.2622 49.9854 6.16729 50.1436 5.94584 50.2543C5.53456 50.4758 4.886 50.4758 4.49054 50.2543C4.30072 50.1436 4.20581 49.9854 4.20581 49.8431L4.22163 49.8272Z" fill="url(#paint7_linear_72_2106)"/>
<path d="M4.28511 31.794V25.2769H6.32568V31.794C6.32568 31.9522 6.23077 32.1104 6.00931 32.2211C5.59803 32.4426 4.94948 32.4426 4.55402 32.2211C4.3642 32.1104 4.26929 31.9522 4.26929 31.8099L4.28511 31.794Z" fill="url(#paint8_linear_72_2106)"/>
<path d="M15.4047 19.7086V13.1914H17.4453V19.7086C17.4453 19.8668 17.3504 20.025 17.1289 20.1357C16.7177 20.3571 16.0691 20.3571 15.6736 20.1357C15.4838 20.025 15.3889 19.8668 15.3889 19.7244L15.4047 19.7086Z" fill="url(#paint9_linear_72_2106)"/>
<path d="M91.7131 20.975C108.196 30.8932 107.642 46.7116 90.4476 56.2975C73.253 65.8835 45.9662 65.5987 29.4677 55.6806C12.9849 45.7625 13.5385 29.9441 30.7331 20.3581C47.9277 10.7722 75.2145 11.0569 91.7131 20.975Z" fill="#E7EBEB"/>
<path d="M10.2954 41.0804V34.7688C10.2954 42.0136 14.946 49.2427 24.2789 54.8582C43.5141 66.4373 75.3565 66.7536 95.3984 55.57C105.712 49.8121 110.9 42.1402 110.869 34.4683V40.7798C110.916 48.4517 105.728 56.1395 95.4142 61.8816C75.3723 73.0652 43.5299 72.733 24.2947 61.1697C14.9618 55.5542 10.3112 48.3094 10.2954 41.0804Z" fill="url(#paint10_linear_72_2106)"/>
<path d="M96.8859 14.3626C116.121 25.9417 115.457 44.386 95.4148 55.5538C75.3729 66.7374 43.5304 66.4052 24.2953 54.8419C5.06008 43.2629 5.72445 24.8186 25.7664 13.6508C45.8083 2.46721 77.6507 2.79939 96.8859 14.3626ZM91.7133 17.2574C75.2305 7.33928 47.9279 7.05455 30.7333 16.6405C13.5387 26.2264 12.9851 42.0448 29.4679 51.963C45.9506 61.8811 73.2532 62.1659 90.4478 52.5799C107.642 42.994 108.196 27.1756 91.7133 17.2574Z" fill="#E6E9E8"/>
<path d="M0.551514 42.3454V41.0958C0.567332 49.7326 6.11959 58.3695 17.2716 65.0765C40.2399 78.9017 78.2515 79.2814 102.185 65.9306C114.507 59.0655 120.692 49.8908 120.661 40.7319V41.9816C120.692 51.1404 114.507 60.3151 102.185 67.1803C78.2515 80.531 40.2399 80.1356 17.2716 66.3261C6.11959 59.6191 0.58315 50.9823 0.551514 42.3296V42.3454Z" fill="url(#paint11_linear_72_2106)"/>
<path d="M22.7766 66.4845V59.9673H24.8171V66.4845C24.8171 66.6426 24.7222 66.8008 24.5008 66.9116C24.0895 67.133 23.4409 67.133 23.0455 66.9116C22.8557 66.8008 22.7607 66.6427 22.7607 66.5003L22.7766 66.4845Z" fill="url(#paint12_linear_72_2106)"/>
<path d="M55.2199 74.0138V67.4966H57.2605V74.0138C57.2605 74.172 57.1656 74.3301 56.9441 74.4409C56.5328 74.6623 55.8843 74.6623 55.4888 74.4409C55.299 74.3301 55.2041 74.1719 55.2041 74.0296L55.2199 74.0138Z" fill="url(#paint13_linear_72_2106)"/>
<path d="M89.862 69.0309V62.5137H91.9026V69.0309C91.9026 69.189 91.8077 69.3472 91.5862 69.4579C91.1749 69.6794 90.5264 69.6794 90.1309 69.4579C89.9411 69.3472 89.8462 69.189 89.8462 69.0467L89.862 69.0309Z" fill="url(#paint14_linear_72_2106)"/>
<path d="M119.158 33.7563L119.126 33.8037C118.684 25.7205 113.289 17.7164 102.865 11.4523C80.4663 -2.02495 43.4037 -2.40459 20.0558 10.5981C8.53999 17.0362 2.529 25.5149 2.08608 34.0885H2.05444V35.259H2.07026C2.13354 43.6586 7.52761 52.0424 18.3632 58.5595C40.7463 72.0368 77.8246 72.4165 101.157 59.3979C113.147 52.7225 119.158 43.801 119.158 34.8794H119.174V33.7405L119.158 33.7563ZM99.6698 58.3855C77.176 70.8504 41.4581 70.4866 19.8818 57.5788C-1.69452 44.671 -0.951054 24.0912 21.5427 11.6263C44.0207 -0.838566 79.7386 -0.474742 101.315 12.4331C122.891 25.3409 122.148 45.9206 99.6698 58.3855Z" fill="url(#paint15_linear_72_2106)"/>
<path d="M102.865 10.3604C125.248 23.8377 124.489 45.3032 101.157 58.3218C77.8246 71.3403 40.7463 70.9607 18.3633 57.4834C-4.0356 44.0061 -3.27632 22.5247 20.0558 9.52199C43.388 -3.49655 80.4663 -3.11691 102.849 10.3604H102.865ZM101.315 11.3411C79.7387 -1.5667 44.0207 -1.93053 21.5428 10.5502C-0.951011 23.0151 -1.69448 43.579 19.8818 56.4868C41.4581 69.3946 77.1761 69.7585 99.6698 57.2936C122.164 44.8287 122.891 24.2489 101.315 11.3411Z" fill="#1882EE"/>
<defs>
<linearGradient id="paint0_linear_72_2106" x1="10.3113" y1="94.514" x2="111.09" y2="94.514" gradientUnits="userSpaceOnUse">
<stop offset="0.22" stop-color="#9D9EAB"/>
<stop offset="0.4" stop-color="#B2B3BC"/>
<stop offset="0.58" stop-color="#C2C3CA"/>
<stop offset="0.74" stop-color="#CBCCD3"/>
<stop offset="0.93" stop-color="#CED0D6"/>
</linearGradient>
<linearGradient id="paint1_linear_72_2106" x1="17.4615" y1="34.611" x2="103.719" y2="34.611" gradientUnits="userSpaceOnUse">
<stop offset="0.2" stop-color="#CFCEDB"/>
<stop offset="0.35" stop-color="#D1D0DD"/>
<stop offset="0.57" stop-color="#C1C0CF"/>
<stop offset="1" stop-color="#AEACBA"/>
</linearGradient>
<linearGradient id="paint2_linear_72_2106" x1="113.273" y1="49.6539" x2="115.314" y2="49.6539" gradientUnits="userSpaceOnUse">
<stop stop-color="#064AD3"/>
<stop offset="1" stop-color="#116DE4"/>
</linearGradient>
<linearGradient id="paint3_linear_72_2106" x1="-3.16615" y1="25.8951" x2="-1.58431" y2="25.8951" gradientUnits="userSpaceOnUse">
<stop stop-color="#064AD3"/>
<stop offset="1" stop-color="#116DE4"/>
</linearGradient>
<linearGradient id="paint4_linear_72_2106" x1="90.9536" y1="10.0753" x2="93.01" y2="10.0753" gradientUnits="userSpaceOnUse">
<stop stop-color="#064AD3"/>
<stop offset="1" stop-color="#116DE4"/>
</linearGradient>
<linearGradient id="paint5_linear_72_2106" x1="64.3632" y1="4.88707" x2="66.4196" y2="4.88707" gradientUnits="userSpaceOnUse">
<stop stop-color="#064AD3"/>
<stop offset="1" stop-color="#116DE4"/>
</linearGradient>
<linearGradient id="paint6_linear_72_2106" x1="38.041" y1="7.21295" x2="40.0974" y2="7.21295" gradientUnits="userSpaceOnUse">
<stop stop-color="#064AD3"/>
<stop offset="1" stop-color="#116DE4"/>
</linearGradient>
<linearGradient id="paint7_linear_72_2106" x1="4.22163" y1="46.8692" x2="6.27802" y2="46.8692" gradientUnits="userSpaceOnUse">
<stop stop-color="#064AD3"/>
<stop offset="1" stop-color="#116DE4"/>
</linearGradient>
<linearGradient id="paint8_linear_72_2106" x1="4.28511" y1="28.836" x2="6.3415" y2="28.836" gradientUnits="userSpaceOnUse">
<stop stop-color="#064AD3"/>
<stop offset="1" stop-color="#116DE4"/>
</linearGradient>
<linearGradient id="paint9_linear_72_2106" x1="15.4047" y1="16.7347" x2="17.4611" y2="16.7347" gradientUnits="userSpaceOnUse">
<stop stop-color="#064AD3"/>
<stop offset="1" stop-color="#116DE4"/>
</linearGradient>
<linearGradient id="paint10_linear_72_2106" x1="10.2796" y1="52.264" x2="110.9" y2="52.264" gradientUnits="userSpaceOnUse">
<stop stop-color="#AEACBA"/>
<stop offset="0.43" stop-color="#C1C0CF"/>
<stop offset="0.65" stop-color="#D1D0DD"/>
<stop offset="0.8" stop-color="#CFCEDB"/>
</linearGradient>
<linearGradient id="paint11_linear_72_2106" x1="0.551514" y1="58.8598" x2="120.661" y2="58.8598" gradientUnits="userSpaceOnUse">
<stop stop-color="#AEACBA"/>
<stop offset="0.43" stop-color="#C1C0CF"/>
<stop offset="0.65" stop-color="#D1D0DD"/>
<stop offset="0.8" stop-color="#CFCEDB"/>
</linearGradient>
<linearGradient id="paint12_linear_72_2106" x1="22.7607" y1="63.5264" x2="24.8171" y2="63.5264" gradientUnits="userSpaceOnUse">
<stop stop-color="#064AD3"/>
<stop offset="1" stop-color="#116DE4"/>
</linearGradient>
<linearGradient id="paint13_linear_72_2106" x1="55.2041" y1="71.0557" x2="57.2605" y2="71.0557" gradientUnits="userSpaceOnUse">
<stop stop-color="#064AD3"/>
<stop offset="1" stop-color="#116DE4"/>
</linearGradient>
<linearGradient id="paint14_linear_72_2106" x1="89.862" y1="66.057" x2="91.9184" y2="66.057" gradientUnits="userSpaceOnUse">
<stop stop-color="#064AD3"/>
<stop offset="1" stop-color="#116DE4"/>
</linearGradient>
<linearGradient id="paint15_linear_72_2106" x1="2.03862" y1="35.0059" x2="119.158" y2="35.0059" gradientUnits="userSpaceOnUse">
<stop stop-color="#064AD3"/>
<stop offset="1" stop-color="#116DE4"/>
</linearGradient>
</defs>
</svg>
