<svg width="123" height="113" viewBox="0 0 123 113" fill="none" xmlns="http://www.w3.org/2000/svg">
<path d="M34.1275 74.197V74.1424L33.952 10.8933C33.952 10.9808 33.9411 11.0792 33.9301 11.1666C33.9301 11.2541 33.9301 11.3306 33.9081 11.4072C33.8972 11.4946 33.8643 11.5712 33.8423 11.6586C33.8204 11.7352 33.8094 11.8117 33.7765 11.8882C33.7546 11.9648 33.7107 12.0413 33.6778 12.1178C33.6449 12.2053 33.601 12.2928 33.5571 12.3802C33.5242 12.4458 33.4803 12.5005 33.4474 12.5552C33.3816 12.6645 33.3158 12.7629 33.239 12.8722C33.1951 12.9269 33.1512 12.9706 33.1073 13.0253C32.9976 13.1565 32.8879 13.2768 32.7673 13.397C32.7014 13.4626 32.6246 13.5282 32.5479 13.6048C32.482 13.6704 32.4052 13.725 32.3285 13.7906C32.2407 13.8672 32.142 13.9437 32.0323 14.0093C31.9555 14.064 31.8677 14.1296 31.78 14.1842C31.6154 14.2936 31.4399 14.4029 31.2534 14.5013C30.8694 14.72 30.4526 14.8949 30.0247 15.0589C29.915 15.1026 29.8053 15.1464 29.6956 15.1792C29.4214 15.2776 29.1252 15.3541 28.84 15.4306C28.5877 15.4962 28.3463 15.5618 28.083 15.6165C27.6442 15.704 27.1945 15.7805 26.7337 15.8352C26.7337 15.8352 26.7337 15.8352 26.7228 15.8352C26.2181 15.8898 25.6916 15.9117 25.176 15.9008C25.1211 15.9008 25.0663 15.9008 25.0224 15.9008C24.5178 15.9008 24.0241 15.857 23.5305 15.8024C23.4756 15.8024 23.4208 15.8024 23.3659 15.7805C22.8942 15.7258 22.4335 15.6384 21.9837 15.529C21.8959 15.5072 21.8082 15.4853 21.7204 15.4634C21.2597 15.3432 20.8099 15.201 20.3821 15.037C19.8884 14.8402 19.4277 14.6216 18.9998 14.3701C17.3872 13.408 16.5864 12.1616 16.5864 10.9152L16.7619 74.1642C16.7619 75.4106 17.5628 76.6461 19.1754 77.6191C19.6032 77.8706 20.0639 78.1002 20.5576 78.2861C20.5686 78.2861 20.5795 78.297 20.5905 78.3079C20.9306 78.4391 21.2706 78.5485 21.6327 78.6578C21.7204 78.6797 21.8082 78.7015 21.885 78.7234C21.9727 78.7453 22.0605 78.7671 22.1482 78.789C22.2799 78.8218 22.4115 78.8546 22.5432 78.8874C22.8284 78.9421 23.1136 78.9967 23.3988 79.0295C23.4427 79.0295 23.4866 79.0295 23.5305 79.0405C23.5853 79.0405 23.6402 79.0514 23.695 79.0623C23.8705 79.0842 24.0461 79.1061 24.2326 79.117C24.5178 79.1389 24.792 79.1498 25.0772 79.1607C25.1102 79.1607 25.154 79.1607 25.1869 79.1607C25.2418 79.1607 25.2857 79.1607 25.3405 79.1607C25.549 79.1607 25.7464 79.1607 25.9549 79.1607C26.262 79.1498 26.5801 79.1279 26.8873 79.0951C26.8873 79.0951 26.8873 79.0951 26.8983 79.0951C27.2603 79.0623 27.6223 79.0077 27.9843 78.9421C28.0721 78.9311 28.1489 78.8983 28.2366 78.8765C28.4889 78.8218 28.7412 78.7562 28.9936 78.6906C29.1691 78.6469 29.3556 78.6141 29.5311 78.5594C29.6408 78.5266 29.7505 78.4829 29.8602 78.4391C29.9699 78.3954 30.0796 78.3626 30.1893 78.3189C30.6171 78.1549 31.034 77.969 31.4179 77.7613C31.5606 77.6847 31.7032 77.5973 31.8348 77.5207C31.8787 77.4989 31.9006 77.4661 31.9445 77.4442C32.0323 77.3895 32.1091 77.3239 32.1968 77.2693C32.2955 77.1927 32.3943 77.1271 32.482 77.0506C32.5588 76.985 32.6246 76.9303 32.7014 76.8647C32.7453 76.821 32.7892 76.7882 32.8331 76.7445C32.866 76.7117 32.8879 76.6898 32.9099 76.657C33.0305 76.5367 33.1512 76.4055 33.2499 76.2743C33.2829 76.2415 33.3158 76.2087 33.3487 76.165C33.3596 76.1541 33.3706 76.1322 33.3816 76.1213C33.4584 76.0229 33.5242 75.9135 33.59 75.8042C33.6229 75.7495 33.6558 75.7058 33.6887 75.6511C33.6887 75.6511 33.6887 75.6293 33.6997 75.6183C33.7436 75.5309 33.7765 75.4434 33.8204 75.3559C33.8533 75.2904 33.8862 75.2247 33.9081 75.1591V75.1373C33.9301 75.0608 33.952 74.9842 33.974 74.9077C33.9959 74.8311 34.0178 74.7546 34.0398 74.6781C34.0398 74.6781 34.0398 74.6562 34.0398 74.6453C34.0508 74.5688 34.0617 74.4813 34.0617 74.4048C34.0617 74.3282 34.0837 74.2626 34.0837 74.1861L34.1275 74.197Z" fill="#EBE6D3"/>
<path d="M29.9369 6.80428C27.5126 5.35016 23.5085 5.30642 20.9854 6.71682C18.4623 8.11628 18.3745 10.4341 20.7989 11.8883C23.2233 13.3424 27.2273 13.3861 29.7505 11.9757C32.2736 10.5763 32.3613 8.25841 29.9369 6.80428Z" fill="#26323F"/>
<path d="M31.6922 6.3342C31.6922 5.42673 31.0998 4.51927 29.926 3.80861C29.6189 3.62274 29.2788 3.45874 28.9168 3.31661C28.9168 3.31661 28.9058 3.31661 28.8948 3.30568C28.6535 3.20728 28.3902 3.13074 28.1269 3.05421C28.0611 3.03234 27.9953 3.02141 27.9404 3.01048C27.8746 2.99954 27.8088 2.97768 27.754 2.96674C27.6552 2.94488 27.5675 2.91208 27.4687 2.90114C27.2603 2.85741 27.0519 2.82461 26.8434 2.79181C26.8105 2.79181 26.7776 2.79181 26.7447 2.79181C26.7008 2.79181 26.6679 2.79181 26.624 2.78088C26.4924 2.76995 26.3608 2.74808 26.2291 2.73715C26.0207 2.72621 25.8232 2.71528 25.6148 2.70435C25.5929 2.70435 25.5599 2.70435 25.538 2.70435C25.4941 2.70435 25.4612 2.70435 25.4283 2.70435C25.2747 2.70435 25.1321 2.70435 24.9785 2.70435C24.7482 2.70435 24.5288 2.72621 24.2984 2.74808H24.2874C24.0241 2.76995 23.7499 2.81368 23.4976 2.85741C23.4318 2.86834 23.3769 2.89021 23.3111 2.90114C23.1246 2.93394 22.9381 2.98861 22.7626 3.03234C22.6309 3.06514 22.4993 3.08701 22.3786 3.13074C22.2909 3.15261 22.2251 3.18541 22.1373 3.21821C22.0605 3.25101 21.9727 3.27288 21.8959 3.30568C21.5778 3.42594 21.2816 3.55714 20.9964 3.71021C20.8867 3.76487 20.788 3.83047 20.6892 3.88514C20.6783 3.88514 20.6673 3.90701 20.6454 3.91794C20.404 4.07101 20.1956 4.23501 20.0091 4.40994C19.9981 4.42087 19.9762 4.4318 19.9542 4.45367C19.9323 4.47554 19.9213 4.4974 19.8994 4.51927C19.8116 4.60674 19.7239 4.70514 19.6471 4.7926C19.6251 4.81447 19.6032 4.84727 19.5813 4.86914C19.5813 4.88007 19.5703 4.891 19.5593 4.90194C19.5045 4.97847 19.4606 5.055 19.4057 5.13153C19.3838 5.16433 19.3509 5.20807 19.3399 5.24087C19.3399 5.24087 19.3399 5.2518 19.3399 5.26273C19.307 5.32833 19.2851 5.39393 19.2522 5.4486C19.2302 5.49233 19.2083 5.547 19.1863 5.59073C19.1863 5.59073 19.1863 5.60167 19.1863 5.6126C19.1644 5.66727 19.1534 5.72193 19.1425 5.7766C19.1315 5.83126 19.1096 5.88593 19.0986 5.9406C19.0986 5.9406 19.0986 5.95153 19.0986 5.96246C19.0986 6.02806 19.0876 6.08273 19.0766 6.14833C19.0766 6.203 19.0657 6.25766 19.0657 6.31233C19.0657 6.32326 19.0657 6.34513 19.0657 6.35606V9.36272C19.0657 9.29712 19.0876 9.23152 19.0876 9.16592C19.0876 9.11125 19.0876 9.04565 19.1096 8.98005C19.1205 8.91445 19.1425 8.85978 19.1534 8.79418C19.1644 8.73952 19.1754 8.68485 19.1973 8.61925C19.2193 8.56459 19.2412 8.50992 19.2631 8.45525C19.296 8.38965 19.318 8.32405 19.3509 8.26939C19.3728 8.22565 19.4057 8.18192 19.4277 8.13819C19.4716 8.06165 19.5264 7.98512 19.5813 7.90859C19.6142 7.87579 19.6471 7.83206 19.669 7.79926C19.7458 7.70086 19.8226 7.61339 19.9213 7.52592C19.9542 7.49312 19.9981 7.46032 20.031 7.42752C20.2175 7.25259 20.426 7.08859 20.6673 6.93553C20.777 6.85899 20.8867 6.79339 21.0074 6.72779C21.2926 6.57473 21.5998 6.44353 21.9069 6.31233C21.9837 6.27953 22.0605 6.25766 22.1483 6.22486C22.3567 6.15926 22.5651 6.09366 22.7736 6.039C22.96 5.99526 23.1356 5.9406 23.3221 5.9078C23.6402 5.8422 23.9693 5.78753 24.3094 5.75473C24.6823 5.72193 25.0663 5.70007 25.4393 5.70007C25.4832 5.70007 25.5161 5.70007 25.549 5.70007C25.911 5.70007 26.284 5.73287 26.635 5.7766C26.6789 5.7766 26.7118 5.7766 26.7557 5.78753C27.0958 5.83126 27.4358 5.89686 27.7649 5.9734C27.8307 5.98433 27.8966 6.0062 27.9514 6.01713C28.2915 6.1046 28.6206 6.203 28.9278 6.32326C29.2898 6.4654 29.6298 6.62939 29.937 6.81526C31.1108 7.52592 31.7032 8.43339 31.7032 9.34085V6.3342H31.6922Z" fill="#49596E"/>
<path d="M33.3051 1.93883C29.0926 -0.586761 22.1266 -0.652361 17.7386 1.78576C13.3506 4.22388 13.208 8.24733 17.4205 10.7729C21.633 13.2985 28.599 13.3641 32.987 10.926C37.375 8.48786 37.5176 4.46442 33.3051 1.93883ZM29.7508 8.97986C27.2277 10.3793 23.2127 10.3465 20.7993 8.8924C18.3749 7.43827 18.4626 5.12041 20.9858 3.72095C23.5089 2.32149 27.5239 2.35429 29.9373 3.80842C32.3617 5.26255 32.274 7.5804 29.7508 8.97986Z" fill="#6C7890"/>
<path d="M36.3877 12.8282V12.7517L36.3658 6.31201C36.3658 6.43228 36.3438 6.54161 36.3329 6.66188C36.3329 6.77121 36.3219 6.86961 36.3 6.97894C36.278 7.08827 36.2451 7.19761 36.2122 7.29601C36.1903 7.39441 36.1683 7.49281 36.1354 7.59121C36.1025 7.6896 36.0477 7.77707 36.0147 7.87547C35.9709 7.9848 35.927 8.09414 35.8612 8.20347C35.8173 8.28 35.7624 8.35654 35.7185 8.43307C35.6308 8.56427 35.554 8.7064 35.4553 8.8376C35.4114 8.9032 35.3456 8.9688 35.2907 9.0344C35.1591 9.1984 35.0165 9.3624 34.8629 9.51546C34.7751 9.60293 34.6874 9.6904 34.5886 9.77786C34.5009 9.8544 34.4131 9.93093 34.3144 10.0075C34.1937 10.1059 34.073 10.1933 33.9414 10.2917C33.8427 10.3683 33.733 10.4448 33.6233 10.5104C33.4148 10.6525 33.1954 10.7837 32.9651 10.9149C32.636 11.1008 32.2849 11.2648 31.9229 11.4179C31.8132 11.4616 31.7145 11.5053 31.6048 11.5491C31.3305 11.6584 31.0563 11.7568 30.7711 11.8552C30.6723 11.888 30.5736 11.9208 30.4749 11.9536C29.9154 12.1285 29.334 12.2597 28.7416 12.38C28.6538 12.4019 28.5551 12.4128 28.4673 12.4347C28.0724 12.5003 27.6665 12.5658 27.2606 12.6096C27.2497 12.6096 27.2387 12.6096 27.2168 12.6096C26.8438 12.6424 26.4598 12.6752 26.0759 12.6861C25.9333 12.6861 25.7797 12.6861 25.6371 12.6861C25.4286 12.6861 25.2092 12.6861 25.0008 12.6861C24.8363 12.6861 24.6717 12.6752 24.5072 12.6642C24.3207 12.6642 24.1342 12.6533 23.9477 12.6314C23.7831 12.6205 23.6186 12.5986 23.454 12.5877C23.2675 12.5659 23.081 12.5549 22.8946 12.5331C22.741 12.5112 22.5874 12.4893 22.4338 12.4675C22.2363 12.4346 22.0389 12.4019 21.8414 12.3691C21.6988 12.3472 21.5672 12.3144 21.4246 12.2816C21.1942 12.2269 20.9638 12.1723 20.7444 12.1176C20.6128 12.0848 20.4921 12.052 20.3714 12.0083C20.0314 11.9099 19.6913 11.8005 19.3622 11.6803C19.2964 11.6584 19.2306 11.6365 19.1647 11.6147C18.9563 11.5381 18.7588 11.4397 18.5614 11.3523C18.4626 11.3085 18.3529 11.2648 18.2542 11.2211C17.958 11.0789 17.6838 10.9259 17.4095 10.7619C15.3691 9.53733 14.3489 7.96294 14.3489 6.37761L14.3708 12.8173C14.3708 14.3917 15.391 15.977 17.4315 17.2016C17.7057 17.3656 17.98 17.5186 18.2762 17.6608C18.3749 17.7045 18.4846 17.7482 18.5833 17.792C18.7808 17.8794 18.9782 17.9669 19.1867 18.0544C19.1976 18.0544 19.2196 18.0653 19.2306 18.0762C19.2744 18.0981 19.3293 18.109 19.3841 18.12C19.7132 18.2402 20.0533 18.3496 20.3934 18.4589C20.4482 18.4808 20.5031 18.5026 20.5579 18.5136C20.6237 18.5354 20.6896 18.5464 20.7664 18.5573C20.9967 18.612 21.2161 18.6666 21.4465 18.7213C21.5343 18.7432 21.622 18.765 21.7098 18.7869C21.7537 18.7869 21.8085 18.7978 21.8634 18.8088C22.0608 18.8416 22.2583 18.8744 22.4557 18.9072C22.5654 18.929 22.6861 18.9509 22.7958 18.9618C22.8397 18.9618 22.8836 18.9618 22.9165 18.9728C23.103 18.9946 23.2895 19.0165 23.476 19.0274C23.6076 19.0384 23.7283 19.0602 23.8599 19.0712C23.8928 19.0712 23.9367 19.0712 23.9696 19.0712C24.1561 19.0821 24.3426 19.093 24.5291 19.104C24.6607 19.104 24.7924 19.1258 24.924 19.1258C24.9569 19.1258 24.9898 19.1258 25.0227 19.1258C25.2312 19.1258 25.4506 19.1258 25.659 19.1258C25.7906 19.1258 25.9113 19.1258 26.043 19.1258C26.0649 19.1258 26.0868 19.1258 26.1088 19.1258C26.4927 19.1149 26.8657 19.0821 27.2497 19.0493C27.2497 19.0493 27.2716 19.0493 27.2826 19.0493C27.6885 19.0056 28.0834 18.9509 28.4893 18.8744C28.5332 18.8744 28.588 18.8634 28.6319 18.8525C28.6758 18.8525 28.7197 18.8306 28.7635 18.8197C29.3559 18.7104 29.9373 18.5682 30.4968 18.3933C30.5297 18.3933 30.5626 18.3824 30.5955 18.3714C30.6614 18.3496 30.7272 18.3168 30.793 18.2949C31.0782 18.2074 31.3525 18.0981 31.6267 17.9888C31.7364 17.945 31.8461 17.9013 31.9448 17.8576C32.3069 17.7045 32.6469 17.5405 32.987 17.3546C33.1735 17.2562 33.349 17.1469 33.5136 17.0376C33.5574 17.0048 33.6013 16.972 33.6562 16.9392C33.7659 16.8626 33.8646 16.797 33.9743 16.7205C34.1059 16.633 34.2266 16.5346 34.3473 16.4362C34.446 16.3597 34.5338 16.2832 34.6215 16.1957C34.6764 16.141 34.7422 16.0973 34.7971 16.0536C34.83 16.0208 34.8629 15.977 34.8958 15.9442C35.0494 15.7912 35.192 15.6272 35.3236 15.4632C35.3565 15.4194 35.4114 15.3757 35.4443 15.332C35.4553 15.3101 35.4662 15.2882 35.4882 15.2664C35.5869 15.1352 35.6637 15.004 35.7515 14.8618C35.7953 14.7962 35.8392 14.7416 35.8721 14.676C35.8721 14.665 35.8721 14.6541 35.8941 14.6432C35.9489 14.5338 35.9928 14.4245 36.0477 14.3152C36.0806 14.2277 36.1354 14.1512 36.1574 14.0637C36.1574 14.0637 36.1574 14.0418 36.1574 14.0309C36.1903 13.9325 36.2122 13.8341 36.2341 13.7357C36.2561 13.6373 36.289 13.5498 36.3109 13.4514C36.3109 13.4405 36.3109 13.4296 36.3109 13.4186C36.3329 13.3093 36.3329 13.2109 36.3438 13.1016C36.3438 13.0141 36.3658 12.9157 36.3768 12.8282H36.3877Z" fill="#49596E"/>
<path d="M37.0237 68.1071C37.0237 68.1071 37.0237 68.0524 37.0237 68.0305V64.2585C37.0237 64.3788 36.9908 64.51 36.9799 64.6303C36.9799 64.7396 36.9689 64.8489 36.947 64.9583C36.925 65.0676 36.8921 65.1879 36.8592 65.2972C36.8263 65.4065 36.8153 65.5049 36.7714 65.6143C36.7385 65.7127 36.6837 65.8111 36.6398 65.9204C36.5849 66.0407 36.5411 66.15 36.4862 66.2703C36.4423 66.3468 36.3875 66.4343 36.3326 66.5108C36.2449 66.6529 36.1571 66.7951 36.0584 66.9372C36.0035 67.0028 35.9487 67.0793 35.8829 67.1449C35.7402 67.3199 35.5867 67.4839 35.4221 67.6479C35.3344 67.7353 35.2356 67.8337 35.1369 67.9212C35.0382 68.0087 34.9504 68.0852 34.8407 68.1727C34.72 68.2711 34.5884 68.3695 34.4458 68.4679C34.3361 68.5444 34.2264 68.6209 34.1057 68.6975C33.8863 68.8396 33.6559 68.9927 33.4036 69.1348C33.0526 69.3316 32.6796 69.5065 32.3066 69.6705C32.1969 69.7143 32.0762 69.7689 31.9665 69.8127C31.6813 69.9329 31.3851 70.0313 31.0889 70.1297C30.9573 70.1735 30.8366 70.2172 30.705 70.25C30.5404 70.3047 30.3759 70.3484 30.2004 70.3921C30.0248 70.4359 29.8493 70.4905 29.6738 70.5233C29.4983 70.5671 29.3337 70.5999 29.1582 70.6327C28.9937 70.6655 28.8181 70.6982 28.6536 70.731C28.2367 70.8076 27.8089 70.8622 27.3811 70.906C27.3701 70.906 27.3591 70.906 27.3372 70.906C26.9423 70.9497 26.5364 70.9716 26.1305 70.9935C25.9769 70.9935 25.8123 70.9935 25.6588 70.9935C25.4284 70.9935 25.209 70.9935 24.9786 70.9935C24.8031 70.9935 24.6276 70.9825 24.4521 70.9716C24.2546 70.9716 24.0571 70.9606 23.8597 70.9388C23.6842 70.9278 23.5086 70.906 23.3331 70.895C23.1356 70.8732 22.9382 70.8513 22.7407 70.8295C22.5762 70.8076 22.4116 70.7857 22.2471 70.7529C22.0386 70.7201 21.8302 70.6873 21.6218 70.6436C21.4682 70.6108 21.3256 70.578 21.183 70.5452C20.9416 70.4905 20.7003 70.4359 20.459 70.3703C20.3273 70.3375 20.1957 70.2937 20.064 70.2609C19.702 70.1516 19.34 70.0423 18.9999 69.9111C18.9341 69.8892 18.8573 69.8673 18.7915 69.8345C18.5721 69.7471 18.3637 69.6487 18.1552 69.5612C18.0455 69.5175 17.9358 69.4737 17.8371 69.4191C17.53 69.266 17.2338 69.1129 16.9376 68.938C14.7765 67.6369 13.7014 65.9751 13.6904 64.3023V66.1828C13.6904 66.8388 13.6904 67.5057 13.6904 68.0633C13.6904 69.7361 14.7765 71.4089 16.9376 72.699C17.2228 72.874 17.53 73.027 17.8371 73.1801C17.9358 73.2348 18.0455 73.2676 18.1552 73.3222C18.3637 73.4206 18.5721 73.519 18.8025 73.5956C18.8244 73.5956 18.8354 73.6065 18.8464 73.6174C18.9012 73.6393 18.9561 73.6502 18.9999 73.6721C19.351 73.8033 19.702 73.9236 20.064 74.022C20.1299 74.0438 20.1847 74.0657 20.2396 74.0766C20.3054 74.0985 20.3822 74.1094 20.459 74.1313C20.7003 74.1969 20.9416 74.2516 21.183 74.3062C21.2817 74.3281 21.3695 74.35 21.4682 74.3718C21.5231 74.3718 21.5779 74.3828 21.6218 74.3937C21.8302 74.4374 22.0386 74.4702 22.258 74.503C22.3787 74.5249 22.4994 74.5468 22.6201 74.5686C22.6639 74.5686 22.7078 74.5686 22.7517 74.5796C22.9492 74.6014 23.1466 74.6233 23.3441 74.6452C23.4757 74.6561 23.6183 74.678 23.75 74.6889C23.7939 74.6889 23.8268 74.6889 23.8706 74.6889C24.0681 74.6998 24.2656 74.7108 24.463 74.7217C24.6056 74.7217 24.7482 74.7436 24.8799 74.7436C24.9128 74.7436 24.9457 74.7436 24.9896 74.7436C25.22 74.7436 25.4394 74.7436 25.6697 74.7436C25.8014 74.7436 25.933 74.7436 26.0756 74.7436C26.0976 74.7436 26.1195 74.7436 26.1414 74.7436C26.5473 74.7326 26.9423 74.6998 27.3482 74.6561C27.3482 74.6561 27.3701 74.6561 27.3811 74.6561C27.8089 74.6124 28.2367 74.5468 28.6646 74.4702C28.7084 74.4702 28.7633 74.4593 28.8181 74.4484C28.9388 74.4265 29.0485 74.3937 29.1692 74.3718C29.3447 74.339 29.5202 74.3062 29.6848 74.2625C29.8603 74.2188 30.0358 74.175 30.2113 74.1313C30.3759 74.0876 30.5514 74.0438 30.716 73.9892C30.7708 73.9782 30.8257 73.9564 30.8805 73.9454C30.9573 73.9236 31.0231 73.8908 31.0999 73.8689C31.3961 73.7705 31.6923 73.6612 31.9775 73.5518C32.0872 73.5081 32.2079 73.4644 32.3176 73.4097C32.7015 73.2457 33.0636 73.0708 33.4146 72.874C33.6121 72.7646 33.7876 72.6553 33.9741 72.546C34.0289 72.5132 34.0728 72.4804 34.1167 72.4476C34.2373 72.371 34.3361 72.2945 34.4458 72.218C34.5774 72.1196 34.7091 72.0212 34.8407 71.9228C34.9394 71.8353 35.0382 71.7588 35.1369 71.6713C35.1917 71.6166 35.2576 71.5729 35.3124 71.5182C35.3563 71.4854 35.3782 71.4417 35.4221 71.398C35.5867 71.234 35.7402 71.059 35.8829 70.895C35.9267 70.8513 35.9706 70.7967 36.0145 70.7529C36.0255 70.7311 36.0364 70.7092 36.0584 70.6873C36.1571 70.5452 36.2449 70.403 36.3326 70.2609C36.3765 70.1953 36.4204 70.1297 36.4643 70.0641C36.4643 70.0532 36.4643 70.0423 36.4862 70.0204C36.552 69.9001 36.5959 69.7908 36.6398 69.6705C36.6837 69.5831 36.7275 69.4956 36.7605 69.3972C36.7605 69.3863 36.7605 69.3753 36.7605 69.3644C36.7934 69.266 36.8153 69.1567 36.8482 69.0583C36.8811 68.9599 36.914 68.8505 36.936 68.7521C36.936 68.7412 36.936 68.7303 36.936 68.7084C36.9579 68.5991 36.9579 68.4897 36.9689 68.3804C36.9689 68.282 37.0018 68.1836 37.0018 68.0852L37.0237 68.1071Z" fill="#49596E"/>
<path d="M34.062 59.8197V61.744C34.062 61.744 34.062 61.7768 34.062 61.7986C34.062 61.8752 34.0511 61.9408 34.0401 62.0173C34.0401 62.1048 34.0401 62.1813 34.0181 62.2578C34.0181 62.2578 34.0181 62.2797 34.0181 62.2906C34.0072 62.3672 33.9743 62.4437 33.9523 62.5202C33.9304 62.5968 33.9194 62.6733 33.8865 62.7498V62.7717C33.8646 62.8373 33.8207 62.9029 33.7987 62.9685C33.7549 63.056 33.7219 63.1434 33.6781 63.2309C33.6781 63.2309 33.6781 63.2528 33.6671 63.2637C33.6342 63.3184 33.6013 63.3621 33.5684 63.4168C33.5025 63.5261 33.4367 63.6245 33.3599 63.7338C33.349 63.7448 33.338 63.7666 33.327 63.7776C33.2941 63.8104 33.2612 63.8432 33.2283 63.8869C33.1186 64.0181 33.0089 64.1384 32.8882 64.2696C32.8553 64.3024 32.8443 64.3242 32.8114 64.357C32.7676 64.4008 32.7237 64.4336 32.6798 64.4773C32.614 64.5429 32.5372 64.5976 32.4604 64.6632C32.3726 64.7397 32.2739 64.8162 32.1642 64.8818C32.0874 64.9365 31.9996 65.0021 31.9119 65.0568C31.879 65.0786 31.8461 65.1114 31.8022 65.1333C31.6705 65.2208 31.5279 65.2973 31.3853 65.3738C31.0014 65.5925 30.5845 65.7674 30.1567 65.9314C30.047 65.9752 29.9373 66.008 29.8276 66.0517C29.7179 66.0954 29.6191 66.1392 29.4985 66.172C29.323 66.2266 29.1474 66.2594 28.9609 66.3032C28.7086 66.3688 28.4673 66.4344 28.204 66.489C28.1162 66.5109 28.0395 66.5328 27.9517 66.5546C27.5897 66.6202 27.2277 66.6749 26.8657 66.7077C26.8657 66.7077 26.8657 66.7077 26.8547 66.7077C26.5475 66.7405 26.2404 66.7624 25.9222 66.7733C25.7138 66.7733 25.5163 66.7733 25.3079 66.7733C25.2531 66.7733 25.1982 66.7733 25.1543 66.7733C25.1214 66.7733 25.0775 66.7733 25.0446 66.7733C24.7594 66.7733 24.4742 66.7514 24.1999 66.7296C24.0244 66.7186 23.8489 66.6968 23.6624 66.6749C23.6076 66.6749 23.5527 66.6749 23.4979 66.653C23.454 66.653 23.4101 66.653 23.3552 66.6421C23.07 66.5984 22.7848 66.5546 22.4996 66.5C22.3679 66.4781 22.2363 66.4344 22.1047 66.4016C22.0169 66.3797 21.9291 66.3578 21.8414 66.336C21.7536 66.3141 21.6659 66.2922 21.5891 66.2704C21.2271 66.172 20.876 66.0517 20.5469 65.9205C20.5359 65.9205 20.525 65.9096 20.514 65.8986C20.0203 65.7128 19.5596 65.4832 19.1318 65.2317C17.5192 64.2696 16.7184 63.0232 16.7184 61.7768V59.7979C12.6485 62.4 12.6814 66.4016 16.9487 68.9599C21.4026 71.6277 28.7745 71.7042 33.4258 69.1239C37.9674 66.5984 38.1977 62.4874 34.0511 59.7979L34.062 59.8197Z" fill="#6C7890"/>
<path d="M37.0237 54.506C37.0237 54.506 37.0237 54.4513 37.0237 54.4295V50.6575C37.0237 50.7777 36.9908 50.9089 36.9799 51.0292C36.9799 51.1385 36.9689 51.2479 36.947 51.3572C36.925 51.4665 36.8921 51.5868 36.8592 51.6961C36.8263 51.8055 36.8153 51.9039 36.7714 52.0132C36.7385 52.1116 36.6837 52.21 36.6398 52.3193C36.5849 52.4396 36.5411 52.5489 36.4862 52.6692C36.4423 52.7457 36.3875 52.8332 36.3326 52.9097C36.2449 53.0519 36.1571 53.194 36.0584 53.3361C36.0035 53.4017 35.9487 53.4783 35.8829 53.5439C35.7402 53.7188 35.5867 53.8828 35.4221 54.0468C35.3344 54.1343 35.2356 54.2327 35.1369 54.3201C35.0382 54.4076 34.9504 54.4841 34.8407 54.5716C34.72 54.67 34.5884 54.7684 34.4458 54.8668C34.3361 54.9433 34.2264 55.0199 34.1057 55.0964C33.8863 55.2385 33.6559 55.3916 33.4036 55.5228C33.0526 55.7196 32.6796 55.8945 32.3066 56.0585C32.1969 56.1022 32.0762 56.146 31.9665 56.2006C31.6813 56.3209 31.3851 56.4193 31.0889 56.5177C30.9573 56.5614 30.8366 56.6052 30.705 56.6489C30.5404 56.7036 30.3759 56.7473 30.2004 56.791C30.0248 56.8348 29.8493 56.8894 29.6738 56.9222C29.4983 56.966 29.3337 56.9988 29.1582 57.0316C28.9937 57.0644 28.8181 57.0972 28.6536 57.13C28.2367 57.2065 27.8089 57.2612 27.3811 57.3049C27.3701 57.3049 27.3591 57.3049 27.3372 57.3049C26.9423 57.3486 26.5364 57.3705 26.1305 57.3924C25.9769 57.3924 25.8123 57.3924 25.6588 57.3924C25.4284 57.3924 25.209 57.3924 24.9786 57.3924C24.8031 57.3924 24.6276 57.3814 24.4521 57.3705C24.2546 57.3705 24.0571 57.3596 23.8597 57.3377C23.6842 57.3268 23.5086 57.3049 23.3331 57.294C23.1356 57.2721 22.9382 57.2612 22.7407 57.2284C22.5762 57.2065 22.4116 57.1846 22.2471 57.1518C22.0386 57.119 21.8302 57.0862 21.6218 57.0425C21.4682 57.0097 21.3256 56.9769 21.183 56.9441C20.9416 56.8894 20.7003 56.8348 20.459 56.7692C20.3273 56.7364 20.1957 56.6926 20.064 56.6598C19.702 56.5505 19.34 56.4412 18.9999 56.31C18.9341 56.2881 18.8573 56.2662 18.7915 56.2334C18.5721 56.146 18.3637 56.0476 18.1552 55.9601C18.0455 55.9164 17.9358 55.8726 17.8371 55.818C17.53 55.6649 17.2338 55.5118 16.9376 55.3369C14.7765 54.0359 13.7014 52.374 13.6904 50.7012V52.5817C13.6904 53.2377 13.6904 53.9047 13.6904 54.4623C13.6904 56.135 14.7765 57.8078 16.9376 59.098C17.2228 59.2729 17.53 59.426 17.8371 59.579C17.9358 59.6337 18.0455 59.6665 18.1552 59.7212C18.3637 59.8196 18.5721 59.918 18.8025 59.9945C18.8244 59.9945 18.8354 60.0054 18.8464 60.0164C18.9012 60.0382 18.9561 60.0492 18.9999 60.071C19.351 60.2022 19.702 60.3225 20.064 60.4209C20.1299 60.4428 20.1847 60.4646 20.2396 60.4756C20.3054 60.4974 20.3822 60.5084 20.459 60.5302C20.7003 60.5958 20.9416 60.6505 21.183 60.7052C21.2817 60.727 21.3695 60.7489 21.4682 60.7708C21.5231 60.7708 21.5779 60.7926 21.6218 60.7926C21.8302 60.8364 22.0386 60.8692 22.258 60.902C22.3787 60.9238 22.4994 60.9457 22.6201 60.9566C22.6639 60.9566 22.7078 60.9566 22.7517 60.9676C22.9492 60.9894 23.1466 61.0113 23.3441 61.0332C23.4757 61.0441 23.6183 61.066 23.75 61.0769C23.7939 61.0769 23.8268 61.0769 23.8706 61.0769C24.0681 61.0878 24.2656 61.0988 24.463 61.1097C24.6056 61.1097 24.7482 61.1316 24.8799 61.1316C24.9128 61.1316 24.9457 61.1316 24.9896 61.1316C25.22 61.1316 25.4394 61.1316 25.6697 61.1316C25.8014 61.1316 25.933 61.1316 26.0756 61.1316C26.0976 61.1316 26.1195 61.1316 26.1414 61.1316C26.5473 61.1097 26.9423 61.0878 27.3482 61.0441C27.3482 61.0441 27.3701 61.0441 27.3811 61.0441C27.8089 61.0004 28.2367 60.9348 28.6646 60.8692C28.7084 60.8692 28.7633 60.8582 28.8181 60.8473C28.9388 60.8254 29.0485 60.7926 29.1692 60.7708C29.3447 60.738 29.5202 60.7052 29.6848 60.6614C29.8603 60.6177 30.0358 60.574 30.2113 60.5302C30.3759 60.4865 30.5514 60.4428 30.716 60.3881C30.7708 60.3662 30.8257 60.3553 30.8805 60.3444C30.9573 60.3225 31.0231 60.2897 31.0999 60.2678C31.3961 60.1694 31.6923 60.0601 31.9775 59.9508C32.0872 59.907 32.2079 59.8633 32.3176 59.8086C32.7015 59.6446 33.0636 59.4697 33.4146 59.2729C33.6121 59.1636 33.7876 59.0542 33.9741 58.9449C34.0289 58.9121 34.0728 58.8793 34.1167 58.8465C34.2373 58.77 34.3361 58.6934 34.4458 58.6169C34.5774 58.5185 34.7091 58.4201 34.8407 58.3217C34.9394 58.2342 35.0382 58.1577 35.1369 58.0702C35.1917 58.0156 35.2576 57.9718 35.3124 57.9172C35.3563 57.8734 35.3782 57.8406 35.4221 57.7969C35.5867 57.6329 35.7402 57.458 35.8829 57.283C35.9267 57.2393 35.9706 57.1846 36.0145 57.1409C36.0255 57.119 36.0364 57.0972 36.0584 57.0753C36.1571 56.9332 36.2449 56.791 36.3326 56.6489C36.3765 56.5833 36.4204 56.5177 36.4643 56.4521C36.4643 56.4412 36.4643 56.4302 36.4862 56.4084C36.552 56.2881 36.5959 56.1788 36.6398 56.0585C36.6837 55.971 36.7275 55.8836 36.7605 55.7852C36.7605 55.7742 36.7605 55.7633 36.7605 55.7524C36.7934 55.654 36.8153 55.5446 36.8482 55.4462C36.8811 55.3479 36.914 55.2385 36.936 55.1401C36.936 55.1292 36.936 55.1183 36.936 55.0964C36.9579 54.9871 36.9579 54.8777 36.9689 54.7684C36.9689 54.67 37.0018 54.5716 37.0018 54.4732L37.0237 54.506Z" fill="#49596E"/>
<path d="M34.062 46.2186V48.1429C34.062 48.1429 34.062 48.1757 34.062 48.1976C34.062 48.2741 34.0511 48.3397 34.0401 48.4162C34.0401 48.5037 34.0401 48.5802 34.0181 48.6568C34.0181 48.6568 34.0181 48.6786 34.0181 48.6896C34.0072 48.7661 33.9743 48.8426 33.9523 48.9192C33.9304 48.9957 33.9194 49.0722 33.8865 49.1488V49.1706C33.8646 49.2362 33.8207 49.3018 33.7987 49.3674C33.7549 49.4549 33.7219 49.5424 33.6781 49.6298C33.6781 49.6298 33.6781 49.6517 33.6671 49.6626C33.6342 49.7173 33.6013 49.761 33.5684 49.8157C33.5025 49.925 33.4367 50.0234 33.3599 50.1328C33.349 50.1437 33.338 50.1656 33.327 50.1765C33.2941 50.2093 33.2612 50.2421 33.2283 50.2858C33.1186 50.417 33.0089 50.5373 32.8882 50.6685C32.8553 50.7013 32.8443 50.7232 32.8114 50.756C32.7676 50.7997 32.7237 50.8325 32.6798 50.8762C32.614 50.9418 32.5372 50.9965 32.4604 51.0621C32.3726 51.1386 32.2739 51.2152 32.1642 51.2808C32.0874 51.3354 31.9996 51.401 31.9119 51.4557C31.879 51.4776 31.8461 51.5104 31.8022 51.5322C31.6705 51.6197 31.5279 51.6962 31.3853 51.7728C31.0014 51.9914 30.5845 52.1664 30.1567 52.3303C30.047 52.3741 29.9373 52.4069 29.8276 52.4506C29.7179 52.4834 29.6191 52.5381 29.4985 52.5709C29.323 52.6255 29.1474 52.6583 28.9609 52.7021C28.7086 52.7677 28.4673 52.8333 28.204 52.8879C28.1162 52.9098 28.0395 52.9317 27.9517 52.9535C27.5897 53.0191 27.2277 53.0738 26.8657 53.1066C26.8657 53.1066 26.8657 53.1066 26.8547 53.1066C26.5475 53.1394 26.2404 53.1613 25.9222 53.1722C25.7138 53.1722 25.5163 53.1722 25.3079 53.1722C25.2531 53.1722 25.1982 53.1722 25.1543 53.1722C25.1214 53.1722 25.0775 53.1722 25.0446 53.1722C24.7594 53.1722 24.4742 53.1503 24.1999 53.1285C24.0244 53.1175 23.8489 53.0957 23.6624 53.0738C23.6076 53.0738 23.5527 53.0738 23.4979 53.0519C23.454 53.0519 23.4101 53.0519 23.3552 53.041C23.07 52.9973 22.7848 52.9535 22.4996 52.8989C22.3679 52.877 22.2363 52.8333 22.1047 52.8005C22.0169 52.7786 21.9291 52.7568 21.8414 52.7349C21.7536 52.713 21.6659 52.7021 21.5891 52.6693C21.2271 52.5709 20.876 52.4506 20.5469 52.3194C20.5359 52.3194 20.525 52.3085 20.514 52.2976C20.0203 52.1008 19.5596 51.8821 19.1318 51.6306C17.5192 50.6685 16.7184 49.4221 16.7184 48.1757V46.1968C12.6485 48.7989 12.6814 52.8005 16.9487 55.3589C21.4026 58.0266 28.7745 58.1031 33.4258 55.5229C37.9674 52.9973 38.1977 48.8864 34.0511 46.2077L34.062 46.2186Z" fill="#6C7890"/>
<path d="M37.0237 29.0643C37.0237 29.0643 37.0237 29.0097 37.0237 28.9878V25.2158C37.0237 25.3361 36.9908 25.4673 36.9799 25.5876C36.9799 25.6969 36.9689 25.8062 36.947 25.9155C36.925 26.0249 36.8921 26.1452 36.8592 26.2545C36.8263 26.3638 36.8153 26.4622 36.7714 26.5715C36.7385 26.6699 36.6837 26.7683 36.6398 26.8777C36.5849 26.9979 36.5411 27.1073 36.4862 27.2275C36.4423 27.3041 36.3875 27.3915 36.3326 27.4681C36.2449 27.6102 36.1571 27.7523 36.0584 27.8945C36.0035 27.9601 35.9487 28.0366 35.8829 28.1022C35.7402 28.2771 35.5867 28.4411 35.4221 28.6051C35.3344 28.6926 35.2356 28.791 35.1369 28.8785C35.0382 28.9659 34.9504 29.0425 34.8407 29.1299C34.72 29.2283 34.5884 29.3267 34.4458 29.4251C34.3361 29.5017 34.2264 29.5782 34.1057 29.6547C33.8863 29.7969 33.6559 29.9499 33.4036 30.0811C33.0526 30.2779 32.6796 30.4529 32.3066 30.6169C32.1969 30.6606 32.0762 30.7043 31.9665 30.759C31.6813 30.8793 31.3851 30.9777 31.0889 31.0761C30.9573 31.1198 30.8366 31.1635 30.705 31.2073C30.5404 31.2619 30.3759 31.3057 30.2004 31.3494C30.0248 31.3931 29.8493 31.4369 29.6738 31.4806C29.4983 31.5243 29.3337 31.5571 29.1582 31.5899C28.9937 31.6227 28.8181 31.6555 28.6536 31.6883C28.2367 31.7649 27.8089 31.8195 27.3811 31.8633C27.3701 31.8633 27.3591 31.8633 27.3372 31.8633C26.9423 31.907 26.5364 31.9289 26.1305 31.9507C25.9769 31.9507 25.8123 31.9507 25.6588 31.9507C25.4284 31.9507 25.209 31.9507 24.9786 31.9507C24.8031 31.9507 24.6276 31.9398 24.4521 31.9289C24.2546 31.9289 24.0571 31.9179 23.8597 31.8961C23.6842 31.8851 23.5086 31.8633 23.3331 31.8523C23.1356 31.8305 22.9382 31.8195 22.7407 31.7867C22.5762 31.7649 22.4116 31.743 22.2471 31.7102C22.0386 31.6774 21.8302 31.6446 21.6218 31.6009C21.4682 31.5681 21.3256 31.5353 21.183 31.5025C20.9416 31.4478 20.7003 31.3931 20.459 31.3275C20.3273 31.2947 20.1957 31.251 20.064 31.2182C19.702 31.1089 19.34 30.9995 18.9999 30.8683C18.9341 30.8465 18.8573 30.8246 18.7915 30.7918C18.5721 30.7043 18.3637 30.6059 18.1552 30.5185C18.0455 30.4747 17.9358 30.431 17.8371 30.3763C17.53 30.2233 17.2338 30.0702 16.9376 29.8953C14.7765 28.5942 13.7014 26.9323 13.6904 25.2596V27.1401C13.6904 27.7961 13.6904 28.463 13.6904 29.0206C13.6904 30.6934 14.7765 32.3662 16.9376 33.6563C17.2228 33.8312 17.53 33.9843 17.8371 34.1374C17.9358 34.1811 18.0455 34.2248 18.1552 34.2795C18.3637 34.3779 18.5721 34.4763 18.8025 34.5528C18.8244 34.5528 18.8354 34.5638 18.8464 34.5747C18.9012 34.5966 18.9561 34.6075 18.9999 34.6294C19.351 34.7606 19.702 34.8808 20.064 34.9792C20.1299 35.0011 20.1847 35.023 20.2396 35.0339C20.3054 35.0558 20.3822 35.0667 20.459 35.0886C20.7003 35.1542 20.9416 35.2088 21.183 35.2635C21.2817 35.2854 21.3695 35.3072 21.4682 35.3291C21.5231 35.3291 21.5779 35.34 21.6218 35.351C21.8302 35.3947 22.0386 35.4275 22.258 35.4603C22.3787 35.4822 22.4994 35.504 22.6201 35.5259C22.6639 35.5259 22.7078 35.5259 22.7517 35.5368C22.9492 35.5587 23.1466 35.5806 23.3441 35.6024C23.4757 35.6134 23.6183 35.6352 23.75 35.6462C23.7939 35.6462 23.8268 35.6462 23.8706 35.6462C24.0681 35.6571 24.2656 35.668 24.463 35.679C24.6056 35.679 24.7482 35.7008 24.8799 35.7008C24.9128 35.7008 24.9457 35.7008 24.9896 35.7008C25.22 35.7008 25.4394 35.7008 25.6697 35.7008C25.8014 35.7008 25.933 35.7008 26.0756 35.7008C26.0976 35.7008 26.1195 35.7008 26.1414 35.7008C26.5473 35.6899 26.9423 35.6571 27.3482 35.6134C27.3482 35.6134 27.3701 35.6134 27.3811 35.6134C27.8089 35.5696 28.2367 35.504 28.6646 35.4275C28.7084 35.4275 28.7633 35.4166 28.8181 35.4056C28.9388 35.3838 29.0485 35.351 29.1692 35.3291C29.3447 35.2963 29.5202 35.2635 29.6848 35.2198C29.8603 35.176 30.0358 35.1323 30.2113 35.0886C30.3759 35.0448 30.5514 35.0011 30.716 34.9464C30.7708 34.9246 30.8257 34.9136 30.8805 34.9027C30.9573 34.8808 31.0231 34.848 31.0999 34.8262C31.3961 34.7278 31.6923 34.6184 31.9775 34.5091C32.0872 34.4654 32.2079 34.4216 32.3176 34.367C32.7015 34.203 33.0636 34.028 33.4146 33.8312C33.6121 33.7219 33.7876 33.6126 33.9741 33.5032C34.0289 33.4704 34.0728 33.4376 34.1167 33.4048C34.2373 33.3283 34.3361 33.2518 34.4458 33.1753C34.5774 33.0769 34.7091 32.9785 34.8407 32.8801C34.9394 32.7926 35.0382 32.7161 35.1369 32.6286C35.1917 32.5739 35.2576 32.5302 35.3124 32.4755C35.3563 32.4427 35.3782 32.399 35.4221 32.3553C35.5867 32.1913 35.7402 32.0163 35.8829 31.8414C35.9267 31.7977 35.9706 31.743 36.0145 31.6993C36.0255 31.6774 36.0364 31.6555 36.0584 31.6337C36.1571 31.4915 36.2449 31.3494 36.3326 31.2073C36.3765 31.1417 36.4204 31.0761 36.4643 31.0105C36.4643 30.9995 36.4643 30.9886 36.4862 30.9667C36.552 30.8465 36.5959 30.7371 36.6398 30.6169C36.6837 30.5294 36.7275 30.4419 36.7605 30.3435C36.7605 30.3326 36.7605 30.3217 36.7605 30.3107C36.7934 30.2123 36.8153 30.103 36.8482 30.0046C36.8811 29.9062 36.914 29.7969 36.936 29.6985C36.936 29.6875 36.936 29.6766 36.936 29.6547C36.9579 29.5454 36.9579 29.4361 36.9689 29.3267C36.9689 29.2283 37.0018 29.1299 37.0018 29.0315L37.0237 29.0643Z" fill="#49596E"/>
<path d="M34.062 20.777V22.7013C34.062 22.7013 34.062 22.745 34.062 22.756C34.062 22.8325 34.0511 22.8981 34.0401 22.9746C34.0401 23.0621 34.0401 23.1386 34.0181 23.2261C34.0181 23.2261 34.0181 23.248 34.0181 23.2589C34.0072 23.3354 33.9743 23.412 33.9523 23.4885C33.9304 23.565 33.9194 23.6416 33.8865 23.7181V23.74C33.8646 23.8056 33.8207 23.8712 33.7987 23.9368C33.7549 24.0242 33.7219 24.1117 33.6781 24.1992C33.6781 24.1992 33.6781 24.221 33.6671 24.232C33.6342 24.2866 33.6013 24.3304 33.5684 24.385C33.5025 24.4944 33.4367 24.5928 33.3599 24.7021C33.349 24.713 33.338 24.7349 33.327 24.7458C33.2941 24.7786 33.2612 24.8114 33.2283 24.8552C33.1186 24.9864 33.0089 25.1066 32.8882 25.2378C32.8553 25.2706 32.8443 25.2925 32.8114 25.3253C32.7676 25.369 32.7237 25.4018 32.6798 25.4456C32.614 25.5112 32.5372 25.5658 32.4604 25.6314C32.3726 25.708 32.2739 25.7845 32.1642 25.8501C32.0874 25.9048 31.9996 25.9704 31.9119 26.025C31.879 26.0469 31.8461 26.0797 31.8022 26.1016C31.6705 26.189 31.5279 26.2656 31.3853 26.3421C31.0014 26.5608 30.5845 26.7357 30.1567 26.8997C30.047 26.9434 29.9373 26.9762 29.8276 27.02C29.7179 27.0637 29.6191 27.1074 29.4985 27.1402C29.323 27.1949 29.1474 27.2277 28.9609 27.2714C28.7086 27.337 28.4673 27.4026 28.204 27.4573C28.1162 27.4792 28.0395 27.501 27.9517 27.5229C27.5897 27.5885 27.2277 27.6431 26.8657 27.6759C26.8657 27.6759 26.8657 27.6759 26.8547 27.6759C26.5475 27.7087 26.2404 27.7306 25.9222 27.7415C25.7138 27.7415 25.5163 27.7415 25.3079 27.7415C25.2531 27.7415 25.1982 27.7415 25.1543 27.7415C25.1214 27.7415 25.0775 27.7415 25.0446 27.7415C24.7594 27.7415 24.4742 27.7197 24.1999 27.6978C24.0244 27.6869 23.8489 27.665 23.6624 27.6431C23.6076 27.6431 23.5527 27.6431 23.4979 27.6213C23.454 27.6213 23.4101 27.6213 23.3552 27.6103C23.07 27.5666 22.7848 27.5229 22.4996 27.4682C22.3679 27.4463 22.2363 27.4026 22.1047 27.3698C22.0169 27.348 21.9291 27.3261 21.8414 27.3042C21.7536 27.2823 21.6659 27.2605 21.5891 27.2386C21.2271 27.1402 20.876 27.02 20.5469 26.8888C20.5359 26.8888 20.525 26.8778 20.514 26.8669C20.0203 26.681 19.5596 26.4514 19.1318 26.2C17.5192 25.2378 16.7184 23.9914 16.7184 22.745V20.7661C12.6485 23.3682 12.6814 27.3698 16.9487 29.9282C21.4026 32.5959 28.7745 32.6725 33.4258 30.0922C37.9674 27.5666 38.1977 23.4557 34.0511 20.7661L34.062 20.777Z" fill="#6C7890"/>
<path d="M1.75506 42.1185L1.71118 58.2341L3.3896 57.2611L3.43348 41.1454C3.43348 41.1454 2.30356 40.883 1.9964 41.0579C1.8867 41.1235 1.76603 42.1075 1.76603 42.1075L1.75506 42.1185Z" fill="#26323F"/>
<path d="M35.5977 76.9521C35.5977 76.9521 35.5977 76.9521 35.5867 76.9521C35.5209 76.9521 35.4441 76.9521 35.3673 76.9521C35.2905 76.9521 35.2028 76.9193 35.115 76.8865C35.0272 76.8537 34.9395 76.8099 34.8517 76.7553L4.72795 59.426C4.64019 59.3714 4.54146 59.3167 4.4537 59.2402C4.36594 59.1746 4.28914 59.098 4.20138 59.0106C4.12459 58.934 4.0478 58.8466 3.97101 58.7482C3.90519 58.6607 3.83937 58.5623 3.77355 58.4639C3.65288 58.2671 3.55415 58.0703 3.48833 57.8626C3.45542 57.7642 3.43348 57.6658 3.41154 57.5564C3.3896 57.458 3.3896 57.3596 3.3896 57.2612L1.71118 58.2343C1.71118 58.2343 1.71118 58.2671 1.71118 58.278C1.71118 58.2999 1.71118 58.3108 1.71118 58.3327C1.71118 58.3546 1.71118 58.3655 1.71118 58.3874C1.71118 58.4092 1.71118 58.4202 1.71118 58.442C1.71118 58.4639 1.71118 58.4748 1.71118 58.4967C1.71118 58.4967 1.71118 58.5186 1.71118 58.5295C1.71118 58.5295 1.71118 58.5404 1.71118 58.5514C1.71118 58.5732 1.71118 58.5951 1.72215 58.606C1.72215 58.6279 1.72215 58.6498 1.73312 58.6607C1.73312 58.6826 1.73312 58.7044 1.74409 58.7263C1.74409 58.7482 1.75506 58.77 1.76603 58.7919C1.76603 58.8028 1.76603 58.8138 1.777 58.8356C1.777 58.8356 1.777 58.8356 1.777 58.8466C1.777 58.8684 1.78797 58.8903 1.79894 58.9012C1.79894 58.9231 1.80991 58.945 1.82088 58.9559C1.82088 58.9778 1.83185 58.9996 1.84282 59.0106C1.84282 59.0324 1.85379 59.0434 1.86476 59.0652C1.86476 59.0871 1.8867 59.098 1.8867 59.1199C1.8867 59.1199 1.90864 59.1636 1.91961 59.1855C1.93058 59.2074 1.94155 59.2292 1.95252 59.262C1.97446 59.2948 1.98543 59.3276 2.00737 59.3604C2.01834 59.3823 2.02931 59.4042 2.04028 59.4151C2.06222 59.4588 2.09513 59.4916 2.11707 59.5354C2.13901 59.5682 2.17192 59.6119 2.19386 59.6447C2.20483 59.6666 2.22677 59.6884 2.23774 59.6994C2.23774 59.6994 2.23774 59.6994 2.23774 59.7103C2.25968 59.7322 2.27065 59.754 2.29259 59.7759C2.31453 59.7978 2.32551 59.8196 2.34745 59.8415C2.36939 59.8634 2.38036 59.8852 2.4023 59.9071C2.42424 59.9289 2.43521 59.9399 2.45715 59.9617C2.47909 59.9836 2.50103 60.0055 2.52297 60.0164C2.54491 60.0383 2.56685 60.0602 2.58879 60.0711C2.61073 60.093 2.63267 60.1039 2.65461 60.1257C2.67655 60.1476 2.69849 60.1586 2.70946 60.1695C2.7314 60.1804 2.75334 60.2023 2.77528 60.2132C2.79722 60.2242 2.81916 60.246 2.8411 60.2569C2.86304 60.2679 2.88498 60.2897 2.90692 60.3007C2.92886 60.3116 2.9508 60.3225 2.97274 60.3335C2.97274 60.3335 2.97274 60.3335 2.98371 60.3335L33.1075 77.6627C33.1075 77.6627 33.1404 77.6846 33.1514 77.6846C33.1733 77.6846 33.1952 77.7065 33.2062 77.7174C33.2282 77.7174 33.2501 77.7393 33.2611 77.7502C33.283 77.7502 33.3049 77.7721 33.3159 77.7721C33.3269 77.7721 33.3488 77.7721 33.3598 77.783C33.3598 77.783 33.3598 77.783 33.3708 77.783C33.3927 77.783 33.4146 77.7939 33.4256 77.8049C33.4476 77.8049 33.4695 77.8158 33.4805 77.8267C33.5024 77.8267 33.5243 77.8267 33.5353 77.8377C33.5573 77.8377 33.5792 77.8377 33.5902 77.8377C33.6121 77.8377 33.634 77.8377 33.656 77.8377C33.6779 77.8377 33.6999 77.8377 33.7218 77.8377C33.7437 77.8377 33.7657 77.8377 33.7876 77.8377C33.7876 77.8377 33.7986 77.8377 33.8096 77.8377C33.8096 77.8377 33.8096 77.8377 33.8205 77.8377C33.8315 77.8377 33.8535 77.8377 33.8644 77.8377C33.8973 77.8377 33.9302 77.8267 33.9632 77.8158C33.9851 77.8158 33.9961 77.8049 34.018 77.7939L35.6964 76.8209C35.6416 76.8427 35.5757 76.8646 35.5099 76.8755L35.5977 76.9521Z" fill="#6C7890"/>
<path d="M36.2559 61.9733L36.212 78.089C36.212 78.2858 36.19 78.4716 36.1571 78.6466C36.1571 78.6466 36.1571 78.6466 36.1571 78.6575C36.1242 78.8215 36.0694 78.9746 36.0035 79.1167C35.9487 79.226 35.8829 79.3244 35.8061 79.4119C35.7841 79.4447 35.7622 79.4775 35.7293 79.5103C35.6415 79.6087 35.5428 79.6852 35.4331 79.7508L37.1115 78.7778C37.2212 78.7122 37.32 78.6356 37.4077 78.5372C37.4406 78.5044 37.4626 78.4716 37.4845 78.4388C37.5174 78.3951 37.5613 78.3514 37.5942 78.3076C37.6271 78.253 37.66 78.1983 37.682 78.1436C37.7039 78.0999 37.7258 78.0452 37.7478 77.9906C37.7588 77.9468 37.7807 77.9031 37.7917 77.8594C37.8026 77.8156 37.8136 77.7719 37.8246 77.7282C37.8246 77.7172 37.8246 77.7063 37.8246 77.6844C37.8246 77.6844 37.8246 77.6844 37.8246 77.6735C37.8246 77.6516 37.8246 77.6298 37.8356 77.6079C37.8356 77.5642 37.8465 77.5314 37.8575 77.4876C37.8575 77.4439 37.8575 77.4111 37.8685 77.3674C37.8685 77.3236 37.8685 77.2908 37.8685 77.2471C37.8685 77.2034 37.8685 77.1706 37.8685 77.1268L37.9123 61.0002L36.2339 61.9733H36.2559Z" fill="#374353"/>
<path d="M35.3675 59.2292C34.808 58.3327 34.0511 57.5455 33.2173 57.0644L3.10453 39.7352C2.25983 39.2541 1.5029 39.1667 0.954395 39.4291C0.405892 39.6805 0.0548503 40.2709 0.0548503 41.1456L0 57.2612C0 58.125 0.340072 59.1199 0.888575 60.0164C1.43708 60.902 2.19401 61.7002 3.03871 62.1812L33.1625 79.5105C33.9962 79.9915 34.7531 80.0681 35.3126 79.8166C35.8611 79.5651 36.2122 78.9638 36.2122 78.1001L36.256 61.9844C36.256 61.1207 35.9269 60.1367 35.3675 59.2402V59.2292ZM34.5118 77.1161C34.5118 77.4988 34.3582 77.7612 34.1169 77.8705C33.8755 77.9798 33.5355 77.947 33.1735 77.7284L3.03871 60.3991C2.66572 60.1914 2.33662 59.8415 2.08431 59.437C1.84297 59.0543 1.70036 58.617 1.70036 58.2343L1.74424 42.1186C1.74424 41.7469 1.89782 41.4736 2.13916 41.3643C2.3805 41.244 2.72057 41.2877 3.08259 41.4955L33.2064 58.8247C33.5793 59.0324 33.9084 59.3823 34.1498 59.7868C34.3911 60.1804 34.5447 60.6178 34.5447 60.9895L34.5008 77.1052L34.5118 77.1161Z" fill="#49596E"/>
<path d="M37.9234 60.8912C37.9234 60.8912 37.9234 60.8147 37.9234 60.7709C37.9234 60.7272 37.9234 60.6944 37.9234 60.6507C37.9234 60.6069 37.9234 60.5741 37.9124 60.5304C37.9014 60.4867 37.9014 60.4429 37.8905 60.4101C37.8905 60.3883 37.8905 60.3664 37.8905 60.3445C37.8905 60.3445 37.8905 60.3445 37.8905 60.3336C37.8905 60.3117 37.8905 60.3008 37.8905 60.2789C37.8905 60.2352 37.8685 60.1915 37.8685 60.1477C37.8685 60.104 37.8466 60.0603 37.8356 60.0165C37.8356 59.9728 37.8137 59.9291 37.8027 59.8853C37.7917 59.8416 37.7808 59.7979 37.7588 59.7541C37.7588 59.7213 37.7369 59.6995 37.7259 59.6667C37.7259 59.6557 37.7259 59.6448 37.7259 59.6339C37.7149 59.5901 37.693 59.5464 37.682 59.5027C37.6711 59.4589 37.6491 59.4152 37.6382 59.3715C37.6162 59.3277 37.6052 59.284 37.5833 59.2403C37.5614 59.1965 37.5504 59.1528 37.5285 59.1091C37.5065 59.0653 37.4846 59.0216 37.4736 58.9779C37.4517 58.9341 37.4297 58.8904 37.4078 58.8467C37.3858 58.792 37.3529 58.7373 37.32 58.6827C37.2761 58.6061 37.2323 58.5296 37.1884 58.4421C37.1555 58.3875 37.1335 58.3437 37.1006 58.3C37.0458 58.2125 36.9909 58.1251 36.9251 58.0376C36.8702 57.9501 36.8154 57.8736 36.7496 57.7971C36.7167 57.7533 36.6838 57.7096 36.6508 57.6659C36.6508 57.6659 36.6508 57.6659 36.6508 57.6549C36.6508 57.6549 36.6508 57.644 36.6289 57.6331C36.585 57.5784 36.5521 57.5347 36.5082 57.48C36.4644 57.4363 36.4314 57.3816 36.3876 57.3379C36.3437 57.2941 36.2998 57.2504 36.2669 57.1957C36.223 57.152 36.1791 57.1083 36.1353 57.0645C36.0914 57.0208 36.0475 56.9771 35.9926 56.9333C35.9488 56.8896 35.8939 56.8459 35.85 56.8021C35.8062 56.7584 35.7513 56.7147 35.7074 56.6709C35.6635 56.6381 35.6197 56.5944 35.5758 56.5616C35.5319 56.5288 35.4771 56.4851 35.4332 56.4523C35.3893 56.4195 35.3344 56.3867 35.2906 56.3539C35.2467 56.3211 35.1918 56.2883 35.1479 56.2664C35.1041 56.2336 35.0602 56.2117 35.0053 56.1789C35.0053 56.1789 34.9834 56.168 34.9724 56.1571L4.84865 38.8278C4.84865 38.8278 4.77186 38.7841 4.73895 38.7732C4.69507 38.7513 4.65119 38.7294 4.60731 38.7076C4.56343 38.6857 4.51955 38.6638 4.47567 38.642C4.43179 38.6201 4.38791 38.5982 4.34403 38.5873C4.31112 38.5764 4.27821 38.5654 4.2453 38.5545H4.22336C4.17948 38.5436 4.1356 38.5217 4.09172 38.5108C4.04784 38.4998 4.00396 38.4889 3.96008 38.478C3.9162 38.467 3.87232 38.4561 3.82844 38.4452C3.78456 38.4452 3.74068 38.4233 3.68582 38.4233C3.64194 38.4233 3.58709 38.4124 3.54321 38.4124C3.48836 38.4124 3.44448 38.4124 3.38963 38.4124C3.33478 38.4124 3.27993 38.4124 3.22508 38.4124C3.20314 38.4124 3.19217 38.4124 3.17023 38.4124C3.17023 38.4124 3.14829 38.4124 3.13732 38.4124C3.10441 38.4124 3.0715 38.4124 3.03859 38.4233C2.9618 38.4342 2.89598 38.4561 2.83016 38.478C2.78628 38.4889 2.7424 38.5108 2.69852 38.5326C2.65464 38.5545 2.62173 38.5654 2.58882 38.5873L0.9104 39.5603C0.9104 39.5603 0.987191 39.5166 1.0201 39.5057C1.15174 39.4401 1.30532 39.4073 1.4589 39.3854C1.4589 39.3854 1.48084 39.3854 1.49181 39.3854C1.64539 39.3635 1.82092 39.3635 1.99644 39.3854C2.17196 39.4073 2.36942 39.4619 2.56688 39.5275C2.76434 39.6041 2.9618 39.6915 3.17023 39.8118L33.294 57.1411C33.5024 57.2613 33.6999 57.4035 33.8974 57.5565C34.0948 57.7096 34.2813 57.8845 34.4678 58.0704C34.6433 58.2563 34.8188 58.4531 34.9834 58.6499C34.9834 58.6499 34.9834 58.6499 34.9834 58.6608C35.1479 58.8685 35.2906 59.0763 35.4332 59.2949C35.5648 59.5136 35.6965 59.7432 35.8062 59.9728C35.9159 60.2024 36.0036 60.432 36.0804 60.6616C36.1572 60.8912 36.212 61.1208 36.2559 61.3395C36.2559 61.3395 36.2559 61.3394 36.2559 61.3504C36.2998 61.58 36.3108 61.7986 36.3108 62.0173L37.9892 61.0443C37.9892 61.0443 37.9892 60.9677 37.9892 60.9349L37.9234 60.8912Z" fill="#6C7890"/>
<path d="M11.4743 22.6358L11.4304 38.7515L13.1088 37.7784L13.1527 21.6627C13.1527 21.6627 12.0228 21.4003 11.7156 21.5753C11.6059 21.6409 11.4853 22.6249 11.4853 22.6249L11.4743 22.6358Z" fill="#26323F"/>
<path d="M45.3169 57.469C45.3169 57.469 45.3169 57.469 45.306 57.469C45.2401 57.469 45.1634 57.469 45.0866 57.469C45.0098 57.469 44.922 57.4362 44.8343 57.4034C44.7465 57.3706 44.6587 57.3269 44.571 57.2832L14.4472 39.9539C14.3594 39.8992 14.2717 39.8336 14.1839 39.768C14.0962 39.7024 14.0194 39.6259 13.9316 39.5384C13.8548 39.4619 13.778 39.3744 13.7012 39.276C13.6354 39.1886 13.5696 39.0902 13.5038 38.9918C13.3831 38.795 13.2844 38.5982 13.2186 38.3904C13.1856 38.292 13.1637 38.1936 13.1418 38.0952C13.1198 37.9968 13.1198 37.8984 13.1198 37.8L11.4414 38.7731C11.4414 38.7731 11.4414 38.8059 11.4414 38.8168C11.4414 38.8387 11.4414 38.8496 11.4414 38.8715C11.4414 38.8934 11.4414 38.9043 11.4414 38.9262C11.4414 38.948 11.4414 38.959 11.4414 38.9808C11.4414 39.0027 11.4414 39.0136 11.4414 39.0355C11.4414 39.0355 11.4414 39.0574 11.4414 39.0683V39.0902C11.4414 39.112 11.4414 39.1339 11.4524 39.1448C11.4524 39.1667 11.4524 39.1886 11.4633 39.1995C11.4633 39.2214 11.4633 39.2432 11.4743 39.2542C11.4743 39.276 11.4853 39.2979 11.4963 39.3198C11.4963 39.3307 11.4963 39.3526 11.5072 39.3635C11.5072 39.3635 11.5072 39.3635 11.5072 39.3744C11.5072 39.3963 11.5182 39.4182 11.5292 39.4291C11.5292 39.451 11.5401 39.4728 11.5511 39.4838C11.5511 39.5056 11.5621 39.5166 11.573 39.5384C11.573 39.5603 11.584 39.5822 11.595 39.5931C11.595 39.615 11.606 39.6259 11.6169 39.6478C11.6169 39.6478 11.6389 39.6915 11.6498 39.7134C11.6608 39.7352 11.6718 39.7571 11.6827 39.7899C11.7047 39.8227 11.7157 39.8555 11.7376 39.8883C11.7486 39.9102 11.7595 39.932 11.7705 39.943C11.7924 39.9867 11.8254 40.0195 11.8473 40.0632C11.8692 40.096 11.9021 40.1398 11.9241 40.1726C11.9351 40.1944 11.957 40.2163 11.968 40.2272C11.968 40.2272 11.968 40.2272 11.968 40.2382C11.9899 40.26 12.0009 40.2819 12.0228 40.3038C12.0448 40.3256 12.0557 40.3475 12.0777 40.3694C12.0996 40.3912 12.1106 40.4131 12.1325 40.435C12.1545 40.4568 12.1654 40.4787 12.1874 40.4896C12.2093 40.5115 12.2313 40.5334 12.2532 40.5443C12.2751 40.5662 12.2971 40.588 12.319 40.599C12.341 40.6208 12.3629 40.6318 12.3848 40.6536C12.4068 40.6646 12.4287 40.6864 12.4397 40.6974C12.4616 40.7192 12.4836 40.7302 12.5055 40.752C12.5274 40.763 12.5494 40.7848 12.5713 40.7958C12.5933 40.8067 12.6152 40.8286 12.6371 40.8395C12.6591 40.8504 12.681 40.8614 12.703 40.8723C12.703 40.8723 12.703 40.8723 12.7139 40.8723L42.8377 58.2016C42.8377 58.2016 42.8706 58.2234 42.8816 58.2234C42.9035 58.2234 42.9255 58.2453 42.9364 58.2562C42.9584 58.2562 42.9803 58.2781 42.9913 58.289C43.0132 58.289 43.0352 58.3109 43.0461 58.3109C43.0571 58.3109 43.079 58.3109 43.09 58.3218C43.112 58.3218 43.1339 58.3328 43.1449 58.3437C43.1668 58.3437 43.1887 58.3546 43.1997 58.3546C43.2217 58.3546 43.2436 58.3546 43.2546 58.3656C43.2765 58.3656 43.2984 58.3656 43.3094 58.3656C43.3094 58.3656 43.3533 58.3656 43.3752 58.3656C43.3972 58.3656 43.4191 58.3656 43.4411 58.3656C43.463 58.3656 43.4849 58.3656 43.5178 58.3656C43.5178 58.3656 43.5288 58.3656 43.5398 58.3656C43.5398 58.3656 43.5398 58.3656 43.5508 58.3656C43.5617 58.3656 43.5837 58.3656 43.5946 58.3656C43.6276 58.3656 43.6605 58.3546 43.6824 58.3437C43.7043 58.3437 43.7153 58.3328 43.7373 58.3218L45.4157 57.3488C45.3608 57.3706 45.295 57.3925 45.2292 57.4034L45.3169 57.469Z" fill="#6C7890"/>
<path d="M45.9753 42.4904L45.9315 58.6061C45.9315 58.8029 45.9095 58.9887 45.8766 59.1637C45.8766 59.1637 45.8766 59.1637 45.8766 59.1746C45.8437 59.3386 45.7889 59.4916 45.723 59.6338C45.6682 59.7431 45.6024 59.8306 45.5256 59.929C45.5036 59.9618 45.4817 59.9946 45.4488 60.0274C45.361 60.1258 45.2623 60.2023 45.1526 60.2679L46.831 59.2949C46.9407 59.2293 47.0394 59.1527 47.1272 59.0543C47.1601 59.0215 47.182 58.9887 47.204 58.9559C47.2369 58.9122 47.2808 58.8685 47.3137 58.8247C47.3466 58.7701 47.3795 58.7154 47.4014 58.6607C47.4234 58.617 47.4453 58.5623 47.4673 58.5077C47.4892 58.4639 47.5002 58.4202 47.5112 58.3765C47.5221 58.3327 47.5331 58.289 47.5441 58.2453C47.5441 58.2343 47.5441 58.2234 47.5441 58.2015C47.5441 58.2015 47.5441 58.2015 47.5441 58.1906C47.5441 58.1687 47.5441 58.1469 47.555 58.125C47.555 58.0813 47.566 58.0485 47.577 58.0047C47.577 57.961 47.577 57.9282 47.5879 57.8845C47.5879 57.8407 47.5879 57.8079 47.5879 57.7642C47.5879 57.7205 47.5879 57.6877 47.5879 57.6439L47.6318 41.5173L45.9534 42.4904H45.9753Z" fill="#374353"/>
<path d="M45.0977 39.7463C44.5382 38.8498 43.7813 38.0626 42.9476 37.5815L12.8238 20.2523C11.9791 19.7712 11.2222 19.6838 10.6736 19.9462C10.1251 20.1976 9.7741 20.788 9.7741 21.6627L9.73022 37.7783C9.73022 38.6421 10.0703 39.637 10.6188 40.5335C11.1673 41.4191 11.9242 42.2173 12.7689 42.6983L42.8927 60.0276C43.7264 60.5086 44.4834 60.5852 45.0428 60.3337C45.5913 60.0822 45.9424 59.4809 45.9424 58.6172L45.9863 42.5015C45.9863 41.6269 45.6572 40.6538 45.0977 39.7573V39.7463ZM44.2311 57.6222C44.2311 58.0049 44.0775 58.2673 43.8361 58.3766C43.5948 58.486 43.2547 58.4532 42.8927 58.2345L12.7689 40.9053C12.3959 40.6975 12.0668 40.3477 11.8145 39.9431C11.5732 39.5605 11.4306 39.1231 11.4306 38.7405L11.4745 22.6248C11.4745 22.2531 11.628 21.9797 11.8694 21.8704C12.1107 21.7501 12.4508 21.7939 12.8128 22.0016L42.9366 39.3309C43.3096 39.5386 43.6387 39.8885 43.88 40.2821C44.1214 40.6757 44.2749 41.113 44.2749 41.4847L44.2311 57.6004V57.6222Z" fill="#49596E"/>
<path d="M47.6538 41.4082C47.6538 41.4082 47.6538 41.3316 47.6538 41.2879C47.6538 41.2442 47.6538 41.2114 47.6538 41.1676C47.6538 41.1239 47.6538 41.0802 47.6429 41.0474C47.6429 41.0036 47.6429 40.9599 47.6209 40.9271C47.6209 40.9052 47.6209 40.8834 47.6209 40.8615C47.6209 40.8615 47.6209 40.8615 47.6209 40.8506C47.6209 40.8287 47.6209 40.8178 47.6209 40.7959C47.6209 40.7522 47.599 40.7084 47.599 40.6647C47.599 40.621 47.577 40.5772 47.5661 40.5335C47.5551 40.4898 47.5441 40.446 47.5332 40.4023C47.5222 40.3586 47.5112 40.3148 47.4893 40.2711C47.4893 40.2383 47.4673 40.2164 47.4564 40.1836C47.4564 40.1836 47.4564 40.1836 47.4564 40.1727C47.4564 40.1618 47.4564 40.1508 47.4454 40.1399C47.4344 40.0962 47.4125 40.0524 47.4015 40.0087C47.3905 39.965 47.3686 39.9212 47.3576 39.8775C47.3357 39.8338 47.3247 39.79 47.3028 39.7463C47.2808 39.7026 47.2699 39.6588 47.2479 39.6151C47.226 39.5714 47.2041 39.5276 47.1931 39.4839C47.1931 39.4839 47.1492 39.3964 47.1273 39.3527C47.0943 39.298 47.0724 39.2434 47.0395 39.1887C46.9956 39.1122 46.9517 39.0356 46.9079 38.9482C46.8749 38.9044 46.853 38.8498 46.8201 38.806C46.7653 38.7186 46.7104 38.6311 46.6446 38.5436C46.5897 38.4562 46.5349 38.3797 46.4691 38.3031C46.4361 38.2594 46.4032 38.2156 46.3703 38.1719C46.3703 38.1719 46.3703 38.1719 46.3703 38.161C46.3703 38.161 46.3594 38.15 46.3484 38.1391C46.3045 38.0844 46.2716 38.0407 46.2277 37.9861C46.1838 37.9423 46.1509 37.8877 46.107 37.8439C46.0632 37.8002 46.0193 37.7565 45.9864 37.7018C45.9425 37.6581 45.8986 37.6143 45.8547 37.5706C45.8109 37.5269 45.767 37.4831 45.7121 37.4394C45.6682 37.3957 45.6134 37.3519 45.5695 37.3082C45.5256 37.2645 45.4708 37.2207 45.4269 37.177C45.383 37.1333 45.3391 37.1005 45.2953 37.0677C45.2514 37.0349 45.1965 36.9911 45.1526 36.9583C45.1088 36.9255 45.0539 36.8927 45.01 36.8599C44.9662 36.8271 44.9113 36.7943 44.8674 36.7615C44.8236 36.7287 44.7797 36.7069 44.7248 36.6741C44.7248 36.6741 44.7029 36.6631 44.6919 36.6522L14.5681 19.3229C14.5681 19.3229 14.5023 19.2792 14.4584 19.2683C14.4146 19.2464 14.3707 19.2245 14.3268 19.2027C14.2829 19.1808 14.239 19.1589 14.1952 19.1371C14.1513 19.1152 14.1074 19.0933 14.0635 19.0824C14.0306 19.0715 13.9977 19.0605 13.9648 19.0496H13.9428C13.899 19.0387 13.8551 19.0168 13.8112 19.0059C13.7673 18.9949 13.7234 18.984 13.6796 18.9731C13.6357 18.9731 13.5918 18.9512 13.5479 18.9403C13.504 18.9403 13.4602 18.9293 13.4053 18.9184C13.3614 18.9184 13.3066 18.9075 13.2627 18.9075C13.2078 18.9075 13.164 18.9075 13.1091 18.9075C13.0543 18.9075 12.9994 18.9075 12.9446 18.9075C12.9226 18.9075 12.9117 18.9075 12.8897 18.9075C12.8897 18.9075 12.8678 18.9075 12.8568 18.9075C12.8239 18.9075 12.791 18.9075 12.7581 18.9184C12.6813 18.9293 12.6155 18.9512 12.5496 18.9731C12.5058 18.984 12.4619 19.0059 12.418 19.0277C12.3741 19.0496 12.3412 19.0715 12.3083 19.0824L10.6299 20.0555C10.6299 20.0555 10.7067 20.0117 10.7396 20.0008C10.8712 19.9352 11.0248 19.9024 11.1784 19.8805C11.1784 19.8805 11.2003 19.8805 11.2113 19.8805C11.3649 19.8587 11.5404 19.8587 11.7159 19.8805C11.8914 19.9024 12.0889 19.9571 12.2864 20.0227C12.4838 20.0992 12.6813 20.1867 12.8897 20.3069L43.0135 37.6362C43.2219 37.7565 43.4194 37.8986 43.6168 38.0517C43.8143 38.2047 44.0008 38.3796 44.1873 38.5655C44.3628 38.7514 44.5383 38.9482 44.7029 39.145C44.7029 39.145 44.7029 39.145 44.7029 39.1559C44.8674 39.3636 45.01 39.5714 45.1526 39.801C45.2843 40.0196 45.4159 40.2492 45.5256 40.4788C45.6353 40.7084 45.7231 40.938 45.7999 41.1676C45.7999 41.1676 45.7999 41.1676 45.7999 41.1786C45.8767 41.4082 45.9315 41.6378 45.9754 41.8564C45.9754 41.8564 45.9754 41.8564 45.9754 41.8674C46.0193 42.097 46.0303 42.3156 46.0303 42.5343L47.7087 41.5612C47.7087 41.5612 47.7087 41.4847 47.7087 41.4519L47.6538 41.4082Z" fill="#6C7890"/>
<path d="M41.4558 25.9702L63.9664 12.9377L121.449 72.4148L98.9389 85.4473L41.4558 25.9702Z" fill="#E1E1E1"/>
<path d="M98.9389 85.4473L121.449 72.4148L121.373 98.9827L98.873 112.015L98.9389 85.4473Z" fill="#9B9B9B"/>
<path d="M41.4556 25.9702L98.9387 85.4473L98.8729 112.015L41.313 78.8982L41.4556 25.9702Z" fill="#E7E7E7"/>
<path d="M39.5359 21.4765L62.0355 8.43311L122.645 71.1464L100.134 84.1898L39.5359 21.4765Z" fill="#AFAFAF"/>
<path d="M100.134 84.1901L122.645 71.1467L122.634 73.9347L100.134 86.9781V84.1901Z" fill="#747474"/>
<path d="M39.5361 21.4768L100.135 84.1901V86.9781L39.5032 24.2867L39.5361 21.4768Z" fill="#9B9B9B"/>
<path d="M61.3115 106.909L78.1944 97.135L78.1834 100.142L61.3005 109.916L61.3115 106.909Z" fill="#79736F"/>
<path d="M23.8376 85.3488L40.7206 75.5635L78.1943 97.1348L61.3114 106.909L23.8376 85.3488Z" fill="#8B8580"/>
<path d="M61.3113 106.909L61.3004 109.916L23.8267 88.3555L23.8376 85.3489L61.3113 106.909Z" fill="#A19A94"/>
<path d="M25.2749 51.3137L42.1578 41.5393L60.0061 64.0291L43.1342 73.8034L25.2749 51.3137Z" fill="#E8E3D0"/>
<path d="M61.3773 84.6273L78.2493 74.842L78.1944 97.1569L61.3115 106.931L61.3773 84.6273Z" fill="#D6D0BF"/>
<path d="M43.167 61.6127L60.0499 51.8274L78.2492 74.842L61.3773 84.6272L43.167 61.6127Z" fill="#E8E3D0"/>
<path d="M43.1669 61.6126L61.3772 84.6272L61.3114 106.931L25.176 86.136L25.2748 51.3135L43.134 73.8032L43.1669 61.6126Z" fill="#F5F2E3"/>
<path d="M24.4741 47.8586L41.357 38.0842L60.0281 61.5799L43.2768 59.6228L43.1452 71.3542L24.4741 47.8586Z" fill="#B4AEA9"/>
<path d="M24.4741 50.4391V47.8589L43.1452 71.3545L43.1342 73.9348L24.4741 50.4391Z" fill="#A19A94"/>
<path d="M61.3884 82.1781L78.2713 72.3928L78.2604 74.9731L61.3774 84.7584L61.3884 82.1781Z" fill="#79736F"/>
<path d="M42.0151 57.6874L58.8981 47.9131L78.2712 72.3927L61.3883 82.178L42.0151 57.6874Z" fill="#B4AEA9"/>
<path d="M42.0154 57.6877L61.3885 82.1783L61.3775 84.7586L42.0044 60.268L42.0154 57.6877Z" fill="#A19A94"/>
<path d="M96.9863 41.2878C96.9863 41.2878 96.9863 41.3097 96.9863 41.3206C96.9424 41.4409 96.8766 41.5502 96.7998 41.6705C96.7888 41.6924 96.7779 41.7033 96.7669 41.7252C96.6901 41.8345 96.5914 41.9438 96.4707 42.0422C96.4049 42.1078 96.3171 42.1625 96.2294 42.2172C96.1416 42.2828 96.0648 42.3484 95.9551 42.403C95.7467 42.5233 95.5053 42.6217 95.264 42.6982C95.1762 42.731 95.0775 42.7529 94.9788 42.7857C94.8581 42.8185 94.7374 42.8513 94.6168 42.8732C94.4412 42.906 94.2657 42.9388 94.0792 42.9606H94.0573C93.8488 42.9825 93.6295 42.9934 93.421 42.9934C93.3991 42.9934 93.3662 42.9934 93.3442 42.9934C93.1358 42.9934 92.9274 42.9716 92.7299 42.9497C92.708 42.9497 92.6751 42.9497 92.6531 42.9497C92.4556 42.9278 92.2582 42.8841 92.0717 42.8404C92.0388 42.8404 91.9949 42.8185 91.962 42.8185C91.7645 42.7638 91.5671 42.7092 91.3916 42.6326C91.1941 42.5561 90.9966 42.4577 90.8211 42.3593C90.13 41.9438 89.7899 41.419 89.7899 40.8833L89.7131 55.0966C89.7131 55.6214 90.0532 56.1571 90.7443 56.5726C90.9198 56.6819 91.1063 56.7694 91.3148 56.8459C91.4574 56.9006 91.6 56.9552 91.7536 56.999C91.7974 57.0099 91.8413 57.0208 91.8852 57.0318C91.9181 57.0318 91.962 57.0536 91.9949 57.0536C92.0388 57.0646 92.0827 57.0755 92.1375 57.0864C92.2582 57.1083 92.3789 57.1302 92.4995 57.152C92.5215 57.152 92.5544 57.152 92.5763 57.152C92.6092 57.152 92.6312 57.152 92.6641 57.152C92.7299 57.152 92.7957 57.163 92.8615 57.1739C92.9822 57.1739 93.1029 57.1848 93.2236 57.1958C93.2455 57.1958 93.2674 57.1958 93.2894 57.1958C93.3113 57.1958 93.3442 57.1958 93.3662 57.1958C93.443 57.1958 93.5197 57.1958 93.5965 57.1958C93.7282 57.1958 93.8708 57.1848 94.0024 57.1739C94.0024 57.1739 94.0244 57.1739 94.0353 57.1739C94.178 57.163 94.3206 57.1411 94.4632 57.1192C94.4961 57.1192 94.529 57.0974 94.5729 57.0974C94.6935 57.0755 94.8142 57.0427 94.9349 57.0099C95.0007 56.988 95.0775 56.9771 95.1543 56.9552C95.1762 56.9552 95.1982 56.9334 95.2201 56.9224C95.4614 56.835 95.7028 56.7475 95.9112 56.6272C95.9441 56.6054 95.9661 56.5944 95.999 56.5726C96.0648 56.5288 96.1196 56.4851 96.1855 56.4414C96.2732 56.3867 96.361 56.3211 96.4268 56.2664C96.4378 56.2664 96.4597 56.2446 96.4707 56.2336C96.5585 56.1571 96.6243 56.0806 96.6901 55.9931C96.7011 55.9822 96.712 55.9603 96.723 55.9494C96.734 55.9275 96.7449 55.9166 96.7559 55.8947C96.7778 55.851 96.8108 55.8182 96.8327 55.7744C96.8766 55.7088 96.8985 55.6432 96.9314 55.5667V55.5448C96.9314 55.5339 96.9314 55.523 96.9314 55.512C96.9424 55.4683 96.9643 55.4136 96.9753 55.3699C96.9863 55.3043 96.9973 55.2278 96.9973 55.1622C96.9973 55.1622 96.9973 55.1403 96.9973 55.1294L97.074 40.9161C97.074 41.0473 97.0521 41.1785 97.0082 41.2988L96.9863 41.2878Z" fill="#CECECE"/>
<path d="M95.516 38.3031C94.3861 37.6252 92.5212 37.6143 91.3584 38.2594C90.1956 38.9044 90.1736 39.9868 91.3035 40.6537C92.4335 41.3316 94.2984 41.3425 95.4612 40.6975C96.624 40.0524 96.646 38.97 95.516 38.3031Z" fill="#5D677C"/>
<path d="M95.5269 36.0725C95.3843 35.985 95.2307 35.9194 95.0662 35.8538C94.9565 35.8101 94.8358 35.7664 94.7042 35.7336C94.6713 35.7336 94.6384 35.7117 94.5945 35.7117C94.5616 35.7117 94.5396 35.7008 94.5067 35.6898C94.4738 35.6898 94.4299 35.668 94.397 35.657C94.2983 35.6352 94.1996 35.6242 94.1008 35.6024C94.0789 35.6024 94.0569 35.6024 94.035 35.6024C94.0131 35.6024 93.9911 35.6024 93.9692 35.6024C93.9143 35.6024 93.8705 35.5914 93.8156 35.5805C93.7169 35.5805 93.6181 35.5696 93.5304 35.5696C93.5084 35.5696 93.4975 35.5696 93.4755 35.5696H93.4097C93.3439 35.5696 93.289 35.5696 93.2232 35.5696C93.1135 35.5696 93.0038 35.5696 92.8941 35.5914C92.8941 35.5914 92.8832 35.5914 92.8722 35.5914C92.7515 35.6024 92.6418 35.6242 92.5211 35.6352C92.4882 35.6352 92.4663 35.6461 92.4334 35.657C92.3347 35.6789 92.2359 35.7008 92.1482 35.7336C92.0933 35.7445 92.0275 35.7554 91.9726 35.7773C91.9507 35.7773 91.9397 35.7992 91.9178 35.7992C91.7203 35.8648 91.5338 35.9413 91.3583 36.0397C91.3364 36.0506 91.3144 36.0616 91.2925 36.0834C91.2376 36.1162 91.1938 36.16 91.1389 36.1928C91.0731 36.2365 90.9963 36.2802 90.9415 36.3349C90.9415 36.3349 90.9195 36.3458 90.9085 36.3568C90.8427 36.4224 90.7769 36.488 90.733 36.5536C90.733 36.5645 90.7221 36.5754 90.7111 36.5864C90.7111 36.5973 90.6891 36.6192 90.6782 36.6301C90.6562 36.6629 90.6343 36.6957 90.6123 36.7285C90.5794 36.7832 90.5575 36.8378 90.5356 36.8925C90.5356 36.8925 90.5356 36.9034 90.5356 36.9144C90.5356 36.9144 90.5356 36.9362 90.5356 36.9472C90.5246 36.9909 90.5136 37.0237 90.5026 37.0674C90.4917 37.1221 90.4807 37.1768 90.4807 37.2314V37.2533V42.2389C90.4807 42.1295 90.4917 42.0311 90.5246 41.9328C90.5246 41.9328 90.5246 41.9109 90.5246 41.9C90.5575 41.8016 90.6124 41.7141 90.6672 41.6157C90.6672 41.6048 90.6891 41.5829 90.7001 41.5719C90.7659 41.4845 90.8427 41.397 90.9415 41.3205C90.9963 41.2658 91.0731 41.2221 91.1389 41.1784C91.2157 41.1237 91.2706 41.08 91.3583 41.0253C91.5338 40.9269 91.7203 40.8504 91.9178 40.7848C91.9946 40.7629 92.0714 40.741 92.1482 40.7192C92.2469 40.6973 92.3347 40.6645 92.4334 40.6426C92.576 40.6098 92.7186 40.588 92.8612 40.577C92.8612 40.577 92.8722 40.577 92.8831 40.577C93.0587 40.5552 93.2232 40.5552 93.3987 40.5552H93.4646C93.6291 40.5552 93.7937 40.5661 93.9582 40.588C93.9802 40.588 94.0021 40.588 94.024 40.588C94.1886 40.6098 94.3422 40.6426 94.4957 40.6754C94.5287 40.6754 94.5616 40.6864 94.5835 40.6973C94.7481 40.741 94.9016 40.7848 95.0443 40.8394C95.2088 40.905 95.3624 40.9816 95.505 41.0581C96.0645 41.3861 96.3387 41.8125 96.3387 42.2389V37.2533C96.3387 36.8269 96.0645 36.4005 95.516 36.0725H95.5269Z" fill="#26323F"/>
<path d="M97.4576 34.9901C95.2856 33.7 91.7203 33.6672 89.4934 34.9136C87.2665 36.16 87.2116 38.2264 89.3837 39.5165C91.5558 40.8067 95.121 40.8395 97.3479 39.5931C99.5749 38.3467 99.6297 36.2912 97.4576 34.9901ZM95.4611 38.4779C94.2983 39.1229 92.4334 39.112 91.3034 38.4341C90.1735 37.7563 90.1955 36.6848 91.3583 36.0397C92.5211 35.3947 94.386 35.4056 95.5159 36.0835C96.6459 36.7613 96.6239 37.8328 95.4611 38.4779Z" fill="#6C7890"/>
<path d="M99.0377 37.4504C99.0377 37.5051 99.0377 37.5597 99.0158 37.6253C99.0158 37.68 98.9938 37.7237 98.9719 37.7784C98.9609 37.8331 98.9499 37.8877 98.928 37.9424C98.906 37.9861 98.8841 38.0408 98.8622 38.0845C98.8402 38.1392 98.8183 38.1939 98.7854 38.2595C98.7634 38.3032 98.7305 38.3469 98.7086 38.3797C98.6647 38.4453 98.6208 38.5109 98.5769 38.5765C98.544 38.6093 98.5111 38.6531 98.4892 38.6859C98.4234 38.7624 98.3466 38.8499 98.2698 38.9264C98.2259 38.9592 98.193 39.0029 98.1491 39.0357C98.0943 39.0795 98.0394 39.1341 97.9736 39.1779C97.9187 39.2216 97.8639 39.2653 97.809 39.3091C97.7432 39.3528 97.6774 39.3965 97.6116 39.4403C97.5238 39.4949 97.447 39.5496 97.3483 39.6043C97.0192 39.7901 96.6572 39.9323 96.2842 40.0635C96.1416 40.1072 95.988 40.1509 95.8344 40.1947C95.6479 40.2493 95.4724 40.2931 95.275 40.3368C95.0007 40.3915 94.7265 40.4352 94.4522 40.468C94.4412 40.468 94.4193 40.468 94.4083 40.468C94.0792 40.5008 93.7501 40.5117 93.421 40.5117C93.3771 40.5117 93.3333 40.5117 93.3004 40.5117C92.9822 40.5117 92.6641 40.4899 92.346 40.4461C92.3021 40.4461 92.2582 40.4461 92.2253 40.4352C91.9181 40.3915 91.6219 40.3368 91.3257 40.2712C91.2709 40.2603 91.216 40.2384 91.1502 40.2275C90.8431 40.1509 90.5469 40.0525 90.2616 39.9432C89.9545 39.8229 89.6583 39.6808 89.384 39.5168C88.3199 38.8827 87.7824 38.0627 87.7934 37.2427V42.2064C87.7824 43.0264 88.309 43.8464 89.3731 44.4805C89.6473 44.6445 89.9435 44.7866 90.2507 44.9069C90.4701 44.9944 90.7004 45.0709 90.9308 45.1365C90.9966 45.1584 91.0625 45.1693 91.1393 45.1802C91.1941 45.1912 91.2489 45.213 91.3148 45.224C91.3916 45.2458 91.4574 45.2568 91.5342 45.2786C91.7207 45.3224 91.9071 45.3442 92.0936 45.377C92.1375 45.377 92.1814 45.377 92.2143 45.388C92.2472 45.3989 92.3021 45.388 92.335 45.3989C92.4337 45.4098 92.5324 45.4208 92.6312 45.4317C92.8177 45.4426 93.0042 45.4536 93.1906 45.4645C93.2236 45.4645 93.2565 45.4645 93.2894 45.4645C93.3333 45.4645 93.3771 45.4645 93.4101 45.4645C93.5307 45.4645 93.6404 45.4645 93.7611 45.4645C93.9695 45.4645 94.178 45.4426 94.3864 45.4208C94.3974 45.4208 94.4193 45.4208 94.4303 45.4208C94.6497 45.3989 94.88 45.3661 95.0994 45.3333C95.1543 45.3333 95.2091 45.3005 95.264 45.2896C95.4505 45.2458 95.637 45.2021 95.8235 45.1474C95.9332 45.1146 96.0538 45.1037 96.1635 45.06C96.1964 45.049 96.2294 45.0272 96.2732 45.0162C96.6462 44.885 97.0082 44.7429 97.3373 44.557C97.3812 44.5352 97.4251 44.5024 97.469 44.4805C97.5128 44.4586 97.5567 44.4258 97.6006 44.393C97.6664 44.3493 97.7323 44.3056 97.7981 44.2618C97.8529 44.2181 97.9078 44.1744 97.9626 44.1306C98.0175 44.0869 98.0833 44.0322 98.1381 43.9885C98.1601 43.9776 98.182 43.9557 98.193 43.9448C98.2149 43.9229 98.2369 43.901 98.2588 43.8792C98.3356 43.8026 98.4124 43.7152 98.4892 43.6386C98.5111 43.6168 98.5331 43.5949 98.544 43.573C98.555 43.5621 98.566 43.5402 98.5769 43.5293C98.6318 43.4637 98.6647 43.3981 98.7086 43.3325C98.7305 43.2997 98.7525 43.2779 98.7744 43.2451C98.7744 43.2451 98.7744 43.2232 98.7854 43.2122C98.8183 43.1576 98.8402 43.1029 98.8622 43.0373C98.8841 42.9936 98.906 42.9608 98.917 42.917C98.917 42.917 98.917 42.8952 98.917 42.8843C98.939 42.8296 98.9499 42.7749 98.9609 42.7203C98.9609 42.6765 98.9938 42.6328 98.9938 42.5891C98.9938 42.5891 98.9938 42.5672 98.9938 42.5563C98.9938 42.5016 99.0048 42.4469 99.0158 42.3923C99.0158 42.3485 99.0267 42.3048 99.0267 42.2611C99.0267 42.2392 99.0267 42.2283 99.0267 42.2064V37.2427C99.0377 37.2973 99.0267 37.3629 99.0267 37.4176L99.0377 37.4504Z" fill="#394757"/>
<path d="M93.9584 89.1647L93.9254 101.333L81.0247 93.9097L81.0576 81.741L93.9584 89.1647Z" fill="#49596E"/>
<path d="M80.7393 94.0736L81.2987 93.7456L85.3906 96.0963L84.8201 96.4243L80.7393 94.0736Z" fill="#E3EAF0"/>
<path d="M85.2593 96.6759L85.8297 96.3479L89.7899 98.622L89.2195 98.95L85.2593 96.6759Z" fill="#E3EAF0"/>
<path d="M80.7722 81.894L81.3426 81.5769L81.2987 93.7456L80.7393 94.0736L80.7722 81.894Z" fill="#AFC0D1"/>
<path d="M89.6582 99.2013L90.2286 98.8733L94.2108 101.169L93.6403 101.497L89.6582 99.2013Z" fill="#E3EAF0"/>
<path d="M85.2922 84.5072L85.8626 84.1792L85.8297 96.3479L85.2593 96.6759L85.2922 84.5072Z" fill="#AFC0D1"/>
<path d="M89.6911 87.0326L90.2616 86.7046L90.2286 98.8733L89.6582 99.2013L89.6911 87.0326Z" fill="#AFC0D1"/>
<path d="M80.3005 81.1832L80.871 80.8552L94.7042 88.8147L94.1338 89.1427L80.3005 81.1832Z" fill="#E3EAF0"/>
<path d="M80.3005 81.1833L80.2676 94.2377L94.1008 102.197L94.1337 89.1428L80.3005 81.1833ZM84.8202 96.4243L80.7393 94.0737L80.7722 81.9049L84.8531 84.2556L84.8202 96.4243ZM89.2191 98.9499L85.259 96.6758L85.2919 84.5071L89.2521 86.7812L89.2191 98.9499ZM93.6401 101.497L89.658 99.2014L89.6909 87.0327L93.673 89.3286L93.6401 101.497Z" fill="#D1DCE6"/>
<path d="M94.134 89.1427L94.7044 88.8147L94.6715 101.869L94.1011 102.197L94.134 89.1427Z" fill="#AFC0D1"/>
<path d="M39.9529 78.2422L39.92 88.1259L29.4326 82.1016L29.4655 72.207L39.9529 78.2422Z" fill="#49596E"/>
<path d="M54.5757 86.6609L54.5428 96.5446L44.0664 90.5204L44.0883 80.6257L54.5757 86.6609Z" fill="#49596E"/>
<path d="M29.2129 82.2331L29.6627 81.9707L32.9866 83.8731L32.5258 84.1355L29.2129 82.2331Z" fill="#E3EAF0"/>
<path d="M32.8879 84.3432L33.3377 84.0808L36.5629 85.9285L36.1022 86.2019L32.8879 84.3432Z" fill="#E3EAF0"/>
<path d="M29.2348 72.3493L29.6956 72.0759L29.6627 81.9706L29.2129 82.2329L29.2348 72.3493Z" fill="#AFC0D1"/>
<path d="M36.4531 86.3984L36.9139 86.136L40.15 87.9946L39.6893 88.268L36.4531 86.3984Z" fill="#E3EAF0"/>
<path d="M32.9099 74.4592L33.3706 74.1968L33.3377 84.0805L32.8879 84.3429L32.9099 74.4592Z" fill="#AFC0D1"/>
<path d="M36.486 76.5148L36.9468 76.2524L36.9139 86.1361L36.4531 86.3985L36.486 76.5148Z" fill="#AFC0D1"/>
<path d="M28.8621 71.7697L29.3118 71.4963L40.5561 77.9688L40.0954 78.2312L28.8621 71.7697Z" fill="#E3EAF0"/>
<path d="M28.8623 71.7698L28.8293 82.3751L40.0627 88.8366L40.0956 78.2313L28.8623 71.7698ZM32.5263 84.1353L29.2133 82.222L29.2462 72.3383L32.5592 74.2516L32.5263 84.1353ZM36.1025 86.2017L32.8883 84.354L32.9212 74.4703L36.1354 76.318L36.1025 86.2017ZM39.6897 88.2681L36.4535 86.4094L36.4864 76.5258L39.7226 78.3844L39.6897 88.2681Z" fill="#D1DCE6"/>
<path d="M40.0954 78.2314L40.5562 77.969L40.5232 88.5633L40.0625 88.8367L40.0954 78.2314Z" fill="#AFC0D1"/>
<path d="M43.8362 90.6515L44.2969 90.3782L47.6099 92.2915L47.1491 92.5539L43.8362 90.6515Z" fill="#E3EAF0"/>
<path d="M47.511 92.7614L47.9717 92.499L51.186 94.3468L50.7252 94.6091L47.511 92.7614Z" fill="#E3EAF0"/>
<path d="M43.8581 80.757L44.3189 80.4946L44.2969 90.3783L43.8362 90.6517L43.8581 80.757Z" fill="#AFC0D1"/>
<path d="M51.0874 94.8171L51.5481 94.5547L54.7733 96.4134L54.3126 96.6757L51.0874 94.8171Z" fill="#E3EAF0"/>
<path d="M47.5329 82.8778L47.9937 82.6045L47.9717 92.4991L47.511 92.7615L47.5329 82.8778Z" fill="#AFC0D1"/>
<path d="M51.1093 84.9333L51.5701 84.6709L51.5481 94.5546L51.0874 94.817L51.1093 84.9333Z" fill="#AFC0D1"/>
<path d="M43.4851 80.1884L43.9459 79.915L55.1902 86.3875L54.7294 86.6499L43.4851 80.1884Z" fill="#E3EAF0"/>
<path d="M43.4853 80.1885L43.4524 90.7938L54.6857 97.2553L54.7186 86.6501L43.4853 80.1885ZM47.1493 92.554L43.8363 90.6407L43.8693 80.757L47.1822 82.6703L47.1493 92.554ZM50.7255 94.6095L47.5113 92.7618L47.5442 82.8781L50.7585 84.7258L50.7255 94.6095ZM54.3127 96.6759L51.0766 94.8172L51.1095 84.9335L54.3457 86.7922L54.3127 96.6759Z" fill="#D1DCE6"/>
<path d="M54.7294 86.6499L55.1902 86.3875L55.1573 96.9818L54.6965 97.2551L54.7294 86.6499Z" fill="#AFC0D1"/>
</svg>
