<svg width="154" height="123" viewBox="0 0 154 123" fill="none" xmlns="http://www.w3.org/2000/svg">
<path d="M43.5803 82.8178L95.2779 52.9256L76.0638 41.8384L24.3662 71.7305L43.5803 82.8178Z" fill="#949494"/>
<path d="M62.4733 92.8789L48.3696 101.03L50.4234 102.217L64.5271 94.0743L62.4733 92.8789Z" fill="#949494"/>
<path d="M6.38749 74.6514L33.6242 90.3917L31.5624 91.579L4.32568 75.8387L6.38749 74.6514Z" fill="#949494"/>
<path d="M2.99393 76.3037L22.6493 87.6637L20.5955 88.851L0.932129 77.4911L2.99393 76.3037Z" fill="#949494"/>
<path d="M35.3732 77.2339L21.2695 85.3848L23.3233 86.5722L37.427 78.4212L35.3732 77.2339Z" fill="#949494"/>
<path d="M6.68446 66.4037C7.71135 65.8101 8.94683 65.8101 9.97372 66.4037C9.62875 66.2032 9.07519 66.5241 8.73824 67.1178C8.40129 67.7034 8.40129 68.3452 8.73824 68.5458C8.3692 68.3372 8.0483 68.4736 7.92796 68.5458C7.80762 68.618 7.51881 68.8266 7.51881 69.2437C7.51079 69.6368 6.94118 69.6449 6.26728 69.6449C5.65757 69.6449 5.15215 69.3882 5.04785 69.0592C5.11203 67.9441 5.71373 66.9573 6.69248 66.3957L6.68446 66.4037Z" fill="url(#paint0_linear_72_2134)"/>
<path d="M62.9305 98.4146C62.5936 99.0002 62.5856 99.6501 62.9145 99.8587L8.72994 68.5545C8.39299 68.346 8.40101 67.7122 8.72994 67.1185C9.07491 66.5248 9.62847 66.2039 9.96542 66.4045L64.0778 97.6605C63.7328 97.5562 63.2434 97.8691 62.9305 98.4146Z" fill="url(#paint1_linear_72_2134)"/>
<path d="M5.03167 69.2435C5.03167 69.1793 5.03167 69.1151 5.03167 69.0509C5.12794 69.3879 5.63336 69.6446 6.2511 69.6446C6.93302 69.6446 7.4946 69.3077 7.50263 68.9146V75.6455H7.4946C7.48658 76.0386 6.93302 76.3515 6.2511 76.3595C5.56918 76.3595 5.01562 76.0386 5.01562 75.6455V69.2355L5.03167 69.2435Z" fill="url(#paint2_linear_72_2134)"/>
<path d="M17.1779 75.5577C17.4908 75.0122 17.9801 74.6993 18.3251 74.8036L18.4053 74.8518C20.4591 76.0391 21.7507 78.2132 21.8149 80.5799C21.8149 80.5157 21.8149 80.4515 21.8069 80.3793V80.7805C21.7989 81.1736 21.2453 81.4864 20.5634 81.4945C19.9376 81.4945 19.4162 81.2297 19.3359 80.8767V80.7805C19.3359 79.2321 18.5096 77.78 17.1618 77.0098C16.8249 76.8093 16.8409 76.1594 17.1779 75.5658V75.5577Z" fill="url(#paint3_linear_72_2134)"/>
<path d="M3.16255 71.458C2.54481 71.458 2.03939 71.2013 1.94312 70.8643C1.94312 70.9285 1.94312 70.9927 1.94312 71.0569V71.0408C1.94312 69.8535 2.56085 68.7865 3.58775 68.1928C4.61464 67.5991 5.85012 67.5991 6.87701 68.1928C6.53203 67.9922 5.97848 68.3132 5.64153 68.9068C5.30458 69.4925 5.30458 70.1343 5.64153 70.3348C5.27249 70.1263 4.95159 70.2626 4.83125 70.3348C4.71893 70.399 4.45419 70.5916 4.43012 70.9767V70.8162C4.34187 71.1692 3.80436 71.45 3.17859 71.45L3.16255 71.458Z" fill="url(#paint4_linear_72_2134)"/>
<path d="M17.1782 75.5578C16.8413 76.1434 16.8333 76.7933 17.1622 77.0019L5.63375 70.3431C5.2968 70.1345 5.30482 69.5007 5.63375 68.9071C5.97872 68.3134 6.53228 67.9925 6.86922 68.1931L18.3175 74.8037C17.9725 74.6994 17.4831 75.0123 17.1702 75.5578H17.1782Z" fill="url(#paint5_linear_72_2134)"/>
<path d="M1.93499 71.0491C1.93499 70.9849 1.93499 70.9207 1.93499 70.8565C2.03126 71.1935 2.53668 71.4502 3.15442 71.4502C3.78019 71.4502 4.3177 71.1694 4.40595 70.8164V77.4511H4.39792C4.3899 77.8442 3.83634 78.1571 3.15442 78.1651C2.4725 78.1651 1.91895 77.8442 1.91895 77.4511V71.041L1.93499 71.0491Z" fill="url(#paint6_linear_72_2134)"/>
<path d="M20.5553 81.4867C21.2372 81.4867 21.7907 81.1658 21.7988 80.7727V80.3716C21.8068 80.508 21.8148 80.6363 21.8068 80.7727V87.4876H21.7907C21.7827 87.8807 21.2292 88.1936 20.5472 88.2016C19.8653 88.2016 19.3118 87.8807 19.3118 87.4876V80.869C19.4 81.222 19.9215 81.4867 20.5472 81.4867H20.5553Z" fill="url(#paint7_linear_72_2134)"/>
<path d="M88.6433 56.0631L94.6522 52.5733L94.6683 50.688L88.6594 54.1778L88.6433 56.0631Z" fill="#B1B0BE"/>
<path d="M71.9883 46.4437L88.6432 56.0628L88.6592 54.1775L72.0043 44.5664L71.9883 46.4437Z" fill="#D3D2DE"/>
<path d="M88.6595 54.1773L94.6684 50.6874L78.0136 41.0684L72.0046 44.5662L88.6595 54.1773Z" fill="#D0D4D3"/>
<path d="M42.9624 82.4574L48.9633 78.9676L48.9793 77.0903L42.9704 80.5802L42.9624 82.4574Z" fill="#B1B0BE"/>
<path d="M26.3076 72.8467L42.9625 82.4578L42.9705 80.5805L26.3156 70.9614L26.3076 72.8467Z" fill="#D3D2DE"/>
<path d="M42.9706 80.5801L48.9795 77.0903L32.3246 67.4712L26.3157 70.961L42.9706 80.5801Z" fill="#E6E9E8"/>
<path d="M37.6838 76.4157L41.7914 74.025L41.8315 65.0718L37.724 67.4545L37.6838 76.4157Z" fill="#B1B0BE"/>
<path d="M43.9092 71.0327L48.0167 68.642L48.0328 63.7241L43.9252 66.1068L43.9092 71.0327Z" fill="#B1B0BE"/>
<path d="M43.9254 66.1073L48.033 63.7245L31.3781 54.1055L27.2705 56.4962L43.9254 66.1073Z" fill="#E6E9E8"/>
<path d="M27.2702 56.4956L27.2542 61.4135L33.4396 64.9835L33.3995 73.9447L37.6835 76.4157L37.7236 67.4545L43.909 71.0325L43.9251 66.1067L27.2702 56.4956Z" fill="#D3D2DE"/>
<path d="M44.1021 65.1278L46.2922 63.8522L46.3002 58.4771L44.1181 59.7526L44.1021 65.1278Z" fill="#0646C4"/>
<path d="M44.118 59.7531L46.3002 58.4775L44.7759 57.603L42.5938 58.8706L44.118 59.7531Z" fill="#1983EF"/>
<path d="M42.5937 58.8706L42.5776 64.2457L44.1019 65.1282L44.118 59.7531L42.5937 58.8706Z" fill="#1270E5"/>
<path d="M31.0249 57.5714L33.207 56.3038L33.2231 50.9287L31.0409 52.1963L31.0249 57.5714Z" fill="#063DAB"/>
<path d="M31.0411 52.1959L33.2233 50.9284L31.699 50.0459L29.5168 51.3215L31.0411 52.1959Z" fill="#1983EF"/>
<path d="M29.5168 51.3213L29.5007 56.6964L31.025 57.5709L31.0411 52.1957L29.5168 51.3213Z" fill="#1270E5"/>
<path d="M43.4919 58.5501L47.5995 56.1594C45.5698 57.3387 42.7699 57.1702 39.6732 55.3812C36.1111 53.3194 32.9422 49.5648 30.9125 45.3931L26.8049 47.7838C28.8346 51.9555 32.0036 55.7101 35.5656 57.7719C38.6623 59.561 41.4702 59.7294 43.4919 58.5501Z" fill="#1983EF"/>
<mask id="mask0_72_2134" style="mask-type:luminance" maskUnits="userSpaceOnUse" x="26" y="45" width="22" height="15">
<path d="M43.4919 58.5501L47.5995 56.1594C45.5698 57.3387 42.7699 57.1702 39.6732 55.3812C36.1111 53.3194 32.9422 49.5648 30.9125 45.3931L26.8049 47.7838C28.8346 51.9555 32.0036 55.7101 35.5656 57.7719C38.6623 59.561 41.4702 59.7294 43.4919 58.5501Z" fill="white"/>
</mask>
<g mask="url(#mask0_72_2134)">
<path d="M43.4921 58.5497L47.5997 56.159C45.7866 57.21 43.3477 57.1939 40.6281 55.8862L36.5205 58.277C39.2321 59.5766 41.671 59.6007 43.4921 58.5497Z" fill="#1983EF"/>
<path d="M36.5204 58.2773L40.628 55.8866C40.3151 55.7342 39.9942 55.5657 39.6653 55.3812C36.737 53.6884 34.0735 50.8484 32.0919 47.5752L27.9844 49.9659C29.966 53.2391 32.6295 56.0791 35.5577 57.7719C35.8786 57.9564 36.1995 58.1249 36.5204 58.2773Z" fill="#1983EF"/>
<path d="M27.9923 49.9733L32.0998 47.5825C31.6666 46.8765 31.2735 46.1465 30.9125 45.4004L26.8049 47.7911C27.1659 48.5372 27.5671 49.2673 27.9923 49.9733Z" fill="#1983EF"/>
</g>
<path d="M44.198 59.7618L48.3056 57.3711C48.5944 57.2026 48.8671 57.0101 49.1319 56.7935L45.0243 59.1842C44.7676 59.4008 44.4868 59.5933 44.198 59.7618Z" fill="#1983EF"/>
<mask id="mask1_72_2134" style="mask-type:luminance" maskUnits="userSpaceOnUse" x="44" y="56" width="6" height="4">
<path d="M44.1978 59.7618L48.3053 57.3711C48.5941 57.2026 48.8669 57.0101 49.1316 56.7935L45.0241 59.1842C44.7674 59.4008 44.4866 59.5933 44.1978 59.7618Z" fill="white"/>
</mask>
<g mask="url(#mask1_72_2134)">
<path d="M44.1978 59.7618L48.3053 57.3711C48.5941 57.2026 48.8669 57.0101 49.1316 56.7935L45.0241 59.1842C44.7674 59.4008 44.4866 59.5933 44.1978 59.7618Z" fill="#063DAB"/>
</g>
<path d="M45.0243 59.1845L49.1318 56.7937C48.9233 56.3685 48.6986 55.9514 48.466 55.5342L44.3584 57.9249C44.5911 58.3421 44.8157 58.7593 45.0243 59.1845Z" fill="#1983EF"/>
<mask id="mask2_72_2134" style="mask-type:luminance" maskUnits="userSpaceOnUse" x="44" y="55" width="6" height="5">
<path d="M45.0243 59.1845L49.1318 56.7937C48.9233 56.3685 48.6986 55.9514 48.466 55.5342L44.3584 57.9249C44.5911 58.3421 44.8157 58.7593 45.0243 59.1845Z" fill="white"/>
</mask>
<g mask="url(#mask2_72_2134)">
<path d="M45.0243 59.1845L49.1318 56.7937C48.9233 56.3685 48.6986 55.9514 48.466 55.5342L44.3584 57.9249C44.5911 58.3421 44.8157 58.7593 45.0243 59.1845Z" fill="#074CD4"/>
</g>
<path d="M26.7972 47.792C26.5645 47.9364 26.3399 48.1049 26.1233 48.2814C28.3375 52.7339 31.7391 56.7211 35.5579 58.9273C39.3766 61.1336 42.7862 61.0694 45.0165 59.1921C44.8079 58.7669 44.5833 58.3497 44.3506 57.9325C42.3048 59.7456 39.1199 59.8419 35.5579 57.7801C31.9958 55.7183 28.8269 51.9637 26.7972 47.792Z" fill="#1270E5"/>
<path d="M37.2422 61.2375C37.3946 61.1492 37.6433 61.2936 37.7957 61.5584C37.9481 61.8231 37.9481 62.1119 37.7957 62.2002C38.7183 61.6627 39.2879 60.6759 39.2879 59.6089C39.2879 59.7854 39.0392 59.9298 38.7263 59.9298C38.4215 59.9298 38.1728 59.7854 38.1728 59.6089C38.1728 60.2748 37.8118 60.9005 37.2341 61.2375H37.2422Z" fill="url(#paint8_linear_72_2134)"/>
<path d="M38.1731 57.1543V59.6092C38.1731 59.7857 38.4218 59.9301 38.7267 59.9301C39.0315 59.9301 39.2802 59.7857 39.2882 59.6092V57.1543H38.1731Z" fill="url(#paint9_linear_72_2134)"/>
<path d="M22.7778 69.637C22.9303 69.5568 23.179 69.6932 23.3314 69.9579C23.4838 70.2227 23.4838 70.5115 23.3314 70.6077L37.7881 62.2001C37.9405 62.1038 37.9325 61.823 37.7881 61.5583C37.6357 61.2935 37.387 61.1491 37.2345 61.2374L22.7778 69.637Z" fill="url(#paint10_linear_72_2134)"/>
<path d="M35.3816 60.1626C35.534 60.0743 35.7827 60.2187 35.9351 60.4835C36.0875 60.7482 36.0875 61.029 35.9431 61.1253C36.8577 60.5878 37.4273 59.601 37.4273 58.542C37.4273 58.7185 37.1786 58.8629 36.8657 58.8629C36.5609 58.8629 36.3122 58.7185 36.3122 58.542C36.3122 59.2079 35.9512 59.8256 35.3735 60.1626H35.3816Z" fill="url(#paint11_linear_72_2134)"/>
<path d="M36.312 56.0786V58.5335C36.312 58.71 36.5607 58.8544 36.8656 58.8544C37.1704 58.8544 37.4272 58.71 37.4272 58.5335V56.0786H36.312Z" fill="url(#paint12_linear_72_2134)"/>
<path d="M16.167 73.0471C16.167 73.2316 16.4157 73.368 16.7206 73.368C17.0254 73.368 17.2821 73.2236 17.2821 73.0471C17.2821 72.3813 17.6431 71.7555 18.2128 71.4185C18.3652 71.3303 18.3652 71.0415 18.2128 70.7687C18.0603 70.504 17.8196 70.3596 17.6592 70.4478C16.7366 70.9853 16.167 71.9721 16.167 73.0391V73.0471Z" fill="url(#paint13_linear_72_2134)"/>
<path d="M17.6755 70.4479C17.828 70.3677 18.0767 70.504 18.2291 70.7688C18.3815 71.0335 18.3815 71.3223 18.2291 71.4186L35.9269 61.1337C35.9269 61.1337 35.9349 61.1337 35.943 61.1337C35.943 61.1337 35.943 61.1337 35.951 61.1337C36.0954 61.0374 36.0954 60.7566 35.943 60.4919C35.7905 60.2271 35.5418 60.0827 35.3894 60.1709L17.6836 70.4639L17.6755 70.4479Z" fill="url(#paint14_linear_72_2134)"/>
<path d="M83.3726 50.0139L87.4801 47.6231L87.5202 38.6699L83.4127 41.0607L83.3726 50.0139Z" fill="#B1B0BE"/>
<path d="M89.5979 44.6304L93.7055 42.2396L93.7215 37.3218L89.6139 39.7125L89.5979 44.6304Z" fill="#B1B0BE"/>
<path d="M89.6141 39.7132L93.7217 37.3225L77.0668 27.7114L72.9592 30.0941L89.6141 39.7132Z" fill="#C6C9C8"/>
<path d="M72.9589 30.0938L72.9429 35.0116L79.1283 38.5897L79.0882 47.5429L83.3722 50.0138L83.4123 41.0606L89.5978 44.6307L89.6138 39.7128L72.9589 30.0938Z" fill="#D3D2DE"/>
<path d="M89.7908 38.7262L91.9729 37.4586L91.989 32.0835L89.8068 33.3511L89.7908 38.7262Z" fill="#0646C4"/>
<path d="M89.8065 33.3507L91.9887 32.0832L90.4644 31.2007L88.2822 32.4683L89.8065 33.3507Z" fill="#1983EF"/>
<path d="M88.2822 32.4692L88.2661 37.8444L89.7904 38.7269L89.8064 33.3517L88.2822 32.4692Z" fill="#1270E5"/>
<path d="M76.7134 31.1761L78.8955 29.9005L78.9116 24.5254L76.7294 25.801L76.7134 31.1761Z" fill="#063DAB"/>
<path d="M76.7301 25.8014L78.9122 24.5258L77.388 23.6514L75.2058 24.9189L76.7301 25.8014Z" fill="#1983EF"/>
<path d="M75.2055 24.9194L75.1895 30.2946L76.7137 31.1771L76.7298 25.8019L75.2055 24.9194Z" fill="#1270E5"/>
<path d="M89.1806 32.1473L93.2882 29.7565C91.2585 30.9359 88.4586 30.7674 85.3619 28.9784C81.7999 26.9166 78.6309 23.162 76.6012 18.9902L72.4937 21.381C74.5234 25.5527 77.6923 29.3073 81.2543 31.3691C84.351 33.1581 87.1589 33.3266 89.1806 32.1473Z" fill="#1983EF"/>
<mask id="mask3_72_2134" style="mask-type:luminance" maskUnits="userSpaceOnUse" x="72" y="18" width="22" height="15">
<path d="M89.1806 32.1473L93.2882 29.7565C91.2585 30.9359 88.4586 30.7674 85.3619 28.9784C81.7999 26.9166 78.6309 23.162 76.6012 18.9902L72.4937 21.381C74.5234 25.5527 77.6923 29.3073 81.2543 31.3691C84.351 33.1581 87.1589 33.3266 89.1806 32.1473Z" fill="white"/>
</mask>
<g mask="url(#mask3_72_2134)">
<path d="M89.1809 32.1474L93.2884 29.7567C91.4753 30.8076 89.0365 30.7916 86.3168 29.4839L82.2092 31.8746C84.9209 33.1743 87.3597 33.1983 89.1809 32.1474Z" fill="#1983EF"/>
<path d="M82.2091 31.8823L86.3167 29.4916C86.0038 29.3391 85.6829 29.1707 85.354 28.9862C82.4257 27.2934 79.7622 24.4534 77.7807 21.1802L73.6731 23.5709C75.6547 26.8441 78.3182 29.6841 81.2464 31.3769C81.5673 31.5614 81.8882 31.7299 82.2091 31.8823Z" fill="#1983EF"/>
<path d="M73.681 23.5714L77.7886 21.1807C77.3553 20.4747 76.9622 19.7446 76.6012 18.9985L72.4937 21.3893C72.8547 22.1354 73.2558 22.8654 73.681 23.5714Z" fill="#1983EF"/>
</g>
<path d="M89.887 33.3673L93.9945 30.9766C94.2833 30.8081 94.5561 30.6155 94.8209 30.3989L90.7133 32.7897C90.4566 33.0063 90.1758 33.1988 89.887 33.3673Z" fill="#1983EF"/>
<mask id="mask4_72_2134" style="mask-type:luminance" maskUnits="userSpaceOnUse" x="89" y="30" width="6" height="4">
<path d="M89.887 33.3673L93.9945 30.9766C94.2833 30.8081 94.5561 30.6155 94.8209 30.3989L90.7133 32.7897C90.4566 33.0063 90.1758 33.1988 89.887 33.3673Z" fill="white"/>
</mask>
<g mask="url(#mask4_72_2134)">
<path d="M89.887 33.3673L93.9945 30.9766C94.2833 30.8081 94.5561 30.6155 94.8209 30.3989L90.7133 32.7897C90.4566 33.0063 90.1758 33.1988 89.887 33.3673Z" fill="#063DAB"/>
</g>
<path d="M90.7049 32.7811L94.8125 30.3904C94.6039 29.9652 94.3793 29.548 94.1466 29.1309L90.0391 31.5216C90.2717 31.9388 90.4964 32.3559 90.7049 32.7811Z" fill="#1983EF"/>
<mask id="mask5_72_2134" style="mask-type:luminance" maskUnits="userSpaceOnUse" x="90" y="29" width="5" height="4">
<path d="M90.7049 32.7811L94.8125 30.3904C94.6039 29.9652 94.3793 29.548 94.1466 29.1309L90.0391 31.5216C90.2717 31.9388 90.4964 32.3559 90.7049 32.7811Z" fill="white"/>
</mask>
<g mask="url(#mask5_72_2134)">
<path d="M90.7049 32.7811L94.8125 30.3904C94.6039 29.9652 94.3793 29.548 94.1466 29.1309L90.0391 31.5216C90.2717 31.9388 90.4964 32.3559 90.7049 32.7811Z" fill="#074CD4"/>
</g>
<path d="M72.4859 21.3889C72.2533 21.5333 72.0286 21.6937 71.812 21.8783C74.0262 26.3308 77.4278 30.318 81.2466 32.5162C85.0653 34.7224 88.4749 34.6582 90.7052 32.781C90.4966 32.3558 90.272 31.9386 90.0393 31.5214C87.9936 33.3345 84.8086 33.4308 81.2466 31.369C77.6845 29.3072 74.5156 25.5526 72.4859 21.3809V21.3889Z" fill="#1270E5"/>
<path d="M95.0535 29.3638C95.222 29.2595 95.4466 29.1312 95.6071 29.0189C95.8397 28.8504 96.1446 28.6258 96.3612 28.4332C96.5056 28.3049 96.7062 28.1284 96.8426 27.9839C97.0512 27.7673 97.3239 27.4785 97.5004 27.2379C97.6208 27.0694 97.7892 26.8608 97.9016 26.6843C98.078 26.4035 98.3187 26.0264 98.4631 25.7216C98.5594 25.521 98.6958 25.2563 98.776 25.0557C98.9284 24.6626 99.129 24.1492 99.2253 23.74C99.3376 23.2506 99.498 22.5847 99.5542 22.0873C99.6023 21.6381 99.6424 21.0284 99.6585 20.5711C99.6665 20.2823 99.6585 19.8892 99.6425 19.6003C99.6184 19.2474 99.5863 18.774 99.5462 18.4291C99.5141 18.1322 99.4579 17.7311 99.4018 17.4342C99.3376 17.1053 99.2654 16.6641 99.1771 16.3352C99.0247 15.7335 98.7921 14.9312 98.5995 14.3375C98.5995 14.3295 98.3107 13.4631 97.8053 12.3239C97.3239 11.2488 96.8345 10.4065 96.8265 10.3984C96.4976 9.84488 96.0403 9.11483 95.6873 8.57731C95.5108 8.31257 95.2461 7.9676 95.0616 7.71087C94.8048 7.34986 94.0828 6.48342 93.6977 6.07427C93.4731 5.84161 93.1843 5.51269 92.9436 5.29608C92.4943 4.8789 91.8766 4.33336 91.4032 3.93224C91.1545 3.72365 90.8016 3.47495 90.5368 3.29043C90.2961 3.12195 89.9592 2.90534 89.7105 2.74489C89.7105 2.74489 88.8601 2.2154 87.9616 1.83032C87.7209 1.72602 87.4 1.59766 87.1593 1.50941C86.8384 1.3971 86.4132 1.26071 86.0843 1.18049C85.6511 1.07619 85.0574 0.947834 84.6081 0.907721C84.215 0.87563 83.6855 0.851562 83.2924 0.851562C83.0838 0.851562 82.8111 0.867608 82.6105 0.891675C82.2896 0.931788 81.8644 1.00399 81.5435 1.06015C81.351 1.10026 81.0942 1.17247 80.9097 1.22862C80.6289 1.31687 80.2599 1.45326 79.9871 1.5736C79.7224 1.68591 79.3854 1.87043 79.1367 2.00682C81.2226 0.795404 84.1348 0.995969 87.3278 2.90534C93.5292 6.61178 98.4551 15.3404 98.3267 22.4002C98.2626 25.8259 97.0271 28.2327 95.0535 29.3799V29.3638Z" fill="url(#paint15_linear_72_2134)"/>
<path d="M25.7707 41.5819C25.6744 46.7806 29.3006 53.2067 33.8655 55.9263C38.4303 58.654 42.2009 56.6484 42.2972 51.4497C42.3935 46.2511 38.7673 39.825 34.2024 37.1053C29.6376 34.3777 25.8669 36.3833 25.7707 41.5819Z" fill="url(#paint16_linear_72_2134)"/>
<path d="M45.0811 58.4136L95.0538 29.3718C97.0194 28.2246 98.2629 25.8178 98.327 22.3922C98.4554 15.3323 93.5295 6.6037 87.3281 2.89727C84.1351 0.987889 81.2309 0.787325 79.137 1.99874L29.1643 31.0405C31.2502 29.8291 34.1624 30.0297 37.3554 31.939C43.5568 35.6455 48.4827 44.374 48.3543 51.4339C48.2902 54.8596 47.0547 57.2663 45.0811 58.4136Z" fill="url(#paint17_linear_72_2134)"/>
<path d="M24.5752 39.833C24.5752 40.4186 24.5992 41.1888 24.6634 41.7745C24.7517 42.5687 24.856 43.1784 25.0325 43.9726C25.1368 44.4299 25.3213 45.16 25.6342 46.0746C26.0112 47.1817 26.4364 48.0963 26.4364 48.1043C26.7092 48.6899 27.1023 49.4521 27.4072 50.0137C27.5596 50.2944 27.7922 50.6635 27.9527 50.9363C28.2495 51.4417 28.4982 51.7867 29.1641 52.7012C29.1641 52.7012 29.7578 53.5035 30.5279 54.3378C30.7445 54.5785 31.0494 54.8914 31.2821 55.116C31.4987 55.3326 31.8035 55.6134 32.0362 55.822C32.1084 55.8942 32.8064 56.512 33.6888 57.1217C33.9295 57.2901 34.2665 57.5068 34.5152 57.6672C34.796 57.8357 35.181 58.0443 35.4699 58.2047C35.9352 58.4614 36.593 58.7262 37.0824 58.9107C37.4595 59.0551 37.9729 59.2156 38.366 59.2958C38.7992 59.384 39.3769 59.5044 39.8181 59.5365C40.0267 59.5525 40.3075 59.5766 40.5161 59.5766C40.861 59.5766 41.3183 59.5766 41.6633 59.5285C41.8639 59.5044 42.1286 59.4723 42.3211 59.4322C42.618 59.376 43.0111 59.2878 43.2999 59.1915C43.701 59.0631 44.3107 58.8626 45.0889 58.4133C47.0625 57.2661 48.298 54.8593 48.3621 51.4337C48.4905 44.3738 43.5646 35.6452 37.3632 31.9388C34.1702 30.0294 31.266 29.8288 29.1721 31.0402C28.8432 31.2488 28.41 31.5376 28.1051 31.7783C27.8484 31.9789 27.5355 32.2757 27.3109 32.5084C26.4685 33.3828 25.9631 34.3215 25.915 34.4177C25.7545 34.7306 25.5379 35.1558 25.4095 35.4848C25.2571 35.8859 25.0726 36.4234 24.9683 36.8325C24.8479 37.3299 24.7276 38.0038 24.6634 38.5093C24.6153 38.9024 24.5912 39.4399 24.5752 39.841C24.5672 40.4748 24.9603 41.1086 25.7625 41.5899C25.8588 36.3913 29.6294 34.3857 34.1943 37.1133C38.7591 39.841 42.3773 46.2671 42.289 51.4577C42.1928 56.6564 38.4222 58.662 33.8573 55.9343C29.2925 53.2066 25.6743 46.7806 25.7625 41.5899C24.9522 41.1086 24.5591 40.4748 24.5752 39.841V39.833Z" fill="url(#paint18_linear_72_2134)"/>
<path d="M16.167 73.0469V74.8359C16.167 75.0124 16.4157 75.1568 16.7206 75.1568C17.0254 75.1568 17.2741 75.0124 17.2821 74.8359V73.0469C17.2821 73.2234 17.0334 73.3678 16.7206 73.3678C16.4157 73.3678 16.167 73.2234 16.167 73.0469Z" fill="url(#paint19_linear_72_2134)"/>
<path d="M21.2776 72.2365V74.0256C21.2776 74.2021 21.5263 74.3465 21.8311 74.3465C22.136 74.3465 22.3847 74.2021 22.3927 74.0256V72.2285C22.3927 72.405 22.144 72.5494 21.8311 72.5494C21.5263 72.5494 21.2776 72.405 21.2776 72.2285V72.2365Z" fill="url(#paint20_linear_72_2134)"/>
<path d="M21.2776 72.2361C21.2776 72.4206 21.5263 72.557 21.8311 72.557C22.136 72.557 22.3927 72.4126 22.3927 72.2361C22.3927 71.5702 22.7537 70.9445 23.3233 70.6075C23.4758 70.5193 23.4758 70.2304 23.3233 69.9577C23.1709 69.6929 22.9302 69.5485 22.7698 69.6368C21.8472 70.1743 21.2776 71.1611 21.2776 72.2281V72.2361Z" fill="url(#paint21_linear_72_2134)"/>
<path d="M70.6809 98.4623L122.37 68.5701L103.164 57.4829L51.4668 87.3751L70.6809 98.4623Z" fill="#949494"/>
<path d="M33.4798 90.2954L60.7245 106.044L58.6627 107.231L31.426 91.4908L33.4798 90.2954Z" fill="#949494"/>
<path d="M30.0945 91.9478L49.7499 103.308L47.6881 104.503L28.0327 93.1431L30.0945 91.9478Z" fill="#949494"/>
<path d="M44.2782 91.2018C44.5911 90.6563 45.0805 90.3434 45.4254 90.4477L45.5057 90.4958C47.5595 91.6831 48.8511 93.8653 48.9153 96.2239C48.9153 96.1598 48.9153 96.0956 48.9072 96.0234V96.4245C48.8992 96.8176 48.3457 97.1305 47.6637 97.1385C47.038 97.1385 46.5165 96.8738 46.4363 96.5208V96.4245C46.4363 94.8761 45.61 93.424 44.2622 92.6539C43.9252 92.4533 43.9413 91.8035 44.2782 91.2098V91.2018Z" fill="url(#paint22_linear_72_2134)"/>
<path d="M30.2631 87.1025C29.6454 87.1025 29.14 86.8458 29.0437 86.5089C29.0437 86.573 29.0437 86.6372 29.0437 86.7014V86.6854C29.0437 85.498 29.6614 84.431 30.6883 83.8373C31.7152 83.2437 32.9507 83.2437 33.9776 83.8373C33.6326 83.6368 33.0791 83.9577 32.7421 84.5514C32.4052 85.137 32.3971 85.7788 32.7421 85.9794C32.3731 85.7708 32.0522 85.9072 31.9318 85.9794C31.8115 86.0436 31.5548 86.2361 31.5307 86.6212V86.4607C31.4425 86.8137 30.8969 87.0945 30.2792 87.0945L30.2631 87.1025Z" fill="url(#paint23_linear_72_2134)"/>
<path d="M44.2783 91.2013C43.9414 91.787 43.9334 92.4368 44.2623 92.6454L32.7338 85.9867C32.3969 85.7781 32.4049 85.1443 32.7338 84.5506C33.0788 83.957 33.6324 83.636 33.9693 83.8366L45.4176 90.4472C45.0726 90.3429 44.5832 90.6558 44.2703 91.2013H44.2783Z" fill="url(#paint24_linear_72_2134)"/>
<path d="M29.0356 86.7014C29.0356 86.6372 29.0356 86.573 29.0356 86.5089C29.1318 86.8458 29.6373 87.1025 30.255 87.1025C30.8808 87.1025 31.4183 86.8217 31.5065 86.4688V93.1034H31.4985C31.4905 93.4965 30.9369 93.8094 30.255 93.8174C29.5731 93.8174 29.0195 93.4965 29.0195 93.1034V86.6934L29.0356 86.7014Z" fill="url(#paint25_linear_72_2134)"/>
<path d="M47.6559 97.1308C48.3378 97.1308 48.8914 96.8099 48.8994 96.4168V96.0156C48.9074 96.152 48.9154 96.2804 48.9154 96.4168L48.8994 103.132C48.8914 103.525 48.3378 103.838 47.6559 103.846C46.974 103.846 46.4204 103.525 46.4204 103.132V96.513C46.5087 96.866 47.0301 97.1308 47.6559 97.1308Z" fill="url(#paint26_linear_72_2134)"/>
<path d="M115.744 71.7067L121.753 68.2168L121.769 66.3315L115.76 69.8214L115.744 71.7067Z" fill="#B1B0BE"/>
<path d="M99.0886 62.0877L115.744 71.7068L115.76 69.8215L99.1047 60.2104L99.0886 62.0877Z" fill="#D3D2DE"/>
<path d="M115.759 69.8211L121.768 66.3313L105.113 56.7202L99.1045 60.21L115.759 69.8211Z" fill="#D0D4D3"/>
<path d="M70.0549 98.109L76.0638 94.6192L76.0799 92.7339L70.071 96.2237L70.0549 98.109Z" fill="#B1B0BE"/>
<path d="M53.3999 88.4896L70.0548 98.1087L70.0708 96.2234L53.4159 86.6123L53.3999 88.4896Z" fill="#D3D2DE"/>
<path d="M70.0712 96.2237L76.0801 92.7338L59.4252 83.1147L53.4163 86.6126L70.0712 96.2237Z" fill="#E6E9E8"/>
<path d="M64.7844 92.0598L68.892 89.669L68.9321 80.7158L64.8245 83.1066L64.7844 92.0598Z" fill="#B1B0BE"/>
<path d="M71.01 86.6767L75.1176 84.286L75.1336 79.3682L71.0261 81.7589L71.01 86.6767Z" fill="#B1B0BE"/>
<path d="M71.026 81.7586L75.1335 79.3679L58.4787 69.7568L54.3711 72.1395L71.026 81.7586Z" fill="#E6E9E8"/>
<path d="M54.371 72.1401L54.355 77.058L60.5404 80.6361L60.5003 89.5893L64.7843 92.0602L64.8245 83.107L71.0099 86.6771L71.0259 81.7592L54.371 72.1401Z" fill="#D3D2DE"/>
<path d="M71.2021 80.7721L73.3923 79.5045L73.4003 74.1294L71.2182 75.397L71.2021 80.7721Z" fill="#0646C4"/>
<path d="M71.2184 75.3966L73.4005 74.1291L71.8762 73.2466L69.6941 74.5141L71.2184 75.3966Z" fill="#1983EF"/>
<path d="M69.694 74.5146L69.678 79.8898L71.2023 80.7723L71.2183 75.3971L69.694 74.5146Z" fill="#1270E5"/>
<path d="M58.125 73.223L60.3071 71.9474L60.3232 66.5723L58.141 67.8479L58.125 73.223Z" fill="#063DAB"/>
<path d="M58.1415 67.8473L60.3236 66.5717L58.7993 65.6973L56.6172 66.9648L58.1415 67.8473Z" fill="#1983EF"/>
<path d="M56.6171 66.9653L56.6011 72.3405L58.1254 73.223L58.1414 67.8478L56.6171 66.9653Z" fill="#1270E5"/>
<path d="M70.5925 74.1946L74.7001 71.8039C72.6703 72.9832 69.8705 72.8148 66.7737 71.0257C63.2117 68.9639 60.0428 65.2093 58.0131 61.0376L53.9055 63.4283C55.9352 67.6001 59.1042 71.3546 62.6662 73.4165C65.7629 75.2055 68.5708 75.374 70.5925 74.1946Z" fill="#1983EF"/>
<mask id="mask6_72_2134" style="mask-type:luminance" maskUnits="userSpaceOnUse" x="53" y="61" width="22" height="14">
<path d="M70.5925 74.1946L74.7001 71.8039C72.6703 72.9832 69.8705 72.8148 66.7737 71.0257C63.2117 68.9639 60.0428 65.2093 58.0131 61.0376L53.9055 63.4283C55.9352 67.6001 59.1042 71.3546 62.6662 73.4165C65.7629 75.2055 68.5708 75.374 70.5925 74.1946Z" fill="white"/>
</mask>
<g mask="url(#mask6_72_2134)">
<path d="M70.5925 74.1938L74.7 71.803C72.8869 72.854 70.4481 72.838 67.7284 71.5303L63.6208 73.921C66.3325 75.2207 68.7714 75.2447 70.5925 74.1938Z" fill="#1983EF"/>
<path d="M63.6205 73.9292L67.7281 71.5385C67.4152 71.386 67.0943 71.2175 66.7654 71.033C63.8371 69.3403 61.1736 66.5003 59.192 63.2271L55.0845 65.6178C57.0661 68.891 59.7296 71.731 62.6578 73.4238C62.9787 73.6083 63.2996 73.7768 63.6205 73.9292Z" fill="#1983EF"/>
<path d="M55.0929 65.6178L59.2004 63.2271C58.7672 62.5211 58.3741 61.791 58.0131 61.0449L53.9055 63.4356C54.2665 64.1818 54.6677 64.9118 55.0929 65.6178Z" fill="#1983EF"/>
</g>
<path d="M71.2983 75.4137L75.4059 73.0229C75.6947 72.8545 75.9675 72.6619 76.2322 72.4453L72.1247 74.836C71.8679 75.0526 71.5872 75.2452 71.2983 75.4137Z" fill="#1983EF"/>
<mask id="mask7_72_2134" style="mask-type:luminance" maskUnits="userSpaceOnUse" x="71" y="72" width="6" height="4">
<path d="M71.2983 75.4137L75.4059 73.0229C75.6947 72.8545 75.9675 72.6619 76.2322 72.4453L72.1247 74.836C71.8679 75.0526 71.5872 75.2452 71.2983 75.4137Z" fill="white"/>
</mask>
<g mask="url(#mask7_72_2134)">
<path d="M71.2983 75.4137L75.4059 73.0229C75.6947 72.8545 75.9675 72.6619 76.2322 72.4453L72.1247 74.836C71.8679 75.0526 71.5872 75.2452 71.2983 75.4137Z" fill="#063DAB"/>
</g>
<path d="M72.1244 74.828L76.2319 72.4373C76.0233 72.0121 75.7987 71.5949 75.5661 71.1777L71.4585 73.5685C71.6912 73.9856 71.9158 74.4028 72.1244 74.828Z" fill="#1983EF"/>
<mask id="mask8_72_2134" style="mask-type:luminance" maskUnits="userSpaceOnUse" x="71" y="71" width="6" height="4">
<path d="M72.1244 74.828L76.2319 72.4373C76.0233 72.0121 75.7987 71.5949 75.5661 71.1777L71.4585 73.5685C71.6912 73.9856 71.9158 74.4028 72.1244 74.828Z" fill="white"/>
</mask>
<g mask="url(#mask8_72_2134)">
<path d="M72.1244 74.828L76.2319 72.4373C76.0233 72.0121 75.7987 71.5949 75.5661 71.1777L71.4585 73.5685C71.6912 73.9856 71.9158 74.4028 72.1244 74.828Z" fill="#074CD4"/>
</g>
<path d="M53.8973 63.436C53.6646 63.5804 53.44 63.7409 53.2234 63.9254C55.4376 68.3779 58.8392 72.3652 62.658 74.5714C66.4767 76.7776 69.8863 76.7134 72.1166 74.8361C71.908 74.4109 71.6834 73.9938 71.4507 73.5766C69.4049 75.3897 66.22 75.486 62.658 73.4242C59.0959 71.3624 55.927 67.6078 53.8973 63.436Z" fill="#1270E5"/>
<path d="M64.3347 76.881C64.4871 76.7928 64.7358 76.9372 64.8882 77.2019C65.0407 77.4667 65.0407 77.7555 64.8882 77.8437C65.8108 77.3062 66.3804 76.3194 66.3804 75.2524C66.3804 75.4289 66.1237 75.5733 65.8189 75.5733C65.514 75.5733 65.2653 75.4289 65.2653 75.2524C65.2653 75.9183 64.9043 76.5441 64.3267 76.881H64.3347Z" fill="url(#paint27_linear_72_2134)"/>
<path d="M65.2732 72.7974V75.2523C65.2732 75.4288 65.5219 75.5732 65.8268 75.5732C66.1316 75.5732 66.3803 75.4288 66.3883 75.2523V72.7974H65.2732Z" fill="url(#paint28_linear_72_2134)"/>
<path d="M49.8782 85.281C50.0306 85.2008 50.2793 85.3372 50.4317 85.602C50.5842 85.8667 50.5842 86.1555 50.4317 86.2518L64.8884 77.8441C65.0409 77.7478 65.0328 77.467 64.8884 77.2023C64.736 76.9376 64.4873 76.7931 64.3349 76.8814L49.8782 85.281Z" fill="url(#paint29_linear_72_2134)"/>
<path d="M62.4814 75.8061C62.6338 75.7179 62.8825 75.8623 63.035 76.127C63.1874 76.3918 63.1874 76.6725 63.043 76.7688C63.9576 76.2313 64.5272 75.2445 64.5272 74.1855C64.5272 74.362 64.2785 74.5065 63.9656 74.5065C63.6607 74.5065 63.412 74.362 63.412 74.1855C63.412 74.8514 63.051 75.4692 62.4734 75.8061H62.4814Z" fill="url(#paint30_linear_72_2134)"/>
<path d="M63.4124 71.7227V74.1776C63.4124 74.3541 63.6611 74.4985 63.9659 74.4985C64.2708 74.4985 64.5275 74.3541 64.5275 74.1776V71.7227H63.4124Z" fill="url(#paint31_linear_72_2134)"/>
<path d="M43.2676 88.6902C43.2676 88.8747 43.5163 89.0111 43.8211 89.0111C44.126 89.0111 44.3827 88.8667 44.3827 88.6902C44.3827 88.0243 44.7437 87.3986 45.3133 87.0616C45.4658 86.9734 45.4658 86.6845 45.3133 86.4118C45.1609 86.147 44.9202 86.0026 44.7598 86.0909C43.8372 86.6284 43.2676 87.6152 43.2676 88.6822V88.6902Z" fill="url(#paint32_linear_72_2134)"/>
<path d="M44.7678 86.0992C44.9203 86.019 45.169 86.1554 45.3214 86.4202C45.4738 86.6849 45.4738 86.9737 45.3214 87.07L63.0192 76.785C63.0192 76.785 63.0272 76.785 63.0353 76.785C63.0353 76.785 63.0353 76.785 63.0433 76.785C63.1877 76.6888 63.1877 76.408 63.0353 76.1432C62.8828 75.8785 62.6341 75.7341 62.4817 75.8223L44.7758 86.1153L44.7678 86.0992Z" fill="url(#paint33_linear_72_2134)"/>
<path d="M110.473 65.6579L114.58 63.2752L114.621 54.314L110.513 56.7047L110.473 65.6579Z" fill="#B1B0BE"/>
<path d="M116.698 60.2739L120.806 57.8912L120.822 52.9653L116.714 55.3561L116.698 60.2739Z" fill="#B1B0BE"/>
<path d="M116.714 55.3563L120.822 52.9656L104.167 43.3545L100.06 45.7372L116.714 55.3563Z" fill="#C6C9C8"/>
<path d="M100.059 45.7373L100.043 50.6632L106.229 54.2332L106.189 63.1864L110.473 65.6574L110.513 56.7042L116.698 60.2742L116.714 55.3564L100.059 45.7373Z" fill="#D3D2DE"/>
<path d="M116.891 54.3698L119.073 53.1022L119.089 47.7271L116.907 48.9946L116.891 54.3698Z" fill="#0646C4"/>
<path d="M116.907 48.9948L119.089 47.7272L117.565 46.8447L115.383 48.1123L116.907 48.9948Z" fill="#1983EF"/>
<path d="M115.383 48.1123L115.367 53.4874L116.891 54.3699L116.907 48.9948L115.383 48.1123Z" fill="#1270E5"/>
<path d="M103.814 46.8204L105.996 45.5529L106.012 40.1777L103.83 41.4453L103.814 46.8204Z" fill="#063DAB"/>
<path d="M103.83 41.445L106.012 40.1774L104.488 39.2949L102.306 40.5625L103.83 41.445Z" fill="#1983EF"/>
<path d="M102.306 40.563L102.29 45.9381L103.814 46.8206L103.83 41.4455L102.306 40.563Z" fill="#1270E5"/>
<path d="M116.281 47.7996L120.389 45.4089C118.359 46.5882 115.559 46.4197 112.462 44.6307C108.9 42.5689 105.731 38.8143 103.702 34.6426L99.594 37.0333C101.624 41.2051 104.793 44.9596 108.355 47.0214C111.451 48.8105 114.259 48.9789 116.281 47.7996Z" fill="#1983EF"/>
<mask id="mask9_72_2134" style="mask-type:luminance" maskUnits="userSpaceOnUse" x="99" y="34" width="22" height="15">
<path d="M116.281 47.7996L120.389 45.4089C118.359 46.5882 115.559 46.4197 112.462 44.6307C108.9 42.5689 105.731 38.8143 103.702 34.6426L99.594 37.0333C101.624 41.2051 104.793 44.9596 108.355 47.0214C111.451 48.8105 114.259 48.9789 116.281 47.7996Z" fill="white"/>
</mask>
<g mask="url(#mask9_72_2134)">
<path d="M116.281 47.7997L120.389 45.409C118.576 46.46 116.137 46.4439 113.417 45.1362L109.31 47.527C112.021 48.8266 114.46 48.8507 116.281 47.7997Z" fill="#1983EF"/>
<path d="M109.31 47.5268L113.417 45.1361C113.104 44.9837 112.783 44.8152 112.455 44.6307C109.526 42.9379 106.863 40.0979 104.881 36.8247L100.774 39.2154C102.755 42.4887 105.419 45.3286 108.347 47.0214C108.668 47.2059 108.989 47.3744 109.31 47.5268Z" fill="#1983EF"/>
<path d="M100.781 39.2155L104.889 36.8247C104.456 36.1187 104.063 35.3887 103.702 34.6426L99.594 37.0333C99.955 37.7794 100.356 38.5095 100.781 39.2155Z" fill="#1983EF"/>
</g>
<path d="M116.987 49.0113L121.095 46.6206C121.383 46.4521 121.656 46.2596 121.921 46.043L117.813 48.4337C117.557 48.6503 117.276 48.8429 116.987 49.0113Z" fill="#1983EF"/>
<mask id="mask10_72_2134" style="mask-type:luminance" maskUnits="userSpaceOnUse" x="116" y="46" width="6" height="4">
<path d="M116.987 49.0113L121.095 46.6206C121.383 46.4521 121.656 46.2596 121.921 46.043L117.813 48.4337C117.557 48.6503 117.276 48.8429 116.987 49.0113Z" fill="white"/>
</mask>
<g mask="url(#mask10_72_2134)">
<path d="M116.987 49.0113L121.095 46.6206C121.383 46.4521 121.656 46.2596 121.921 46.043L117.813 48.4337C117.557 48.6503 117.276 48.8429 116.987 49.0113Z" fill="#063DAB"/>
</g>
<path d="M117.806 48.4335L121.913 46.0427C121.704 45.6176 121.48 45.2004 121.247 44.7832L117.14 47.1739C117.372 47.5911 117.597 48.0083 117.806 48.4335Z" fill="#1983EF"/>
<mask id="mask11_72_2134" style="mask-type:luminance" maskUnits="userSpaceOnUse" x="117" y="44" width="5" height="5">
<path d="M117.806 48.4335L121.913 46.0427C121.704 45.6176 121.48 45.2004 121.247 44.7832L117.14 47.1739C117.372 47.5911 117.597 48.0083 117.806 48.4335Z" fill="white"/>
</mask>
<g mask="url(#mask11_72_2134)">
<path d="M117.806 48.4335L121.913 46.0427C121.704 45.6176 121.48 45.2004 121.247 44.7832L117.14 47.1739C117.372 47.5911 117.597 48.0083 117.806 48.4335Z" fill="#074CD4"/>
</g>
<path d="M99.586 37.0332C99.3534 37.1776 99.1287 37.3461 98.9121 37.5226C101.126 41.9751 104.528 45.9623 108.347 48.1686C112.165 50.3748 115.575 50.3106 117.805 48.4333C117.597 48.0081 117.372 47.5909 117.139 47.1738C115.094 48.9869 111.909 49.0831 108.347 47.0213C104.785 44.9595 101.616 41.2049 99.586 37.0332Z" fill="#1270E5"/>
<path d="M122.154 45.0157C122.322 44.9114 122.547 44.783 122.707 44.6707C122.94 44.5022 123.245 44.2776 123.461 44.0851C123.606 43.9567 123.806 43.7802 123.943 43.6358C124.151 43.4192 124.424 43.1304 124.601 42.8897C124.721 42.7212 124.889 42.5126 125.002 42.3361C125.178 42.0554 125.419 41.6783 125.563 41.3734C125.66 41.1729 125.796 40.9081 125.876 40.7076C126.029 40.3145 126.229 39.801 126.325 39.3919C126.438 38.9025 126.598 38.2366 126.654 37.7392C126.702 37.2899 126.743 36.6802 126.759 36.2229C126.767 35.9341 126.759 35.541 126.743 35.2522C126.718 34.8992 126.686 34.4259 126.646 34.0809C126.614 33.7841 126.558 33.3829 126.502 33.0861C126.438 32.7572 126.365 32.3159 126.277 31.987C126.125 31.3853 125.892 30.5831 125.7 29.9894C125.7 29.9814 125.411 29.1149 124.905 27.9757C124.424 26.9007 123.935 26.0583 123.927 26.0503C123.598 25.4967 123.14 24.7667 122.787 24.2292C122.611 23.9644 122.346 23.6195 122.162 23.3627C121.905 23.0017 121.183 22.1353 120.798 21.7261C120.573 21.4935 120.284 21.1645 120.044 20.9479C119.594 20.5308 118.977 19.9852 118.503 19.5841C118.255 19.3755 117.902 19.1268 117.637 18.9423C117.396 18.7738 117.059 18.5572 116.811 18.3967C116.811 18.3967 115.96 17.8673 115.062 17.4822C114.821 17.3779 114.5 17.2495 114.259 17.1613C113.939 17.049 113.513 16.9126 113.184 16.8323C112.751 16.7281 112.157 16.5997 111.708 16.5596C111.315 16.5275 110.786 16.5034 110.393 16.5034C110.184 16.5034 109.911 16.5195 109.711 16.5435C109.39 16.5836 108.964 16.6558 108.644 16.72C108.451 16.7601 108.194 16.8323 108.01 16.8885C107.729 16.9768 107.36 17.1131 107.087 17.2335C106.822 17.3458 106.486 17.5303 106.237 17.6667C108.323 16.4553 111.235 16.6558 114.428 18.5652C120.629 22.2717 125.555 31.0002 125.427 38.0601C125.363 41.4858 124.127 43.8925 122.154 45.0398V45.0157Z" fill="url(#paint34_linear_72_2134)"/>
<path d="M52.8708 57.2343C52.7745 62.4329 56.4007 68.859 60.9656 71.5787C65.5304 74.3064 69.301 72.3007 69.3973 67.1021C69.4936 61.9034 65.8674 55.4773 61.3025 52.7577C56.7377 50.03 52.967 52.0357 52.8708 57.2343Z" fill="url(#paint35_linear_72_2134)"/>
<path d="M72.1807 74.0571L122.153 45.0154C124.119 43.8681 125.362 41.4614 125.427 38.0357C125.555 30.9758 120.629 22.2473 114.428 18.5408C111.235 16.6314 108.33 16.4309 106.237 17.6423L56.2639 46.6841C58.3498 45.4726 61.262 45.6732 64.455 47.5826C70.6564 51.289 75.5823 60.0176 75.4539 67.0775C75.3898 70.5031 74.1543 72.9099 72.1807 74.0571Z" fill="url(#paint36_linear_72_2134)"/>
<path d="M51.675 55.4772C51.675 56.0629 51.6991 56.8411 51.7633 57.4187C51.8515 58.2129 51.9478 58.8227 52.1323 59.6169C52.2366 60.0742 52.4211 60.8042 52.734 61.7188C53.1111 62.8259 53.5363 63.7405 53.5363 63.7485C53.809 64.3342 54.2021 65.0963 54.507 65.6579C54.6594 65.9387 54.8921 66.3077 55.0525 66.5805C55.3494 67.0859 55.5981 67.4309 56.264 68.3455C56.264 68.3455 56.8576 69.1477 57.6278 69.9821C57.8444 70.2228 58.1493 70.5356 58.3819 70.7603C58.5985 70.9769 58.9034 71.2577 59.136 71.4663C59.2082 71.5385 59.9062 72.1562 60.7887 72.7659C61.0294 72.9344 61.3663 73.151 61.615 73.3115C61.8958 73.4799 62.2809 73.6885 62.5697 73.849C63.035 74.1057 63.6929 74.3704 64.1822 74.555C64.5593 74.6994 65.0728 74.8598 65.4659 74.94C65.8991 75.0283 66.4767 75.1486 66.9179 75.1727C67.1265 75.1887 67.4073 75.2128 67.6159 75.2128C67.9609 75.2128 68.4182 75.2128 68.7631 75.1647C68.9637 75.1406 69.2285 75.1085 69.421 75.0684C69.7178 75.0122 70.1109 74.924 70.3997 74.8277C70.8009 74.6994 71.4106 74.4988 72.1888 74.0495C74.1543 72.9023 75.3978 70.4955 75.462 67.0699C75.5904 60.01 70.6645 51.2814 64.463 47.575C61.27 45.6656 58.3659 45.4651 56.272 46.6765C55.9431 46.8851 55.5098 47.1739 55.205 47.4145C54.9482 47.6151 54.6354 47.9119 54.4107 48.1446C53.5684 49.0191 53.0629 49.9577 53.0148 50.054C52.8544 50.3669 52.6377 50.7921 52.5094 51.121C52.357 51.5221 52.1724 52.0596 52.0681 52.4688C51.9478 52.9662 51.8275 53.6321 51.7633 54.1455C51.7151 54.5386 51.6911 55.0761 51.675 55.4772C51.667 56.111 52.0601 56.7448 52.8624 57.2262C52.9586 52.0275 56.7293 50.0219 61.2941 52.7496C65.859 55.4772 69.4772 61.9033 69.3889 67.094C69.2926 72.2926 65.522 74.2982 60.9572 71.5706C56.3923 68.8429 52.7741 62.4168 52.8624 57.2262C52.0521 56.7448 51.659 56.111 51.675 55.4772Z" fill="url(#paint37_linear_72_2134)"/>
<path d="M43.2676 88.6987V90.4878C43.2676 90.6643 43.5163 90.8087 43.8211 90.8087C44.126 90.8087 44.3747 90.6643 44.3827 90.4878V88.6987C44.3827 88.8752 44.134 89.0196 43.8211 89.0196C43.5083 89.0196 43.2676 88.8752 43.2676 88.6987Z" fill="url(#paint38_linear_72_2134)"/>
<path d="M48.3779 87.8806V89.6696C48.3779 89.8461 48.6266 89.9905 48.9315 89.9905C49.2363 89.9905 49.485 89.8461 49.4931 89.6696V87.8726C49.4931 88.0491 49.2444 88.1935 48.9315 88.1935C48.6266 88.1935 48.3779 88.0491 48.3779 87.8726V87.8806Z" fill="url(#paint39_linear_72_2134)"/>
<path d="M48.3779 87.8801C48.3779 88.0646 48.6266 88.201 48.9315 88.201C49.2363 88.201 49.4931 88.0566 49.4931 87.8801C49.4931 87.2143 49.8541 86.5885 50.4237 86.2515C50.5761 86.1633 50.5761 85.8745 50.4237 85.6017C50.2713 85.337 50.0306 85.1926 49.8701 85.2808C48.9475 85.8183 48.3779 86.8051 48.3779 87.8721V87.8801Z" fill="url(#paint40_linear_72_2134)"/>
<path d="M97.781 114.114L149.471 84.2222L130.264 73.127L78.5669 103.019L97.781 114.114Z" fill="#949494"/>
<path d="M60.5801 105.948L87.8249 121.688L85.763 122.875L58.5264 107.135L60.5801 105.948Z" fill="#949494"/>
<path d="M57.1949 107.6L76.8502 118.96L74.7884 120.147L55.1331 108.787L57.1949 107.6Z" fill="#949494"/>
<path d="M89.5741 108.53L75.4624 116.673L77.5242 117.869L91.6279 109.718L89.5741 108.53Z" fill="#949494"/>
<path d="M82.5538 109.726C82.8667 109.18 83.3561 108.867 83.7011 108.972C85.6987 110.127 86.9743 112.213 87.1027 114.499V114.9C87.0946 115.293 86.5411 115.606 85.8592 115.614C85.2334 115.614 84.7119 115.35 84.6317 114.997V114.9C84.6317 113.352 83.8054 111.908 82.4656 111.13L82.5378 111.17C82.2009 110.969 82.2169 110.319 82.5538 109.726Z" fill="url(#paint41_linear_72_2134)"/>
<path d="M85.8593 115.606C86.5412 115.606 87.0947 115.285 87.1028 114.892V114.491C87.1108 114.628 87.1188 114.756 87.1188 114.892L87.1028 121.607C87.0947 122 86.5412 122.313 85.8593 122.321C85.1773 122.321 84.6238 122 84.6238 121.607V114.989C84.712 115.342 85.2335 115.606 85.8593 115.606Z" fill="url(#paint42_linear_72_2134)"/>
<path d="M82.5541 109.726C82.2171 110.311 82.2091 110.961 82.538 111.17L62.9228 99.8499C62.5859 99.6414 62.5939 99.0076 62.9228 98.4139C63.2678 97.8202 63.8213 97.4993 64.1583 97.6999L83.6853 108.98C83.3403 108.875 82.8509 109.188 82.538 109.734L82.5541 109.726Z" fill="url(#paint43_linear_72_2134)"/>
<path d="M71.3705 106.846C71.6834 106.3 72.1728 105.987 72.5177 106.092L72.598 106.14C74.6517 107.327 75.9434 109.501 76.0076 111.868C76.0076 111.804 76.0076 111.74 75.9995 111.667V112.069C75.9915 112.462 75.4379 112.775 74.756 112.783C74.1303 112.783 73.6088 112.518 73.5286 112.165V112.069C73.5286 110.52 72.7022 109.068 71.3544 108.298C71.0175 108.097 71.0335 107.448 71.3705 106.854V106.846Z" fill="url(#paint44_linear_72_2134)"/>
<path d="M57.3632 102.747C56.7455 102.747 56.2401 102.49 56.1438 102.153C56.1438 102.217 56.1438 102.281 56.1438 102.345V102.329C56.1438 101.142 56.7615 100.075 57.7884 99.4814C58.8153 98.8877 60.0508 98.8877 61.0777 99.4814C60.7327 99.2808 60.1792 99.6017 59.8422 100.195C59.5053 100.781 59.4972 101.423 59.8422 101.623C59.4732 101.415 59.1523 101.551 59.0319 101.623C58.9116 101.688 58.6549 101.88 58.6308 102.265V102.105C58.5426 102.458 57.997 102.739 57.3793 102.739L57.3632 102.747Z" fill="url(#paint45_linear_72_2134)"/>
<path d="M71.3706 106.845C71.0337 107.431 71.0257 108.081 71.3546 108.289L59.8261 101.631C59.4892 101.422 59.4972 100.788 59.8261 100.195C60.1711 99.601 60.7247 99.2801 61.0616 99.4807L72.5098 106.091C72.1649 105.987 71.6755 106.3 71.3626 106.845H71.3706Z" fill="url(#paint46_linear_72_2134)"/>
<path d="M56.1357 102.345C56.1357 102.281 56.1357 102.217 56.1357 102.152C56.2319 102.489 56.7374 102.746 57.3551 102.746C57.9809 102.746 58.5184 102.465 58.6066 102.112V108.747H58.5986C58.5906 109.14 58.037 109.453 57.3551 109.461C56.6732 109.461 56.1196 109.14 56.1196 108.747V102.337L56.1357 102.345Z" fill="url(#paint47_linear_72_2134)"/>
<path d="M74.756 112.783C75.4379 112.783 75.9915 112.462 75.9995 112.069V111.667C76.0075 111.804 76.0155 111.932 76.0155 112.069L75.9995 118.784C75.9915 119.177 75.4379 119.49 74.756 119.498C74.0741 119.498 73.5205 119.177 73.5205 118.784V112.165C73.6088 112.518 74.1302 112.783 74.756 112.783Z" fill="url(#paint48_linear_72_2134)"/>
<path d="M142.844 87.3505L148.853 83.8607L148.869 81.9834L142.86 85.4732L142.844 87.3505Z" fill="#B1B0BE"/>
<path d="M126.189 77.7398L142.844 87.3509L142.86 85.4736L126.205 75.8545L126.189 77.7398Z" fill="#D3D2DE"/>
<path d="M142.86 85.4732L148.869 81.9833L132.214 72.3643L126.205 75.8541L142.86 85.4732Z" fill="#D0D4D3"/>
<path d="M97.1555 113.753L103.164 110.263L103.18 108.378L97.1716 111.868L97.1555 113.753Z" fill="#B1B0BE"/>
<path d="M80.5002 104.134L97.1551 113.753L97.1712 111.868L80.5163 102.257L80.5002 104.134Z" fill="#D3D2DE"/>
<path d="M97.1715 111.867L103.18 108.378L86.5255 98.7666L80.5166 102.256L97.1715 111.867Z" fill="#E6E9E8"/>
<path d="M91.8845 107.704L95.9921 105.321L96.0322 96.3599L91.9246 98.7506L91.8845 107.704Z" fill="#B1B0BE"/>
<path d="M98.1099 102.321L102.217 99.9381L102.233 95.0122L98.1259 97.4029L98.1099 102.321Z" fill="#B1B0BE"/>
<path d="M98.1261 97.4032L102.234 95.0124L85.5788 85.4014L81.4712 87.7841L98.1261 97.4032Z" fill="#E6E9E8"/>
<path d="M81.4714 87.7842L81.4553 92.71L87.6407 96.2801L87.6006 105.233L91.8847 107.704L91.9248 98.7511L98.1102 102.321L98.1263 97.4033L81.4714 87.7842Z" fill="#D3D2DE"/>
<path d="M98.3022 96.4166L100.484 95.1491L100.5 89.7739L98.3183 91.0415L98.3022 96.4166Z" fill="#0646C4"/>
<path d="M98.319 91.0412L100.501 89.7736L98.9768 88.8911L96.7947 90.1587L98.319 91.0412Z" fill="#1983EF"/>
<path d="M96.7944 90.1592L96.7783 95.5343L98.3026 96.4168L98.3187 91.0417L96.7944 90.1592Z" fill="#1270E5"/>
<path d="M85.2256 88.8673L87.4077 87.5997L87.4238 82.2246L85.2416 83.4922L85.2256 88.8673Z" fill="#063DAB"/>
<path d="M85.2418 83.4914L87.424 82.2238L85.8997 81.3413L83.7175 82.6089L85.2418 83.4914Z" fill="#1983EF"/>
<path d="M83.7177 82.6094L83.7017 87.9845L85.226 88.867L85.242 83.4919L83.7177 82.6094Z" fill="#1270E5"/>
<path d="M97.6926 89.8377L101.8 87.447C99.7705 88.6263 96.9706 88.4578 93.8738 86.6688C90.3118 84.607 87.1429 80.8524 85.1132 76.6807L81.0056 79.0714C83.0353 83.2431 86.2043 86.9977 89.7663 89.0595C92.863 90.8486 95.6709 91.017 97.6926 89.8377Z" fill="#1983EF"/>
<mask id="mask12_72_2134" style="mask-type:luminance" maskUnits="userSpaceOnUse" x="81" y="76" width="21" height="15">
<path d="M97.6926 89.8377L101.8 87.447C99.7705 88.6263 96.9706 88.4578 93.8738 86.6688C90.3118 84.607 87.1429 80.8524 85.1132 76.6807L81.0056 79.0714C83.0353 83.2431 86.2043 86.9977 89.7663 89.0595C92.863 90.8486 95.6709 91.017 97.6926 89.8377Z" fill="white"/>
</mask>
<g mask="url(#mask12_72_2134)">
<path d="M97.6928 89.8373L101.8 87.4466C99.9873 88.4976 97.5484 88.4815 94.8288 87.1738L90.7212 89.5646C93.4328 90.8642 95.8717 90.8883 97.6928 89.8373Z" fill="#1983EF"/>
<path d="M90.7211 89.5727L94.8287 87.182C94.5158 87.0296 94.1949 86.8611 93.8659 86.6766C90.9377 84.9838 88.2742 82.1438 86.2926 78.8706L82.1851 81.2613C84.1666 84.5346 86.8301 87.3746 89.7584 89.0673C90.0793 89.2518 90.4002 89.4203 90.7211 89.5727Z" fill="#1983EF"/>
<path d="M82.193 81.2613L86.3005 78.8706C85.8673 78.1646 85.4742 77.4346 85.1132 76.6885L81.0056 79.0792C81.3666 79.8253 81.7678 80.5554 82.193 81.2613Z" fill="#1983EF"/>
</g>
<path d="M98.3989 91.0572L102.506 88.6665C102.795 88.498 103.068 88.3055 103.333 88.0889L99.2253 90.4796C98.9685 90.6962 98.6877 90.8887 98.3989 91.0572Z" fill="#1983EF"/>
<mask id="mask13_72_2134" style="mask-type:luminance" maskUnits="userSpaceOnUse" x="98" y="88" width="6" height="4">
<path d="M98.3989 91.0572L102.506 88.6665C102.795 88.498 103.068 88.3055 103.333 88.0889L99.2253 90.4796C98.9685 90.6962 98.6877 90.8887 98.3989 91.0572Z" fill="white"/>
</mask>
<g mask="url(#mask13_72_2134)">
<path d="M98.3989 91.0572L102.506 88.6665C102.795 88.498 103.068 88.3055 103.333 88.0889L99.2253 90.4796C98.9685 90.6962 98.6877 90.8887 98.3989 91.0572Z" fill="#063DAB"/>
</g>
<path d="M99.225 90.4794L103.333 88.0886C103.124 87.6635 102.899 87.2463 102.667 86.8291L98.5591 89.2198C98.7917 89.637 99.0164 90.0542 99.225 90.4794Z" fill="#1983EF"/>
<mask id="mask14_72_2134" style="mask-type:luminance" maskUnits="userSpaceOnUse" x="98" y="86" width="6" height="5">
<path d="M99.225 90.4794L103.333 88.0886C103.124 87.6635 102.899 87.2463 102.667 86.8291L98.5591 89.2198C98.7917 89.637 99.0164 90.0542 99.225 90.4794Z" fill="white"/>
</mask>
<g mask="url(#mask14_72_2134)">
<path d="M99.225 90.4794L103.333 88.0886C103.124 87.6635 102.899 87.2463 102.667 86.8291L98.5591 89.2198C98.7917 89.637 99.0164 90.0542 99.225 90.4794Z" fill="#074CD4"/>
</g>
<path d="M80.9974 79.0793C80.7647 79.2237 80.5401 79.3922 80.3235 79.5687C82.5377 84.0212 85.9393 88.0085 89.7581 90.2066C93.5768 92.4129 96.9864 92.3487 99.2167 90.4714C99.0081 90.0462 98.7835 89.629 98.5508 89.2118C96.505 91.025 93.3201 91.1212 89.7581 89.0594C86.196 86.9976 83.0271 83.243 80.9974 79.0713V79.0793Z" fill="#1270E5"/>
<path d="M91.435 92.5251C91.5874 92.4368 91.8362 92.5812 91.9886 92.846C92.141 93.1107 92.141 93.3995 91.9886 93.4878C92.9112 92.9503 93.4808 91.9635 93.4808 90.8965C93.4808 91.073 93.2321 91.2174 92.9192 91.2174C92.6143 91.2174 92.3656 91.073 92.3656 90.8965C92.3656 91.5624 92.0046 92.1881 91.427 92.5251H91.435Z" fill="url(#paint49_linear_72_2134)"/>
<path d="M92.3738 88.4419V90.8968C92.3738 91.0733 92.6225 91.2177 92.9273 91.2177C93.2322 91.2177 93.4809 91.0733 93.4889 90.8968V88.4419H92.3738Z" fill="url(#paint50_linear_72_2134)"/>
<path d="M76.9783 100.933C77.1307 100.853 77.3794 100.99 77.5318 101.254C77.6843 101.519 77.6843 101.808 77.5318 101.904L91.9885 93.4965C92.141 93.4002 92.1329 93.1194 91.9885 92.8546C91.8361 92.5899 91.5874 92.4455 91.435 92.5337L76.9783 100.933Z" fill="url(#paint51_linear_72_2134)"/>
<path d="M89.5818 91.4501C89.7342 91.3619 89.9829 91.5063 90.1353 91.7711C90.2877 92.0358 90.2877 92.3166 90.1433 92.4129C91.0579 91.8754 91.6275 90.8886 91.6275 89.8296C91.6275 90.0061 91.3788 90.1505 91.0659 90.1505C90.7611 90.1505 90.5124 90.0061 90.5124 89.8296C90.5124 90.4955 90.1514 91.1132 89.5737 91.4501H89.5818Z" fill="url(#paint52_linear_72_2134)"/>
<path d="M90.5127 87.3672V89.8221C90.5127 89.9986 90.7614 90.143 91.0662 90.143C91.3711 90.143 91.6278 89.9986 91.6278 89.8221V87.3672H90.5127Z" fill="url(#paint53_linear_72_2134)"/>
<path d="M70.3677 104.335C70.3677 104.519 70.6164 104.656 70.9212 104.656C71.2261 104.656 71.4828 104.511 71.4828 104.335C71.4828 103.669 71.8438 103.043 72.4134 102.706C72.5659 102.618 72.5659 102.329 72.4134 102.056C72.261 101.792 72.0203 101.647 71.8599 101.735C70.9373 102.273 70.3677 103.26 70.3677 104.327V104.335Z" fill="url(#paint54_linear_72_2134)"/>
<path d="M71.8679 101.743C72.0203 101.663 72.2691 101.799 72.4215 102.064C72.5739 102.328 72.5739 102.617 72.4215 102.714L90.1193 92.4286C90.1193 92.4286 90.1273 92.4286 90.1354 92.4286C90.1354 92.4286 90.1353 92.4286 90.1434 92.4286C90.2878 92.3323 90.2878 92.0515 90.1354 91.7868C89.9829 91.522 89.7342 91.3776 89.5818 91.4659L71.8759 101.759L71.8679 101.743Z" fill="url(#paint55_linear_72_2134)"/>
<path d="M137.573 81.3093L141.681 78.9185L141.721 69.9653L137.613 72.348L137.573 81.3093Z" fill="#B1B0BE"/>
<path d="M143.798 75.9187L147.906 73.536L147.914 68.6182L143.806 71.0009L143.798 75.9187Z" fill="#B1B0BE"/>
<path d="M143.807 71.0003L147.914 68.6176L131.259 58.9985L127.152 61.3893L143.807 71.0003Z" fill="#C6C9C8"/>
<path d="M127.152 61.3896L127.144 66.3075L133.329 69.8775L133.289 78.8307L137.573 81.3097L137.613 72.3485L143.798 75.9185L143.806 71.0007L127.152 61.3896Z" fill="#D3D2DE"/>
<path d="M143.991 70.0138L146.173 68.7462L146.189 63.3711L144.007 64.6387L143.991 70.0138Z" fill="#0646C4"/>
<path d="M144.007 64.6388L146.19 63.3713L144.665 62.4888L142.483 63.7644L144.007 64.6388Z" fill="#1983EF"/>
<path d="M142.483 63.7646L142.467 69.1398L143.991 70.0142L144.007 64.6391L142.483 63.7646Z" fill="#1270E5"/>
<path d="M130.914 62.4645L133.096 61.1969L133.112 55.8218L130.93 57.0893L130.914 62.4645Z" fill="#063DAB"/>
<path d="M130.931 57.0895L133.113 55.8219L131.588 54.9395L129.406 56.215L130.931 57.0895Z" fill="#1983EF"/>
<path d="M129.406 56.2144L129.39 61.5895L130.914 62.464L130.93 57.0888L129.406 56.2144Z" fill="#1270E5"/>
<path d="M143.382 63.4432L147.49 61.0524C145.46 62.2318 142.66 62.0633 139.563 60.2743C136.001 58.2124 132.832 54.4579 130.803 50.2861L126.695 52.6769C128.725 56.8486 131.894 60.6032 135.456 62.665C138.552 64.454 141.36 64.6225 143.382 63.4432Z" fill="#1983EF"/>
<mask id="mask15_72_2134" style="mask-type:luminance" maskUnits="userSpaceOnUse" x="126" y="50" width="22" height="15">
<path d="M143.382 63.4432L147.489 61.0524C145.46 62.2318 142.66 62.0633 139.563 60.2743C136.001 58.2124 132.832 54.4579 130.802 50.2861L126.695 52.6769C128.725 56.8486 131.893 60.6032 135.455 62.665C138.552 64.454 141.36 64.6225 143.382 63.4432Z" fill="white"/>
</mask>
<g mask="url(#mask15_72_2134)">
<path d="M143.382 63.4433L147.489 61.0526C145.676 62.1035 143.237 62.0875 140.517 60.7798L136.41 63.1705C139.122 64.4702 141.56 64.4942 143.382 63.4433Z" fill="#1983EF"/>
<path d="M136.41 63.1709L140.517 60.7802C140.205 60.6277 139.884 60.4592 139.555 60.2747C136.626 58.582 133.963 55.742 131.981 52.4688L127.874 54.8595C129.855 58.1327 132.519 60.9727 135.447 62.6655C135.768 62.85 136.089 63.0184 136.41 63.1709Z" fill="#1983EF"/>
<path d="M127.874 54.859L131.981 52.4683C131.548 51.7623 131.155 51.0322 130.794 50.2861L126.687 52.6769C127.048 53.423 127.449 54.153 127.874 54.859Z" fill="#1983EF"/>
</g>
<path d="M144.088 64.6544L148.195 62.2637C148.484 62.0952 148.757 61.9026 149.022 61.686L144.914 64.0768C144.657 64.2934 144.376 64.4859 144.088 64.6544Z" fill="#1983EF"/>
<mask id="mask16_72_2134" style="mask-type:luminance" maskUnits="userSpaceOnUse" x="144" y="61" width="6" height="4">
<path d="M144.088 64.6544L148.195 62.2637C148.484 62.0952 148.757 61.9026 149.022 61.686L144.914 64.0768C144.657 64.2934 144.376 64.4859 144.088 64.6544Z" fill="white"/>
</mask>
<g mask="url(#mask16_72_2134)">
<path d="M144.088 64.6544L148.195 62.2637C148.484 62.0952 148.757 61.9026 149.022 61.686L144.914 64.0768C144.657 64.2934 144.376 64.4859 144.088 64.6544Z" fill="#063DAB"/>
</g>
<path d="M144.906 64.0775L149.013 61.6868C148.805 61.2616 148.58 60.8444 148.347 60.4272L144.24 62.818C144.472 63.2352 144.697 63.6523 144.906 64.0775Z" fill="#1983EF"/>
<mask id="mask17_72_2134" style="mask-type:luminance" maskUnits="userSpaceOnUse" x="144" y="60" width="6" height="5">
<path d="M144.906 64.0775L149.013 61.6868C148.805 61.2616 148.58 60.8444 148.347 60.4272L144.24 62.818C144.472 63.2352 144.697 63.6523 144.906 64.0775Z" fill="white"/>
</mask>
<g mask="url(#mask17_72_2134)">
<path d="M144.906 64.0775L149.013 61.6868C148.805 61.2616 148.58 60.8444 148.347 60.4272L144.24 62.818C144.472 63.2352 144.697 63.6523 144.906 64.0775Z" fill="#074CD4"/>
</g>
<path d="M126.687 52.6768C126.454 52.8212 126.229 52.9816 126.013 53.1661C128.227 57.6187 131.629 61.6059 135.447 63.8121C139.266 66.0183 142.676 65.9541 144.906 64.0769C144.697 63.6517 144.473 63.2345 144.24 62.8173C142.194 64.6304 139.009 64.7267 135.447 62.6649C131.885 60.6031 128.716 56.8485 126.687 52.6768Z" fill="#1270E5"/>
<path d="M149.254 60.6597C149.422 60.5554 149.647 60.4271 149.808 60.3148C150.04 60.1463 150.345 59.9217 150.562 59.7291C150.706 59.6008 150.907 59.4243 151.043 59.2799C151.252 59.0632 151.524 58.7744 151.701 58.5338C151.821 58.3653 151.99 58.1567 152.102 57.9802C152.278 57.6994 152.519 57.3143 152.664 57.0175C152.76 56.8169 152.896 56.5522 152.976 56.3516C153.129 55.9585 153.329 55.4451 153.426 55.0359C153.538 54.5465 153.698 53.8807 153.755 53.3833C153.803 52.934 153.843 52.3243 153.859 51.867C153.867 51.5782 153.859 51.1851 153.843 50.8963C153.819 50.5433 153.787 50.0699 153.747 49.725C153.715 49.4281 153.658 49.027 153.602 48.7302C153.538 48.4012 153.466 47.96 153.378 47.6311C153.225 47.0294 152.993 46.2271 152.8 45.6334C152.8 45.6254 152.511 44.759 152.006 43.6198C151.524 42.5447 151.035 41.7024 151.027 41.6943C150.698 41.1408 150.241 40.4107 149.888 39.8732C149.711 39.6085 149.447 39.2635 149.262 39.0068C149.005 38.6458 148.283 37.7793 147.898 37.3702C147.674 37.1375 147.385 36.8086 147.144 36.592C146.695 36.1748 146.077 35.6293 145.604 35.2281C145.355 35.0195 145.002 34.7708 144.737 34.5863C144.497 34.4179 144.16 34.2012 143.911 34.0408C143.911 34.0408 143.061 33.5113 142.162 33.1262C141.921 33.0219 141.6 32.8936 141.36 32.8053C141.039 32.693 140.614 32.5566 140.285 32.4764C139.852 32.3721 139.258 32.2437 138.809 32.2036C138.415 32.1715 137.886 32.1475 137.493 32.1475C137.284 32.1475 137.012 32.1635 136.811 32.1876C136.49 32.2277 136.065 32.2999 135.744 32.356C135.551 32.3962 135.295 32.4684 135.11 32.5245C134.829 32.6128 134.46 32.7492 134.188 32.8695C133.923 32.9818 133.586 33.1663 133.337 33.3027C135.423 32.0913 138.335 32.2919 141.528 34.2012C147.73 37.9077 152.656 46.6363 152.527 53.6961C152.463 57.1218 151.228 59.5286 149.254 60.6758V60.6597Z" fill="url(#paint56_linear_72_2134)"/>
<path d="M79.9711 72.8783C79.8748 78.077 83.5011 84.5031 88.0659 87.2227C92.6308 89.9504 96.4014 87.9447 96.4976 82.7461C96.5939 77.5475 92.9677 71.1214 88.4029 68.4017C83.838 65.674 80.0674 67.6797 79.9711 72.8783Z" fill="url(#paint57_linear_72_2134)"/>
<path d="M99.2813 89.7012L149.254 60.6594C151.22 59.5122 152.463 57.1054 152.527 53.6798C152.656 46.6199 147.73 37.8913 141.528 34.1849C138.335 32.2755 135.431 32.0749 133.337 33.2863L83.3645 62.3281C85.4504 61.1167 88.3626 61.3173 91.5556 63.2266C97.757 66.9331 102.683 75.6616 102.555 82.7215C102.49 86.1472 101.255 88.5539 99.2813 89.7012Z" fill="url(#paint58_linear_72_2134)"/>
<path d="M78.7756 71.1289C78.7756 71.7145 78.7997 72.4847 78.8639 73.0704C78.9521 73.8646 79.0564 74.4743 79.2329 75.2685C79.3372 75.7258 79.5217 76.4559 79.8346 77.3705C80.2117 78.4776 80.6369 79.3922 80.6369 79.4002C80.9096 79.9858 81.3027 80.748 81.6076 81.3096C81.76 81.5903 81.9927 81.9594 82.1531 82.2322C82.45 82.7376 82.6987 83.0826 83.3645 83.9971C83.3645 83.9971 83.9582 84.7994 84.7284 85.6337C84.945 85.8744 85.2498 86.1873 85.4825 86.4119C85.6991 86.6285 86.004 86.9093 86.2366 87.1179C86.3088 87.1901 87.0068 87.8078 87.8893 88.4176C88.13 88.586 88.4669 88.8027 88.7156 88.9631C88.9964 89.1316 89.3815 89.3402 89.6703 89.5006C90.1356 89.7573 90.7935 90.0221 91.2828 90.2066C91.6599 90.351 92.1733 90.5115 92.5664 90.5917C92.9997 90.6799 93.5773 90.8003 94.0185 90.8324C94.2271 90.8484 94.5079 90.8725 94.7165 90.8725C95.0615 90.8725 95.5188 90.8725 95.8637 90.8243C96.0643 90.8003 96.329 90.7682 96.5216 90.7281C96.8184 90.6639 97.2115 90.5837 97.5003 90.4874C97.9015 90.359 98.5112 90.1585 99.2894 89.7092C101.263 88.562 102.498 86.1552 102.563 82.7296C102.691 75.6697 97.7651 66.9411 91.5636 63.2347C88.3706 61.3253 85.4665 61.1247 83.3726 62.3361C83.0436 62.5447 82.6104 62.8335 82.3056 63.0742C82.0488 63.2748 81.736 63.5716 81.5113 63.8043C80.669 64.6787 80.1635 65.6174 80.1154 65.7136C79.9549 66.0265 79.7383 66.4517 79.61 66.7806C79.4575 67.1818 79.273 67.7193 79.1687 68.1284C79.0484 68.6258 78.928 69.2997 78.8639 69.8052C78.8157 70.1983 78.7917 70.7358 78.7756 71.1369C78.7676 71.7707 79.1607 72.4045 79.963 72.8858C80.0592 67.6872 83.8298 65.6816 88.3947 68.4092C92.9595 71.1369 96.5777 77.563 96.4895 82.7536C96.3932 87.9523 92.6226 89.9579 88.0578 87.2302C83.4929 84.5025 79.8747 78.0765 79.963 72.8858C79.1527 72.4045 78.7596 71.7707 78.7756 71.1369V71.1289Z" fill="url(#paint59_linear_72_2134)"/>
<path d="M70.3677 104.343V106.132C70.3677 106.309 70.6164 106.453 70.9212 106.453C71.2261 106.453 71.4748 106.309 71.4828 106.132V104.343C71.4828 104.52 71.2341 104.664 70.9212 104.664C70.6164 104.664 70.3677 104.52 70.3677 104.343Z" fill="url(#paint60_linear_72_2134)"/>
<path d="M75.4783 103.524V105.313C75.4783 105.49 75.727 105.634 76.0318 105.634C76.3367 105.634 76.5854 105.49 76.5934 105.313V103.516C76.5934 103.693 76.3447 103.837 76.0318 103.837C75.727 103.837 75.4783 103.693 75.4783 103.516V103.524Z" fill="url(#paint61_linear_72_2134)"/>
<path d="M75.4783 103.524C75.4783 103.709 75.727 103.845 76.0318 103.845C76.3367 103.845 76.5934 103.701 76.5934 103.524C76.5934 102.858 76.9544 102.233 77.524 101.896C77.6765 101.807 77.6765 101.519 77.524 101.246C77.3716 100.981 77.1309 100.837 76.9705 100.925C76.0479 101.462 75.4783 102.449 75.4783 103.516V103.524Z" fill="url(#paint62_linear_72_2134)"/>
<defs>
<linearGradient id="paint0_linear_72_2134" x1="6.45983" y1="65.9304" x2="8.24084" y2="69.0111" gradientUnits="userSpaceOnUse">
<stop stop-color="#1984EF"/>
<stop offset="0.17" stop-color="#1579E9"/>
<stop offset="0.47" stop-color="#0B5DDC"/>
<stop offset="0.49" stop-color="#0B5BDB"/>
<stop offset="1" stop-color="#064AD3"/>
</linearGradient>
<linearGradient id="paint1_linear_72_2134" x1="35.2512" y1="84.0628" x2="36.4988" y2="81.902" gradientUnits="userSpaceOnUse">
<stop stop-color="#064AD3"/>
<stop offset="0.51" stop-color="#0B5BDB"/>
<stop offset="0.53" stop-color="#0B5DDC"/>
<stop offset="0.83" stop-color="#1579E9"/>
<stop offset="1" stop-color="#1984EF"/>
</linearGradient>
<linearGradient id="paint2_linear_72_2134" x1="7.51065" y1="72.6451" x2="3.8684" y2="72.6451" gradientUnits="userSpaceOnUse">
<stop stop-color="#064AD3"/>
<stop offset="0.51" stop-color="#0B5BDB"/>
<stop offset="0.53" stop-color="#0B5DDC"/>
<stop offset="0.83" stop-color="#1579E9"/>
<stop offset="1" stop-color="#1984EF"/>
</linearGradient>
<linearGradient id="paint3_linear_72_2134" x1="18.1807" y1="78.9192" x2="20.9004" y2="77.3468" gradientUnits="userSpaceOnUse">
<stop stop-color="#064AD3"/>
<stop offset="0.51" stop-color="#0B5BDB"/>
<stop offset="0.53" stop-color="#0B5DDC"/>
<stop offset="0.83" stop-color="#1579E9"/>
<stop offset="1" stop-color="#1984EF"/>
</linearGradient>
<linearGradient id="paint4_linear_72_2134" x1="3.55566" y1="68.1447" x2="5.02379" y2="70.6959" gradientUnits="userSpaceOnUse">
<stop stop-color="#1984EF"/>
<stop offset="0.17" stop-color="#1579E9"/>
<stop offset="0.47" stop-color="#0B5DDC"/>
<stop offset="0.49" stop-color="#0B5BDB"/>
<stop offset="1" stop-color="#064AD3"/>
</linearGradient>
<linearGradient id="paint5_linear_72_2134" x1="10.8284" y1="73.528" x2="12.0679" y2="71.3812" gradientUnits="userSpaceOnUse">
<stop stop-color="#064AD3"/>
<stop offset="0.51" stop-color="#0B5BDB"/>
<stop offset="0.53" stop-color="#0B5DDC"/>
<stop offset="0.83" stop-color="#1579E9"/>
<stop offset="1" stop-color="#1984EF"/>
</linearGradient>
<linearGradient id="paint6_linear_72_2134" x1="4.41397" y1="74.4988" x2="0.72358" y2="74.4988" gradientUnits="userSpaceOnUse">
<stop stop-color="#064AD3"/>
<stop offset="0.51" stop-color="#0B5BDB"/>
<stop offset="0.53" stop-color="#0B5DDC"/>
<stop offset="0.83" stop-color="#1579E9"/>
<stop offset="1" stop-color="#1984EF"/>
</linearGradient>
<linearGradient id="paint7_linear_72_2134" x1="21.8148" y1="84.2946" x2="18.317" y2="84.2946" gradientUnits="userSpaceOnUse">
<stop stop-color="#064AD3"/>
<stop offset="0.51" stop-color="#0B5BDB"/>
<stop offset="0.53" stop-color="#0B5DDC"/>
<stop offset="0.83" stop-color="#1579E9"/>
<stop offset="1" stop-color="#1984EF"/>
</linearGradient>
<linearGradient id="paint8_linear_72_2134" x1="38.8948" y1="61.1011" x2="37.7075" y2="60.4192" gradientUnits="userSpaceOnUse">
<stop stop-color="#064AD3"/>
<stop offset="0.51" stop-color="#0B5BDB"/>
<stop offset="0.53" stop-color="#0B5DDC"/>
<stop offset="0.83" stop-color="#1579E9"/>
<stop offset="1" stop-color="#1984EF"/>
</linearGradient>
<linearGradient id="paint9_linear_72_2134" x1="39.2963" y1="58.5422" x2="38.1811" y2="58.5422" gradientUnits="userSpaceOnUse">
<stop stop-color="#064AD3"/>
<stop offset="0.51" stop-color="#0B5BDB"/>
<stop offset="0.53" stop-color="#0B5DDC"/>
<stop offset="0.83" stop-color="#1579E9"/>
<stop offset="1" stop-color="#1984EF"/>
</linearGradient>
<linearGradient id="paint10_linear_72_2134" x1="30.7202" y1="66.3477" x2="30.1345" y2="65.3369" gradientUnits="userSpaceOnUse">
<stop stop-color="#064AD3"/>
<stop offset="0.51" stop-color="#0B5BDB"/>
<stop offset="0.53" stop-color="#0B5DDC"/>
<stop offset="0.83" stop-color="#1579E9"/>
<stop offset="1" stop-color="#1984EF"/>
</linearGradient>
<linearGradient id="paint11_linear_72_2134" x1="37.0342" y1="60.0262" x2="35.8549" y2="59.3443" gradientUnits="userSpaceOnUse">
<stop stop-color="#064AD3"/>
<stop offset="0.51" stop-color="#0B5BDB"/>
<stop offset="0.53" stop-color="#0B5DDC"/>
<stop offset="0.83" stop-color="#1579E9"/>
<stop offset="1" stop-color="#1984EF"/>
</linearGradient>
<linearGradient id="paint12_linear_72_2134" x1="37.4352" y1="57.4665" x2="36.32" y2="57.4665" gradientUnits="userSpaceOnUse">
<stop stop-color="#064AD3"/>
<stop offset="0.51" stop-color="#0B5BDB"/>
<stop offset="0.53" stop-color="#0B5DDC"/>
<stop offset="0.83" stop-color="#1579E9"/>
<stop offset="1" stop-color="#1984EF"/>
</linearGradient>
<linearGradient id="paint13_linear_72_2134" x1="17.7795" y1="72.2449" x2="16.5761" y2="71.5549" gradientUnits="userSpaceOnUse">
<stop stop-color="#064AD3"/>
<stop offset="0.51" stop-color="#0B5BDB"/>
<stop offset="0.53" stop-color="#0B5DDC"/>
<stop offset="0.83" stop-color="#1579E9"/>
<stop offset="1" stop-color="#1984EF"/>
</linearGradient>
<linearGradient id="paint14_linear_72_2134" x1="27.2385" y1="66.22" x2="26.6528" y2="65.2011" gradientUnits="userSpaceOnUse">
<stop stop-color="#064AD3"/>
<stop offset="0.51" stop-color="#0B5BDB"/>
<stop offset="0.53" stop-color="#0B5DDC"/>
<stop offset="0.83" stop-color="#1579E9"/>
<stop offset="1" stop-color="#1984EF"/>
</linearGradient>
<linearGradient id="paint15_linear_72_2134" x1="99.7949" y1="26.6362" x2="83.9663" y2="-0.785042" gradientUnits="userSpaceOnUse">
<stop stop-color="#B6CAE0"/>
<stop offset="0.36" stop-color="#C7D7E7"/>
<stop offset="1" stop-color="#F0F6FA"/>
</linearGradient>
<linearGradient id="paint16_linear_72_2134" x1="34.0339" y1="57.1538" x2="34.0339" y2="35.8939" gradientUnits="userSpaceOnUse">
<stop stop-color="#B6CAE0"/>
<stop offset="0.36" stop-color="#C7D7E7"/>
<stop offset="1" stop-color="#F0F6FA"/>
</linearGradient>
<linearGradient id="paint17_linear_72_2134" x1="74.0266" y1="41.7025" x2="58.1098" y2="14.1449" gradientUnits="userSpaceOnUse">
<stop stop-color="#ABC2DB"/>
<stop offset="0.15" stop-color="#AEC4DC"/>
<stop offset="0.4" stop-color="#C4D4E4"/>
<stop offset="0.6" stop-color="#D1DEE9"/>
<stop offset="0.65" stop-color="#EDF4FA"/>
<stop offset="0.72" stop-color="#F5FAFF"/>
<stop offset="0.76" stop-color="#E6EDF0"/>
<stop offset="0.8" stop-color="#E9EFF1"/>
<stop offset="0.95" stop-color="#F3F7F5"/>
</linearGradient>
<linearGradient id="paint18_linear_72_2134" x1="36.4727" y1="59.5686" x2="36.4727" y2="30.2781" gradientUnits="userSpaceOnUse">
<stop offset="0.07" stop-color="#B0C5DD"/>
<stop offset="0.28" stop-color="#B9CCE1"/>
<stop offset="0.62" stop-color="#D2DFEC"/>
<stop offset="0.94" stop-color="#F0F6FA"/>
</linearGradient>
<linearGradient id="paint19_linear_72_2134" x1="17.2902" y1="74.1059" x2="16.175" y2="74.1059" gradientUnits="userSpaceOnUse">
<stop stop-color="#064AD3"/>
<stop offset="0.51" stop-color="#0B5BDB"/>
<stop offset="0.53" stop-color="#0B5DDC"/>
<stop offset="0.83" stop-color="#1579E9"/>
<stop offset="1" stop-color="#1984EF"/>
</linearGradient>
<linearGradient id="paint20_linear_72_2134" x1="22.4007" y1="73.2875" x2="21.2776" y2="73.2875" gradientUnits="userSpaceOnUse">
<stop stop-color="#064AD3"/>
<stop offset="0.51" stop-color="#0B5BDB"/>
<stop offset="0.53" stop-color="#0B5DDC"/>
<stop offset="0.83" stop-color="#1579E9"/>
<stop offset="1" stop-color="#1984EF"/>
</linearGradient>
<linearGradient id="paint21_linear_72_2134" x1="22.8901" y1="71.4338" x2="21.6787" y2="70.7359" gradientUnits="userSpaceOnUse">
<stop stop-color="#064AD3"/>
<stop offset="0.51" stop-color="#0B5BDB"/>
<stop offset="0.53" stop-color="#0B5DDC"/>
<stop offset="0.83" stop-color="#1579E9"/>
<stop offset="1" stop-color="#1984EF"/>
</linearGradient>
<linearGradient id="paint22_linear_72_2134" x1="45.281" y1="94.5633" x2="48.0007" y2="92.9988" gradientUnits="userSpaceOnUse">
<stop stop-color="#064AD3"/>
<stop offset="0.51" stop-color="#0B5BDB"/>
<stop offset="0.53" stop-color="#0B5DDC"/>
<stop offset="0.83" stop-color="#1579E9"/>
<stop offset="1" stop-color="#1984EF"/>
</linearGradient>
<linearGradient id="paint23_linear_72_2134" x1="30.6562" y1="83.7972" x2="32.1244" y2="86.3404" gradientUnits="userSpaceOnUse">
<stop stop-color="#1984EF"/>
<stop offset="0.17" stop-color="#1579E9"/>
<stop offset="0.47" stop-color="#0B5DDC"/>
<stop offset="0.49" stop-color="#0B5BDB"/>
<stop offset="1" stop-color="#064AD3"/>
</linearGradient>
<linearGradient id="paint24_linear_72_2134" x1="37.9245" y1="89.1716" x2="39.164" y2="87.0247" gradientUnits="userSpaceOnUse">
<stop stop-color="#064AD3"/>
<stop offset="0.51" stop-color="#0B5BDB"/>
<stop offset="0.53" stop-color="#0B5DDC"/>
<stop offset="0.83" stop-color="#1579E9"/>
<stop offset="1" stop-color="#1984EF"/>
</linearGradient>
<linearGradient id="paint25_linear_72_2134" x1="31.5146" y1="90.1431" x2="27.8242" y2="90.1431" gradientUnits="userSpaceOnUse">
<stop stop-color="#064AD3"/>
<stop offset="0.51" stop-color="#0B5BDB"/>
<stop offset="0.53" stop-color="#0B5DDC"/>
<stop offset="0.83" stop-color="#1579E9"/>
<stop offset="1" stop-color="#1984EF"/>
</linearGradient>
<linearGradient id="paint26_linear_72_2134" x1="48.9154" y1="99.9387" x2="45.4176" y2="99.9387" gradientUnits="userSpaceOnUse">
<stop stop-color="#064AD3"/>
<stop offset="0.51" stop-color="#0B5BDB"/>
<stop offset="0.53" stop-color="#0B5DDC"/>
<stop offset="0.83" stop-color="#1579E9"/>
<stop offset="1" stop-color="#1984EF"/>
</linearGradient>
<linearGradient id="paint27_linear_72_2134" x1="65.9954" y1="76.7446" x2="64.808" y2="76.0627" gradientUnits="userSpaceOnUse">
<stop stop-color="#064AD3"/>
<stop offset="0.51" stop-color="#0B5BDB"/>
<stop offset="0.53" stop-color="#0B5DDC"/>
<stop offset="0.83" stop-color="#1579E9"/>
<stop offset="1" stop-color="#1984EF"/>
</linearGradient>
<linearGradient id="paint28_linear_72_2134" x1="66.3964" y1="74.1853" x2="65.2732" y2="74.1853" gradientUnits="userSpaceOnUse">
<stop stop-color="#064AD3"/>
<stop offset="0.51" stop-color="#0B5BDB"/>
<stop offset="0.53" stop-color="#0B5DDC"/>
<stop offset="0.83" stop-color="#1579E9"/>
<stop offset="1" stop-color="#1984EF"/>
</linearGradient>
<linearGradient id="paint29_linear_72_2134" x1="57.8205" y1="81.9918" x2="57.2349" y2="80.9809" gradientUnits="userSpaceOnUse">
<stop stop-color="#064AD3"/>
<stop offset="0.51" stop-color="#0B5BDB"/>
<stop offset="0.53" stop-color="#0B5DDC"/>
<stop offset="0.83" stop-color="#1579E9"/>
<stop offset="1" stop-color="#1984EF"/>
</linearGradient>
<linearGradient id="paint30_linear_72_2134" x1="64.1341" y1="75.6697" x2="62.9547" y2="74.9878" gradientUnits="userSpaceOnUse">
<stop stop-color="#064AD3"/>
<stop offset="0.51" stop-color="#0B5BDB"/>
<stop offset="0.53" stop-color="#0B5DDC"/>
<stop offset="0.83" stop-color="#1579E9"/>
<stop offset="1" stop-color="#1984EF"/>
</linearGradient>
<linearGradient id="paint31_linear_72_2134" x1="64.5355" y1="73.1106" x2="63.4204" y2="73.1106" gradientUnits="userSpaceOnUse">
<stop stop-color="#064AD3"/>
<stop offset="0.51" stop-color="#0B5BDB"/>
<stop offset="0.53" stop-color="#0B5DDC"/>
<stop offset="0.83" stop-color="#1579E9"/>
<stop offset="1" stop-color="#1984EF"/>
</linearGradient>
<linearGradient id="paint32_linear_72_2134" x1="44.8801" y1="87.896" x2="43.6767" y2="87.198" gradientUnits="userSpaceOnUse">
<stop stop-color="#064AD3"/>
<stop offset="0.51" stop-color="#0B5BDB"/>
<stop offset="0.53" stop-color="#0B5DDC"/>
<stop offset="0.83" stop-color="#1579E9"/>
<stop offset="1" stop-color="#1984EF"/>
</linearGradient>
<linearGradient id="paint33_linear_72_2134" x1="54.3388" y1="81.8633" x2="53.7451" y2="80.8445" gradientUnits="userSpaceOnUse">
<stop stop-color="#064AD3"/>
<stop offset="0.51" stop-color="#0B5BDB"/>
<stop offset="0.53" stop-color="#0B5DDC"/>
<stop offset="0.83" stop-color="#1579E9"/>
<stop offset="1" stop-color="#1984EF"/>
</linearGradient>
<linearGradient id="paint34_linear_72_2134" x1="126.895" y1="42.28" x2="111.066" y2="14.8588" gradientUnits="userSpaceOnUse">
<stop stop-color="#B6CAE0"/>
<stop offset="0.36" stop-color="#C7D7E7"/>
<stop offset="1" stop-color="#F0F6FA"/>
</linearGradient>
<linearGradient id="paint35_linear_72_2134" x1="61.134" y1="72.7981" x2="61.134" y2="51.5383" gradientUnits="userSpaceOnUse">
<stop stop-color="#B6CAE0"/>
<stop offset="0.36" stop-color="#C7D7E7"/>
<stop offset="1" stop-color="#F0F6FA"/>
</linearGradient>
<linearGradient id="paint36_linear_72_2134" x1="101.126" y1="57.3461" x2="85.2094" y2="29.7885" gradientUnits="userSpaceOnUse">
<stop stop-color="#ABC2DB"/>
<stop offset="0.15" stop-color="#AEC4DC"/>
<stop offset="0.4" stop-color="#C4D4E4"/>
<stop offset="0.6" stop-color="#D1DEE9"/>
<stop offset="0.65" stop-color="#EDF4FA"/>
<stop offset="0.72" stop-color="#F5FAFF"/>
<stop offset="0.76" stop-color="#E6EDF0"/>
<stop offset="0.8" stop-color="#E9EFF1"/>
<stop offset="0.95" stop-color="#F3F7F5"/>
</linearGradient>
<linearGradient id="paint37_linear_72_2134" x1="63.5725" y1="75.2128" x2="63.5725" y2="45.9223" gradientUnits="userSpaceOnUse">
<stop offset="0.07" stop-color="#B0C5DD"/>
<stop offset="0.28" stop-color="#B9CCE1"/>
<stop offset="0.62" stop-color="#D2DFEC"/>
<stop offset="0.94" stop-color="#F0F6FA"/>
</linearGradient>
<linearGradient id="paint38_linear_72_2134" x1="44.3907" y1="89.7497" x2="43.2756" y2="89.7497" gradientUnits="userSpaceOnUse">
<stop stop-color="#064AD3"/>
<stop offset="0.51" stop-color="#0B5BDB"/>
<stop offset="0.53" stop-color="#0B5DDC"/>
<stop offset="0.83" stop-color="#1579E9"/>
<stop offset="1" stop-color="#1984EF"/>
</linearGradient>
<linearGradient id="paint39_linear_72_2134" x1="49.5011" y1="88.9396" x2="48.3779" y2="88.9396" gradientUnits="userSpaceOnUse">
<stop stop-color="#064AD3"/>
<stop offset="0.51" stop-color="#0B5BDB"/>
<stop offset="0.53" stop-color="#0B5DDC"/>
<stop offset="0.83" stop-color="#1579E9"/>
<stop offset="1" stop-color="#1984EF"/>
</linearGradient>
<linearGradient id="paint40_linear_72_2134" x1="49.9905" y1="87.0779" x2="48.7791" y2="86.3799" gradientUnits="userSpaceOnUse">
<stop stop-color="#064AD3"/>
<stop offset="0.51" stop-color="#0B5BDB"/>
<stop offset="0.53" stop-color="#0B5DDC"/>
<stop offset="0.83" stop-color="#1579E9"/>
<stop offset="1" stop-color="#1984EF"/>
</linearGradient>
<linearGradient id="paint41_linear_72_2134" x1="83.5005" y1="113.071" x2="86.2202" y2="111.507" gradientUnits="userSpaceOnUse">
<stop stop-color="#064AD3"/>
<stop offset="0.51" stop-color="#0B5BDB"/>
<stop offset="0.53" stop-color="#0B5DDC"/>
<stop offset="0.83" stop-color="#1579E9"/>
<stop offset="1" stop-color="#1984EF"/>
</linearGradient>
<linearGradient id="paint42_linear_72_2134" x1="87.1188" y1="118.414" x2="84.6238" y2="118.414" gradientUnits="userSpaceOnUse">
<stop stop-color="#064AD3"/>
<stop offset="0.51" stop-color="#0B5BDB"/>
<stop offset="0.53" stop-color="#0B5DDC"/>
<stop offset="0.83" stop-color="#1579E9"/>
<stop offset="1" stop-color="#1984EF"/>
</linearGradient>
<linearGradient id="paint43_linear_72_2134" x1="72.1661" y1="105.356" x2="73.4056" y2="103.209" gradientUnits="userSpaceOnUse">
<stop stop-color="#064AD3"/>
<stop offset="0.51" stop-color="#0B5BDB"/>
<stop offset="0.53" stop-color="#0B5DDC"/>
<stop offset="0.83" stop-color="#1579E9"/>
<stop offset="1" stop-color="#1984EF"/>
</linearGradient>
<linearGradient id="paint44_linear_72_2134" x1="72.3813" y1="110.207" x2="75.101" y2="108.643" gradientUnits="userSpaceOnUse">
<stop stop-color="#064AD3"/>
<stop offset="0.51" stop-color="#0B5BDB"/>
<stop offset="0.53" stop-color="#0B5DDC"/>
<stop offset="0.83" stop-color="#1579E9"/>
<stop offset="1" stop-color="#1984EF"/>
</linearGradient>
<linearGradient id="paint45_linear_72_2134" x1="57.7563" y1="99.4413" x2="59.2245" y2="101.984" gradientUnits="userSpaceOnUse">
<stop stop-color="#1984EF"/>
<stop offset="0.17" stop-color="#1579E9"/>
<stop offset="0.47" stop-color="#0B5DDC"/>
<stop offset="0.49" stop-color="#0B5BDB"/>
<stop offset="1" stop-color="#064AD3"/>
</linearGradient>
<linearGradient id="paint46_linear_72_2134" x1="65.0277" y1="104.82" x2="66.2672" y2="102.673" gradientUnits="userSpaceOnUse">
<stop stop-color="#064AD3"/>
<stop offset="0.51" stop-color="#0B5BDB"/>
<stop offset="0.53" stop-color="#0B5DDC"/>
<stop offset="0.83" stop-color="#1579E9"/>
<stop offset="1" stop-color="#1984EF"/>
</linearGradient>
<linearGradient id="paint47_linear_72_2134" x1="58.6147" y1="105.795" x2="54.9243" y2="105.795" gradientUnits="userSpaceOnUse">
<stop stop-color="#064AD3"/>
<stop offset="0.51" stop-color="#0B5BDB"/>
<stop offset="0.53" stop-color="#0B5DDC"/>
<stop offset="0.83" stop-color="#1579E9"/>
<stop offset="1" stop-color="#1984EF"/>
</linearGradient>
<linearGradient id="paint48_linear_72_2134" x1="76.0155" y1="115.583" x2="72.5177" y2="115.583" gradientUnits="userSpaceOnUse">
<stop stop-color="#064AD3"/>
<stop offset="0.51" stop-color="#0B5BDB"/>
<stop offset="0.53" stop-color="#0B5DDC"/>
<stop offset="0.83" stop-color="#1579E9"/>
<stop offset="1" stop-color="#1984EF"/>
</linearGradient>
<linearGradient id="paint49_linear_72_2134" x1="93.0957" y1="92.3967" x2="91.9084" y2="91.7148" gradientUnits="userSpaceOnUse">
<stop stop-color="#064AD3"/>
<stop offset="0.51" stop-color="#0B5BDB"/>
<stop offset="0.53" stop-color="#0B5DDC"/>
<stop offset="0.83" stop-color="#1579E9"/>
<stop offset="1" stop-color="#1984EF"/>
</linearGradient>
<linearGradient id="paint50_linear_72_2134" x1="93.4969" y1="89.8298" x2="92.3738" y2="89.8298" gradientUnits="userSpaceOnUse">
<stop stop-color="#064AD3"/>
<stop offset="0.51" stop-color="#0B5BDB"/>
<stop offset="0.53" stop-color="#0B5DDC"/>
<stop offset="0.83" stop-color="#1579E9"/>
<stop offset="1" stop-color="#1984EF"/>
</linearGradient>
<linearGradient id="paint51_linear_72_2134" x1="84.9206" y1="97.6361" x2="84.335" y2="96.6333" gradientUnits="userSpaceOnUse">
<stop stop-color="#064AD3"/>
<stop offset="0.51" stop-color="#0B5BDB"/>
<stop offset="0.53" stop-color="#0B5DDC"/>
<stop offset="0.83" stop-color="#1579E9"/>
<stop offset="1" stop-color="#1984EF"/>
</linearGradient>
<linearGradient id="paint52_linear_72_2134" x1="91.2344" y1="91.3218" x2="90.0551" y2="90.6399" gradientUnits="userSpaceOnUse">
<stop stop-color="#064AD3"/>
<stop offset="0.51" stop-color="#0B5BDB"/>
<stop offset="0.53" stop-color="#0B5DDC"/>
<stop offset="0.83" stop-color="#1579E9"/>
<stop offset="1" stop-color="#1984EF"/>
</linearGradient>
<linearGradient id="paint53_linear_72_2134" x1="91.6359" y1="88.7631" x2="90.5207" y2="88.7631" gradientUnits="userSpaceOnUse">
<stop stop-color="#064AD3"/>
<stop offset="0.51" stop-color="#0B5BDB"/>
<stop offset="0.53" stop-color="#0B5DDC"/>
<stop offset="0.83" stop-color="#1579E9"/>
<stop offset="1" stop-color="#1984EF"/>
</linearGradient>
<linearGradient id="paint54_linear_72_2134" x1="71.9802" y1="103.54" x2="70.7768" y2="102.843" gradientUnits="userSpaceOnUse">
<stop stop-color="#064AD3"/>
<stop offset="0.51" stop-color="#0B5BDB"/>
<stop offset="0.53" stop-color="#0B5DDC"/>
<stop offset="0.83" stop-color="#1579E9"/>
<stop offset="1" stop-color="#1984EF"/>
</linearGradient>
<linearGradient id="paint55_linear_72_2134" x1="81.4389" y1="97.5069" x2="80.8452" y2="96.496" gradientUnits="userSpaceOnUse">
<stop stop-color="#064AD3"/>
<stop offset="0.51" stop-color="#0B5BDB"/>
<stop offset="0.53" stop-color="#0B5DDC"/>
<stop offset="0.83" stop-color="#1579E9"/>
<stop offset="1" stop-color="#1984EF"/>
</linearGradient>
<linearGradient id="paint56_linear_72_2134" x1="153.995" y1="57.924" x2="138.159" y2="30.5109" gradientUnits="userSpaceOnUse">
<stop stop-color="#B6CAE0"/>
<stop offset="0.36" stop-color="#C7D7E7"/>
<stop offset="1" stop-color="#F0F6FA"/>
</linearGradient>
<linearGradient id="paint57_linear_72_2134" x1="88.2344" y1="88.4422" x2="88.2344" y2="67.1823" gradientUnits="userSpaceOnUse">
<stop stop-color="#B6CAE0"/>
<stop offset="0.36" stop-color="#C7D7E7"/>
<stop offset="1" stop-color="#F0F6FA"/>
</linearGradient>
<linearGradient id="paint58_linear_72_2134" x1="128.227" y1="72.9901" x2="112.31" y2="45.4325" gradientUnits="userSpaceOnUse">
<stop stop-color="#ABC2DB"/>
<stop offset="0.15" stop-color="#AEC4DC"/>
<stop offset="0.4" stop-color="#C4D4E4"/>
<stop offset="0.6" stop-color="#D1DEE9"/>
<stop offset="0.65" stop-color="#EDF4FA"/>
<stop offset="0.72" stop-color="#F5FAFF"/>
<stop offset="0.76" stop-color="#E6EDF0"/>
<stop offset="0.8" stop-color="#E9EFF1"/>
<stop offset="0.95" stop-color="#F3F7F5"/>
</linearGradient>
<linearGradient id="paint59_linear_72_2134" x1="90.6731" y1="90.8645" x2="90.6731" y2="61.574" gradientUnits="userSpaceOnUse">
<stop offset="0.07" stop-color="#B0C5DD"/>
<stop offset="0.28" stop-color="#B9CCE1"/>
<stop offset="0.62" stop-color="#D2DFEC"/>
<stop offset="0.94" stop-color="#F0F6FA"/>
</linearGradient>
<linearGradient id="paint60_linear_72_2134" x1="71.4908" y1="105.394" x2="70.3757" y2="105.394" gradientUnits="userSpaceOnUse">
<stop stop-color="#064AD3"/>
<stop offset="0.51" stop-color="#0B5BDB"/>
<stop offset="0.53" stop-color="#0B5DDC"/>
<stop offset="0.83" stop-color="#1579E9"/>
<stop offset="1" stop-color="#1984EF"/>
</linearGradient>
<linearGradient id="paint61_linear_72_2134" x1="76.6014" y1="104.583" x2="75.4783" y2="104.583" gradientUnits="userSpaceOnUse">
<stop stop-color="#064AD3"/>
<stop offset="0.51" stop-color="#0B5BDB"/>
<stop offset="0.53" stop-color="#0B5DDC"/>
<stop offset="0.83" stop-color="#1579E9"/>
<stop offset="1" stop-color="#1984EF"/>
</linearGradient>
<linearGradient id="paint62_linear_72_2134" x1="77.0908" y1="102.73" x2="75.8794" y2="102.032" gradientUnits="userSpaceOnUse">
<stop stop-color="#064AD3"/>
<stop offset="0.51" stop-color="#0B5BDB"/>
<stop offset="0.53" stop-color="#0B5DDC"/>
<stop offset="0.83" stop-color="#1579E9"/>
<stop offset="1" stop-color="#1984EF"/>
</linearGradient>
</defs>
</svg>
