<svg width="120" height="111" viewBox="0 0 120 111" fill="none" xmlns="http://www.w3.org/2000/svg">
<path d="M20.5751 53.6525C9.76405 59.9242 4.34424 68.1432 4.34424 76.3623L4.45892 34.3221C4.45892 26.103 9.87878 17.884 20.6898 11.6123C42.4552 -1.01693 77.8419 -1.01693 99.722 11.6123C110.734 17.9699 116.24 26.3035 116.211 34.6371L116.096 76.6773C116.096 68.3437 110.619 60.0101 99.6073 53.6525C77.6985 41.0233 42.3118 41.0233 20.5751 53.6525Z" fill="#F7FFFD"/>
<path d="M116.24 34.6373L116.125 76.6775C116.125 84.8965 110.705 93.1156 99.8941 99.3872C78.1287 112.016 42.742 112.016 20.8619 99.3872C9.85011 93.0297 4.34424 84.6961 4.37291 76.3625L4.4876 34.3223C4.4876 42.6559 9.96479 50.9894 20.9765 57.347C42.8853 69.9763 78.272 69.9763 100.009 57.347C110.82 51.0754 116.211 42.8563 116.24 34.6373Z" fill="#39A5D6"/>
<path d="M119.967 34.6374L119.853 76.6776C119.853 85.4407 114.06 94.2039 102.532 100.905C79.3329 114.365 41.5661 114.365 18.1948 100.905C6.43749 94.118 0.55883 85.2403 0.587507 76.3339L0.702193 34.2937C0.702193 43.1714 6.55218 52.0778 18.3095 58.8649C41.6808 72.3246 79.419 72.3246 102.647 58.8649C114.175 52.1637 119.939 43.4292 119.967 34.6374Z" fill="#DFE4E5"/>
<path d="M102.36 10.0948C125.731 23.5546 125.846 45.4052 102.647 58.8649C79.4474 72.3246 41.6806 72.3246 18.3093 58.8649C-5.06196 45.4052 -5.17669 23.5546 18.0225 10.0948C41.2217 -3.36494 78.9886 -3.36494 102.331 10.0948H102.36ZM20.9475 57.3471C42.8563 69.9763 78.2431 69.9763 99.9798 57.3471C121.745 44.7178 121.602 24.2419 99.7217 11.6126C77.8416 -1.01664 42.4262 -1.01664 20.6895 11.6126C-1.07594 24.2419 -0.961244 44.7178 20.9475 57.3471Z" fill="#A6ABAD"/>
<path d="M20.69 17.4544C42.4554 4.82517 77.8421 4.82517 99.7222 17.4544C109.443 23.0674 114.863 30.1982 115.982 37.5295C117.444 28.2795 112.024 18.6858 99.7222 11.6123C77.8134 -1.01693 42.4267 -1.01693 20.69 11.6123C8.58852 18.6286 3.2547 28.079 4.68852 37.2717C5.83558 30.055 11.1694 23.0101 20.69 17.4544Z" fill="#888D8E"/>
<path d="M20.9485 57.3457C42.8573 69.9749 78.244 69.9749 99.9807 57.3457C109.501 51.8186 114.835 44.7737 115.982 37.557C114.864 30.2257 109.444 23.0949 99.7226 17.4819C77.8139 4.8527 42.4271 4.8527 20.6904 17.4819C11.1412 23.009 5.80734 30.0539 4.68896 37.2993C5.80734 44.6305 11.2272 51.7613 20.9485 57.3743V57.3457Z" fill="#C4E7F1"/>
<path d="M20.9485 57.3457C42.8573 69.9749 78.244 69.9749 99.9807 57.3457C109.501 51.8186 114.835 44.7737 115.982 37.557C114.864 30.2257 109.444 23.0949 99.7226 17.4819C77.8139 4.8527 42.4271 4.8527 20.6904 17.4819C11.1412 23.009 5.80734 30.0539 4.68896 37.2993C5.80734 44.6305 11.2272 51.7613 20.9485 57.3743V57.3457Z" fill="#99D7DE"/>
<path d="M7.75651 50.6744C3.0249 45.5769 0.673412 39.9353 0.702089 34.3223L0.587402 76.3625C0.587402 82.0328 2.96754 87.703 7.75651 92.8578V50.7031V50.6744Z" fill="#C9CECF"/>
<path d="M102.618 58.864C102.016 59.2077 101.413 59.5513 100.782 59.8663V101.849C101.356 101.534 101.929 101.219 102.503 100.904C114.031 94.203 119.795 85.4685 119.824 76.6767L119.938 34.6365C119.938 43.3996 114.146 52.1628 102.618 58.864Z" fill="#C9CECF"/>
<path d="M95.6791 106.146C95.3923 106.146 95.1628 105.917 95.1628 105.63V61.4422C95.1628 61.1559 95.3923 60.9268 95.6791 60.9268C95.9658 60.9268 96.1952 61.1559 96.1952 61.4422V105.63C96.1952 105.917 95.9658 106.146 95.6791 106.146Z" fill="#636769"/>
<path d="M85.4407 70.4352C85.24 70.4352 85.0393 70.292 84.9532 70.0915C84.8672 69.8338 85.0106 69.5188 85.2687 69.4329L95.2194 66.025C95.4775 65.9391 95.7929 66.0823 95.8789 66.34C95.9649 66.5977 95.8216 66.9128 95.5635 66.9987L85.6128 70.4065C85.6128 70.4065 85.4981 70.4065 85.4407 70.4065V70.4352Z" fill="#959A9C"/>
<path d="M85.4407 76.1054C85.24 76.1054 85.0393 75.9622 84.9532 75.7618C84.8672 75.504 85.0106 75.189 85.2687 75.1031L95.2194 71.6666C95.4775 71.5807 95.7929 71.7239 95.8789 71.9816C95.9649 72.2393 95.8216 72.5543 95.5635 72.6403L85.6128 76.0768C85.6128 76.0768 85.4981 76.0768 85.4407 76.0768V76.1054Z" fill="#959A9C"/>
<path d="M85.4407 81.8038C85.24 81.8038 85.0393 81.6606 84.9532 81.4602C84.8672 81.2024 85.0106 80.8874 85.2687 80.8015L95.2194 77.3936C95.4775 77.3077 95.7929 77.4509 95.8789 77.7086C95.9649 77.9664 95.8216 78.2814 95.5635 78.3673L85.6128 81.7752C85.6128 81.7752 85.4981 81.7752 85.4407 81.7752V81.8038Z" fill="#959A9C"/>
<path d="M85.4407 87.4752C85.24 87.4752 85.0393 87.3321 84.9532 87.1316C84.8672 86.8739 85.0106 86.5588 85.2687 86.4729L95.2194 83.065C95.4775 82.9791 95.7929 83.1223 95.8789 83.38C95.9649 83.6378 95.8216 83.9528 95.5635 84.0387L85.6128 87.4466C85.6128 87.4466 85.4981 87.4466 85.4407 87.4466V87.4752Z" fill="#959A9C"/>
<path d="M85.4407 93.1455C85.24 93.1455 85.0393 93.0023 84.9532 92.8018C84.8672 92.5441 85.0106 92.2291 85.2687 92.1432L95.2194 88.7066C95.4775 88.6207 95.7929 88.7639 95.8789 89.0216C95.9649 89.2794 95.8216 89.5944 95.5635 89.6803L85.6128 93.0882C85.6128 93.0882 85.4981 93.0882 85.4407 93.0882V93.1455Z" fill="#959A9C"/>
<path d="M85.4407 98.8439C85.24 98.8439 85.0393 98.7007 84.9532 98.5002C84.8672 98.2425 85.0106 97.9275 85.2687 97.8416L95.2194 94.4337C95.4775 94.3478 95.7929 94.4909 95.8789 94.7487C95.9649 95.0064 95.8216 95.3214 95.5635 95.4074L85.6128 98.8152C85.6128 98.8152 85.4981 98.8152 85.4407 98.8152V98.8439Z" fill="#959A9C"/>
<path d="M85.4407 104.514C85.24 104.514 85.0393 104.371 84.9532 104.17C84.8672 103.912 85.0106 103.597 85.2687 103.511L95.2194 100.104C95.4775 100.018 95.7929 100.161 95.8789 100.419C95.9649 100.676 95.8216 100.991 95.5635 101.077L85.6128 104.485C85.6128 104.485 85.4981 104.485 85.4407 104.485V104.514Z" fill="#959A9C"/>
<path d="M85.4412 109.382C85.1545 109.382 84.925 109.153 84.925 108.866V64.6781C84.925 64.3917 85.1545 64.1626 85.4412 64.1626C85.728 64.1626 85.9574 64.3917 85.9574 64.6781V108.866C85.9574 109.153 85.728 109.382 85.4412 109.382Z" fill="#777B7E"/>
<g style="mix-blend-mode:screen">
<path d="M32.963 65.0788C32.0454 64.7925 31.1277 64.5061 30.2388 64.2197V106.289C31.1277 106.604 32.0454 106.89 32.963 107.148V65.0788Z" fill="#75787B"/>
</g>
<g style="mix-blend-mode:screen" opacity="0.44">
<path d="M41.5092 53.0809C59.073 53.0809 73.3113 44.6828 73.3113 34.3232C73.3113 23.9636 59.073 15.5654 41.5092 15.5654C23.9453 15.5654 9.70703 23.9636 9.70703 34.3232C9.70703 44.6828 23.9453 53.0809 41.5092 53.0809Z" fill="#D8EEF2"/>
</g>
<g style="mix-blend-mode:screen" opacity="0.44">
<path d="M75.4615 55.8861C75.4615 57.4325 73.3394 58.6926 70.7012 58.6926C68.063 58.6926 65.9409 57.4325 65.9409 55.8861C65.9409 54.3396 68.063 53.0796 70.7012 53.0796C73.3394 53.0796 75.4615 54.3396 75.4615 55.8861Z" fill="#D8EEF2"/>
</g>
</svg>
